ISO-10303-21;
HEADER;
FILE_DESCRIPTION(('Open CASCADE Model'),'2;1');
FILE_NAME('Open CASCADE Shape Model','2026-09-24T17:51:27',('Author'),(
    'Open CASCADE'),'Open CASCADE STEP processor 7.9','Open CASCADE 7.9'
  ,'Unknown');
FILE_SCHEMA(('AUTOMOTIVE_DESIGN { 1 0 10303 214 1 1 1 1 }'));
ENDSEC;
DATA;
#1 = APPLICATION_PROTOCOL_DEFINITION('international standard',
  'automotive_design',2000,#2);
#2 = APPLICATION_CONTEXT(
  'core data for automotive mechanical design processes');
#3 = SHAPE_DEFINITION_REPRESENTATION(#4,#10);
#4 = PRODUCT_DEFINITION_SHAPE('','',#5);
#5 = PRODUCT_DEFINITION('design','',#6,#9);
#6 = PRODUCT_DEFINITION_FORMATION('','',#7);
#7 = PRODUCT('Open CASCADE STEP translator 7.9 1',
  'Open CASCADE STEP translator 7.9 1','',(#8));
#8 = PRODUCT_CONTEXT('',#2,'mechanical');
#9 = PRODUCT_DEFINITION_CONTEXT('part definition',#2,'design');
#10 = ADVANCED_BREP_SHAPE_REPRESENTATION('',(#11,#15),#916);
#11 = AXIS2_PLACEMENT_3D('',#12,#13,#14);
#12 = CARTESIAN_POINT('',(0.,0.,0.));
#13 = DIRECTION('',(0.,0.,1.));
#14 = DIRECTION('',(1.,0.,-0.));
#15 = MANIFOLD_SOLID_BREP('',#16);
#16 = CLOSED_SHELL('',(#17,#713,#854,#908,#912));
#17 = ADVANCED_FACE('',(#18),#32,.T.);
#18 = FACE_BOUND('',#19,.T.);
#19 = EDGE_LOOP('',(#20,#49,#685,#686));
#20 = ORIENTED_EDGE('',*,*,#21,.T.);
#21 = EDGE_CURVE('',#22,#24,#26,.T.);
#22 = VERTEX_POINT('',#23);
#23 = CARTESIAN_POINT('',(2.049999999999,-8.003627331277,
    -6.670488768635E-02));
#24 = VERTEX_POINT('',#25);
#25 = CARTESIAN_POINT('',(2.05,-9.890910963162E-03,0.249804263135));
#26 = SEAM_CURVE('',#27,(#31,#42),.PCURVE_S1.);
#27 = LINE('',#28,#29);
#28 = CARTESIAN_POINT('',(2.049999999999,-8.003627331277,
    -6.670488768635E-02));
#29 = VECTOR('',#30,1.);
#30 = DIRECTION('',(1.785238623597E-13,0.999217052539,3.956364385264E-02
    ));
#31 = PCURVE('',#32,#37);
#32 = CYLINDRICAL_SURFACE('',#33,0.25);
#33 = AXIS2_PLACEMENT_3D('',#34,#35,#36);
#34 = CARTESIAN_POINT('',(2.049999999999,-7.993736420313,-0.316509150821
    ));
#35 = DIRECTION('',(1.785238623597E-13,0.999217052539,3.956364385264E-02
    ));
#36 = DIRECTION('',(3.155443620884E-30,-3.956364385264E-02,
    0.999217052539));
#37 = DEFINITIONAL_REPRESENTATION('',(#38),#41);
#38 = B_SPLINE_CURVE_WITH_KNOTS('',1,(#39,#40),.UNSPECIFIED.,.F.,.F.,(2,
    2),(0.,8.),.PIECEWISE_BEZIER_KNOTS.);
#39 = CARTESIAN_POINT('',(6.28318530718,0.));
#40 = CARTESIAN_POINT('',(6.28318530718,8.));
#41 = ( GEOMETRIC_REPRESENTATION_CONTEXT(2) 
PARAMETRIC_REPRESENTATION_CONTEXT() REPRESENTATION_CONTEXT('2D SPACE',''
  ) );
#42 = PCURVE('',#32,#43);
#43 = DEFINITIONAL_REPRESENTATION('',(#44),#48);
#44 = LINE('',#45,#46);
#45 = CARTESIAN_POINT('',(0.,0.));
#46 = VECTOR('',#47,1.);
#47 = DIRECTION('',(0.,1.));
#48 = ( GEOMETRIC_REPRESENTATION_CONTEXT(2) 
PARAMETRIC_REPRESENTATION_CONTEXT() REPRESENTATION_CONTEXT('2D SPACE',''
  ) );
#49 = ORIENTED_EDGE('',*,*,#50,.F.);
#50 = EDGE_CURVE('',#24,#24,#51,.T.);
#51 = SURFACE_CURVE('',#52,(#57,#64),.PCURVE_S1.);
#52 = CIRCLE('',#53,0.25);
#53 = AXIS2_PLACEMENT_3D('',#54,#55,#56);
#54 = CARTESIAN_POINT('',(2.05,0.,-1.665334536938E-16));
#55 = DIRECTION('',(1.785238623597E-13,0.999217052539,3.956364385264E-02
    ));
#56 = DIRECTION('',(3.155443620884E-30,-3.956364385264E-02,
    0.999217052539));
#57 = PCURVE('',#32,#58);
#58 = DEFINITIONAL_REPRESENTATION('',(#59),#63);
#59 = LINE('',#60,#61);
#60 = CARTESIAN_POINT('',(0.,8.));
#61 = VECTOR('',#62,1.);
#62 = DIRECTION('',(1.,0.));
#63 = ( GEOMETRIC_REPRESENTATION_CONTEXT(2) 
PARAMETRIC_REPRESENTATION_CONTEXT() REPRESENTATION_CONTEXT('2D SPACE',''
  ) );
#64 = PCURVE('',#65,#640);
#65 = ( BOUNDED_SURFACE() B_SPLINE_SURFACE(6,11,(
    (#66,#67,#68,#69,#70,#71,#72,#73,#74,#75,#76,#77,#78,#79,#80,#81,#82
      ,#83,#84,#85,#86,#87,#88,#89,#90,#91,#92,#93,#94,#95,#96,#97,#98
      ,#99,#100,#101,#102,#103,#104,#105,#106,#107,#108,#109,#110,#111
      ,#112,#113,#114,#115,#116,#117,#118,#119,#120,#121,#122,#123,#124
      ,#125,#126,#127,#128,#129,#130,#131,#132,#133,#134,#135,#136,#137
      ,#138,#139,#140,#141,#142,#143,#144,#145,#146,#147)
    ,(#148,#149,#150,#151,#152,#153,#154,#155,#156,#157,#158,#159,#160
      ,#161,#162,#163,#164,#165,#166,#167,#168,#169,#170,#171,#172,#173
      ,#174,#175,#176,#177,#178,#179,#180,#181,#182,#183,#184,#185,#186
      ,#187,#188,#189,#190,#191,#192,#193,#194,#195,#196,#197,#198,#199
      ,#200,#201,#202,#203,#204,#205,#206,#207,#208,#209,#210,#211,#212
      ,#213,#214,#215,#216,#217,#218,#219,#220,#221,#222,#223,#224,#225
      ,#226,#227,#228,#229)
    ,(#230,#231,#232,#233,#234,#235,#236,#237,#238,#239,#240,#241,#242
      ,#243,#244,#245,#246,#247,#248,#249,#250,#251,#252,#253,#254,#255
      ,#256,#257,#258,#259,#260,#261,#262,#263,#264,#265,#266,#267,#268
      ,#269,#270,#271,#272,#273,#274,#275,#276,#277,#278,#279,#280,#281
      ,#282,#283,#284,#285,#286,#287,#288,#289,#290,#291,#292,#293,#294
      ,#295,#296,#297,#298,#299,#300,#301,#302,#303,#304,#305,#306,#307
      ,#308,#309,#310,#311)
    ,(#312,#313,#314,#315,#316,#317,#318,#319,#320,#321,#322,#323,#324
      ,#325,#326,#327,#328,#329,#330,#331,#332,#333,#334,#335,#336,#337
      ,#338,#339,#340,#341,#342,#343,#344,#345,#346,#347,#348,#349,#350
      ,#351,#352,#353,#354,#355,#356,#357,#358,#359,#360,#361,#362,#363
      ,#364,#365,#366,#367,#368,#369,#370,#371,#372,#373,#374,#375,#376
      ,#377,#378,#379,#380,#381,#382,#383,#384,#385,#386,#387,#388,#389
      ,#390,#391,#392,#393)
    ,(#394,#395,#396,#397,#398,#399,#400,#401,#402,#403,#404,#405,#406
      ,#407,#408,#409,#410,#411,#412,#413,#414,#415,#416,#417,#418,#419
      ,#420,#421,#422,#423,#424,#425,#426,#427,#428,#429,#430,#431,#432
      ,#433,#434,#435,#436,#437,#438,#439,#440,#441,#442,#443,#444,#445
      ,#446,#447,#448,#449,#450,#451,#452,#453,#454,#455,#456,#457,#458
      ,#459,#460,#461,#462,#463,#464,#465,#466,#467,#468,#469,#470,#471
      ,#472,#473,#474,#475)
    ,(#476,#477,#478,#479,#480,#481,#482,#483,#484,#485,#486,#487,#488
      ,#489,#490,#491,#492,#493,#494,#495,#496,#497,#498,#499,#500,#501
      ,#502,#503,#504,#505,#506,#507,#508,#509,#510,#511,#512,#513,#514
      ,#515,#516,#517,#518,#519,#520,#521,#522,#523,#524,#525,#526,#527
      ,#528,#529,#530,#531,#532,#533,#534,#535,#536,#537,#538,#539,#540
      ,#541,#542,#543,#544,#545,#546,#547,#548,#549,#550,#551,#552,#553
      ,#554,#555,#556,#557)
    ,(#558,#559,#560,#561,#562,#563,#564,#565,#566,#567,#568,#569,#570
      ,#571,#572,#573,#574,#575,#576,#577,#578,#579,#580,#581,#582,#583
      ,#584,#585,#586,#587,#588,#589,#590,#591,#592,#593,#594,#595,#596
      ,#597,#598,#599,#600,#601,#602,#603,#604,#605,#606,#607,#608,#609
      ,#610,#611,#612,#613,#614,#615,#616,#617,#618,#619,#620,#621,#622
      ,#623,#624,#625,#626,#627,#628,#629,#630,#631,#632,#633,#634,#635
      ,#636,#637,#638,#639
)),.UNSPECIFIED.,.T.,.F.,.F.) B_SPLINE_SURFACE_WITH_KNOTS((1,6,6,1),(12,
    10,10,10,10,10,10,10,12),(-6.28318530718,0.,6.28318530718,
    12.566370614359),(0.,7.223160802322,14.446321604645,21.669482406967,
    28.89264320929,36.115804011612,43.338964813935,50.562125616257,
57.785286418579),.UNSPECIFIED.) GEOMETRIC_REPRESENTATION_ITEM() 
RATIONAL_B_SPLINE_SURFACE((
    (1.669078461068,1.669078461068,1.669078461068,1.669078461069
      ,1.669078461066,1.669078461071,1.669078461066,1.66907846107
      ,1.669078461067,1.669078461069,1.669078461068,1.669078461068
      ,1.669078461068,1.669078461068,1.669078461069,1.669078461067
      ,1.669078461069,1.669078461067,1.669078461069,1.669078461068
      ,1.669078461068,1.669078461068,1.669078461068,1.669078461068
      ,1.669078461069,1.669078461068,1.669078461069,1.669078461068
      ,1.669078461068,1.669078461068,1.669078461068,1.669078461068
      ,1.669078461068,1.669078461068,1.669078461068,1.669078461069
      ,1.669078461068,1.669078461069,1.669078461068,1.669078461068
      ,1.669078461068,1.669078461068,1.669078461068,1.669078461069
      ,1.669078461066,1.66907846107,1.669078461066,1.66907846107
      ,1.669078461067,1.669078461069,1.669078461068,1.669078461068
      ,1.669078461068,1.669078461068,1.669078461069,1.669078461067
      ,1.669078461069,1.669078461068,1.669078461069,1.669078461068
      ,1.669078461068,1.669078461068,1.669078461068,1.669078461069
      ,1.669078461067,1.669078461069,1.669078461067,1.669078461069
      ,1.669078461068,1.669078461068,1.669078461068,1.669078461068
      ,1.669078461068,1.669078461069,1.669078461067,1.66907846107
      ,1.669078461067,1.669078461069,1.669078461068,1.669078461068
      ,1.669078461068,1.669078461068)
    ,(1.03672962321,1.03672962321,1.036729623209,1.03672962321
      ,1.036729623208,1.036729623212,1.036729623208,1.036729623211
      ,1.036729623209,1.03672962321,1.03672962321,1.03672962321
      ,1.03672962321,1.036729623209,1.03672962321,1.036729623209
      ,1.03672962321,1.036729623209,1.03672962321,1.036729623209
      ,1.03672962321,1.03672962321,1.03672962321,1.036729623209
      ,1.03672962321,1.036729623209,1.03672962321,1.036729623209
      ,1.03672962321,1.03672962321,1.03672962321,1.03672962321
      ,1.03672962321,1.03672962321,1.03672962321,1.03672962321
      ,1.03672962321,1.03672962321,1.03672962321,1.03672962321
      ,1.03672962321,1.03672962321,1.036729623209,1.03672962321
      ,1.036729623208,1.036729623211,1.036729623208,1.036729623211
      ,1.036729623209,1.03672962321,1.03672962321,1.03672962321
      ,1.036729623209,1.03672962321,1.036729623209,1.03672962321
      ,1.036729623209,1.03672962321,1.036729623209,1.03672962321
      ,1.03672962321,1.03672962321,1.036729623209,1.03672962321
      ,1.036729623208,1.036729623211,1.036729623208,1.03672962321
      ,1.036729623209,1.03672962321,1.03672962321,1.03672962321
      ,1.036729623209,1.03672962321,1.036729623209,1.03672962321
      ,1.036729623209,1.03672962321,1.036729623209,1.03672962321
      ,1.03672962321,1.03672962321)
    ,(1.038346699848,1.038346699848,1.038346699847,1.038346699848
      ,1.038346699846,1.03834669985,1.038346699846,1.038346699849
      ,1.038346699847,1.038346699848,1.038346699847,1.038346699848
      ,1.038346699848,1.038346699847,1.038346699848,1.038346699847
      ,1.038346699848,1.038346699847,1.038346699848,1.038346699847
      ,1.038346699848,1.038346699847,1.038346699848,1.038346699847
      ,1.038346699848,1.038346699847,1.038346699848,1.038346699847
      ,1.038346699848,1.038346699847,1.038346699848,1.038346699847
      ,1.038346699848,1.038346699847,1.038346699848,1.038346699847
      ,1.038346699848,1.038346699848,1.038346699847,1.038346699848
      ,1.038346699847,1.038346699848,1.038346699847,1.038346699848
      ,1.038346699847,1.038346699849,1.038346699846,1.038346699848
      ,1.038346699847,1.038346699848,1.038346699847,1.038346699848
      ,1.038346699848,1.038346699847,1.038346699848,1.038346699847
      ,1.038346699848,1.038346699847,1.038346699848,1.038346699847
      ,1.038346699848,1.038346699848,1.038346699847,1.038346699848
      ,1.038346699847,1.038346699848,1.038346699847,1.038346699848
      ,1.038346699847,1.038346699848,1.038346699847,1.038346699848
      ,1.038346699847,1.038346699848,1.038346699847,1.038346699849
      ,1.038346699846,1.038346699848,1.038346699847,1.038346699848
      ,1.038346699847,1.038346699848)
    ,(0.853534330196,0.853534330196,0.853534330196,0.853534330197
      ,0.853534330195,0.853534330198,0.853534330195,0.853534330197
      ,0.853534330195,0.853534330196,0.853534330196,0.853534330196
      ,0.853534330196,0.853534330196,0.853534330196,0.853534330196
      ,0.853534330196,0.853534330196,0.853534330196,0.853534330196
      ,0.853534330196,0.853534330196,0.853534330196,0.853534330196
      ,0.853534330196,0.853534330196,0.853534330196,0.853534330196
      ,0.853534330196,0.853534330196,0.853534330196,0.853534330196
      ,0.853534330196,0.853534330196,0.853534330196,0.853534330197
      ,0.853534330196,0.853534330196,0.853534330196,0.853534330196
      ,0.853534330196,0.853534330196,0.853534330196,0.853534330197
      ,0.853534330195,0.853534330197,0.853534330195,0.853534330197
      ,0.853534330196,0.853534330196,0.853534330196,0.853534330196
      ,0.853534330196,0.853534330196,0.853534330197,0.853534330195
      ,0.853534330197,0.853534330195,0.853534330197,0.853534330196
      ,0.853534330196,0.853534330196,0.853534330196,0.853534330197
      ,0.853534330196,0.853534330197,0.853534330196,0.853534330196
      ,0.853534330196,0.853534330196,0.853534330196,0.853534330196
      ,0.853534330196,0.853534330197,0.853534330195,0.853534330197
      ,0.853534330195,0.853534330197,0.853534330196,0.853534330196
      ,0.853534330196,0.853534330196)
    ,(1.038346699848,1.038346699848,1.038346699847,1.038346699848
      ,1.038346699846,1.03834669985,1.038346699845,1.038346699849
      ,1.038346699847,1.038346699848,1.038346699847,1.038346699848
      ,1.038346699848,1.038346699847,1.038346699848,1.038346699847
      ,1.038346699848,1.038346699847,1.038346699848,1.038346699847
      ,1.038346699848,1.038346699847,1.038346699848,1.038346699847
      ,1.038346699848,1.038346699847,1.038346699848,1.038346699847
      ,1.038346699848,1.038346699847,1.038346699848,1.038346699848
      ,1.038346699847,1.038346699848,1.038346699847,1.038346699848
      ,1.038346699847,1.038346699848,1.038346699847,1.038346699848
      ,1.038346699847,1.038346699848,1.038346699847,1.038346699848
      ,1.038346699846,1.038346699849,1.038346699846,1.038346699848
      ,1.038346699847,1.038346699848,1.038346699847,1.038346699848
      ,1.038346699848,1.038346699847,1.038346699848,1.038346699847
      ,1.038346699848,1.038346699847,1.038346699848,1.038346699847
      ,1.038346699847,1.038346699848,1.038346699847,1.038346699848
      ,1.038346699847,1.038346699848,1.038346699847,1.038346699848
      ,1.038346699847,1.038346699848,1.038346699847,1.038346699848
      ,1.038346699847,1.038346699848,1.038346699847,1.038346699849
      ,1.038346699846,1.038346699848,1.038346699847,1.038346699848
      ,1.038346699847,1.038346699848)
    ,(1.03672962321,1.03672962321,1.036729623209,1.03672962321
      ,1.036729623208,1.036729623211,1.036729623208,1.036729623211
      ,1.036729623209,1.03672962321,1.03672962321,1.03672962321
      ,1.03672962321,1.036729623209,1.03672962321,1.036729623209
      ,1.036729623211,1.036729623209,1.03672962321,1.036729623209
      ,1.03672962321,1.03672962321,1.03672962321,1.036729623209
      ,1.03672962321,1.036729623209,1.03672962321,1.036729623209
      ,1.03672962321,1.03672962321,1.03672962321,1.03672962321
      ,1.03672962321,1.03672962321,1.03672962321,1.03672962321
      ,1.03672962321,1.03672962321,1.03672962321,1.03672962321
      ,1.03672962321,1.03672962321,1.036729623209,1.036729623211
      ,1.036729623208,1.036729623211,1.036729623208,1.036729623211
      ,1.036729623209,1.03672962321,1.03672962321,1.03672962321
      ,1.03672962321,1.03672962321,1.03672962321,1.03672962321
      ,1.03672962321,1.03672962321,1.03672962321,1.03672962321
      ,1.03672962321,1.03672962321,1.036729623209,1.036729623211
      ,1.036729623208,1.036729623211,1.036729623208,1.036729623211
      ,1.036729623209,1.03672962321,1.03672962321,1.03672962321
      ,1.036729623209,1.03672962321,1.036729623209,1.036729623211
      ,1.036729623208,1.03672962321,1.036729623209,1.03672962321
      ,1.03672962321,1.03672962321)
    ,(1.669078461068,1.669078461068,1.669078461068,1.669078461069
      ,1.669078461066,1.669078461071,1.669078461066,1.66907846107
      ,1.669078461067,1.669078461069,1.669078461068,1.669078461068
      ,1.669078461068,1.669078461068,1.669078461069,1.669078461067
      ,1.669078461069,1.669078461067,1.669078461069,1.669078461068
      ,1.669078461068,1.669078461068,1.669078461068,1.669078461068
      ,1.669078461069,1.669078461068,1.669078461069,1.669078461068
      ,1.669078461068,1.669078461068,1.669078461068,1.669078461068
      ,1.669078461068,1.669078461068,1.669078461068,1.669078461069
      ,1.669078461068,1.669078461069,1.669078461068,1.669078461068
      ,1.669078461068,1.669078461068,1.669078461068,1.669078461069
      ,1.669078461066,1.66907846107,1.669078461066,1.66907846107
      ,1.669078461067,1.669078461069,1.669078461068,1.669078461068
      ,1.669078461068,1.669078461068,1.669078461069,1.669078461067
      ,1.669078461069,1.669078461068,1.669078461069,1.669078461068
      ,1.669078461068,1.669078461068,1.669078461068,1.669078461069
      ,1.669078461067,1.669078461069,1.669078461067,1.669078461069
      ,1.669078461068,1.669078461068,1.669078461068,1.669078461068
      ,1.669078461068,1.669078461069,1.669078461067,1.66907846107
      ,1.669078461067,1.669078461069,1.669078461068,1.669078461068
,1.669078461068,1.669078461068))) REPRESENTATION_ITEM('') SURFACE() );
#66 = CARTESIAN_POINT('',(2.05,-9.890910963162E-03,0.249804263135));
#67 = CARTESIAN_POINT('',(2.056472639178,1.331830906137,0.302929261049)
  );
#68 = CARTESIAN_POINT('',(1.097722684717,2.678412781957,0.356054272961)
  );
#69 = CARTESIAN_POINT('',(-0.837249974918,3.255445462923,0.409179240816)
  );
#70 = CARTESIAN_POINT('',(-3.021578314928,2.293220091965,0.462304290983)
  );
#71 = CARTESIAN_POINT('',(-4.177745630855,-0.284231839898,0.515429248391
    ));
#72 = CARTESIAN_POINT('',(-2.798892579156,-3.114513596661,0.568554253846
    ));
#73 = CARTESIAN_POINT('',(-5.671346552751E-02,-3.792853403007,
    0.621679286168));
#74 = CARTESIAN_POINT('',(2.047416444537,-2.665892286346,0.674804244546)
  );
#75 = CARTESIAN_POINT('',(2.78571446746,-0.786554951849,0.727929270453)
  );
#76 = CARTESIAN_POINT('',(2.316326916213,0.798429317116,0.781054262486)
  );
#77 = CARTESIAN_POINT('',(0.195288821285,2.442276846074,0.887304262423)
  );
#78 = CARTESIAN_POINT('',(-1.456676653997,2.501396151959,0.940429270735)
  );
#79 = CARTESIAN_POINT('',(-3.092403814114,1.317554833441,0.993554243784)
  );
#80 = CARTESIAN_POINT('',(-3.658754384643,-1.001155603218,1.046679287694
    ));
#81 = CARTESIAN_POINT('',(-2.317753906715,-3.487457560477,1.099804251427
    ));
#82 = CARTESIAN_POINT('',(0.767051755725,-4.116506732085,1.152929251526)
  );
#83 = CARTESIAN_POINT('',(2.974548047669,-2.353936546102,1.206054287609)
  );
#84 = CARTESIAN_POINT('',(3.36138266153,1.432214882948E-03,
    1.259179243847));
#85 = CARTESIAN_POINT('',(2.319851535404,1.731231582976,1.312304270694)
  );
#86 = CARTESIAN_POINT('',(0.776653914942,2.323718664549,1.365429262445)
  );
#87 = CARTESIAN_POINT('',(-1.818704190377,1.64169698339,1.471679262443)
  );
#88 = CARTESIAN_POINT('',(-2.871259556401,0.367094203811,1.5248042707));
#89 = CARTESIAN_POINT('',(-2.927822689934,-1.651292328256,1.57792924383)
  );
#90 = CARTESIAN_POINT('',(-1.433038409105,-3.512149932467,1.631054287642
    ));
#91 = CARTESIAN_POINT('',(1.355826927595,-3.961827447898,1.684179251476)
  );
#92 = CARTESIAN_POINT('',(3.732795886723,-1.897427451292,1.737304251489)
  );
#93 = CARTESIAN_POINT('',(3.678293543354,0.926881855814,1.790429287632)
  );
#94 = CARTESIAN_POINT('',(2.045143859281,2.66763603876,1.843554243836));
#95 = CARTESIAN_POINT('',(3.87577768631E-02,2.894368977315,
    1.896679270698));
#96 = CARTESIAN_POINT('',(-1.370733017355,2.030751272459,1.949804262444)
  );
#97 = CARTESIAN_POINT('',(-2.409602747375,-0.443473242801,2.056054262444
    ));
#98 = CARTESIAN_POINT('',(-2.039147483439,-2.054450567865,2.109179270701
    ));
#99 = CARTESIAN_POINT('',(-0.472287240146,-3.328040988244,2.162304243829
    ));
#100 = CARTESIAN_POINT('',(1.913997370731,-3.274967220467,2.215429287644
    ));
#101 = CARTESIAN_POINT('',(3.968504177415,-1.336157916759,2.268554251473
    ));
#102 = CARTESIAN_POINT('',(3.777712564617,1.806345438639,2.321679251491)
  );
#103 = CARTESIAN_POINT('',(1.503858417416,3.482436392275,2.374804287631)
  );
#104 = CARTESIAN_POINT('',(-0.871373263734,3.24647563916,2.427929243835)
  );
#105 = CARTESIAN_POINT('',(-2.272663056557,1.792728806447,2.481054270699
    ));
#106 = CARTESIAN_POINT('',(-2.44555269574,0.148767428617,2.534179262444)
  );
#107 = CARTESIAN_POINT('',(-1.115042233331,-2.18163579342,2.640429262445
    ));
#108 = CARTESIAN_POINT('',(0.388550884509,-2.868434730855,2.693554270694
    ));
#109 = CARTESIAN_POINT('',(2.352802179419,-2.400673647342,2.746679243848
    ));
#110 = CARTESIAN_POINT('',(3.763373958244,-0.475197517723,2.79980428761)
  );
#111 = CARTESIAN_POINT('',(3.475917620484,2.335024642333,2.852929251519)
  );
#112 = CARTESIAN_POINT('',(0.86665551174,4.09669431231,2.906054251446));
#113 = CARTESIAN_POINT('',(-1.847311544925,3.313064053365,2.959179287663
    ));
#114 = CARTESIAN_POINT('',(-3.10606072575,1.285022259925,3.012304243819)
  );
#115 = CARTESIAN_POINT('',(-2.805776996791,-0.711680677246,
    3.065429270704));
#116 = CARTESIAN_POINT('',(-1.606783290196,-1.849623527586,
    3.118554262443));
#117 = CARTESIAN_POINT('',(1.052013340641,-2.21271820356,3.224804262445)
  );
#118 = CARTESIAN_POINT('',(2.51221706683,-1.437934283668,3.277929270694)
  );
#119 = CARTESIAN_POINT('',(3.336877673981,0.405165947929,3.331054243848)
  );
#120 = CARTESIAN_POINT('',(2.667996446712,2.69640338062,3.384179287612)
  );
#121 = CARTESIAN_POINT('',(0.263504978078,4.179103792779,3.437304251514)
  );
#122 = CARTESIAN_POINT('',(-2.722539668996,3.181473528957,3.490429251453
    ));
#123 = CARTESIAN_POINT('',(-3.753002449296,0.551294822727,3.543554287657
    ));
#124 = CARTESIAN_POINT('',(-2.910326668214,-1.681931664595,
    3.596679243823));
#125 = CARTESIAN_POINT('',(-1.143434571563,-2.659216298644,
    3.649804270703));
#126 = CARTESIAN_POINT('',(0.489257312064,-2.400726352152,3.702929262443
    ));
#127 = CARTESIAN_POINT('',(2.395892522466,-0.512399197824,3.809179262445
    ));
#128 = CARTESIAN_POINT('',(2.670130818857,1.117716872515,3.862304270695)
  );
#129 = CARTESIAN_POINT('',(1.709922662487,2.893972449208,3.915429243846)
  );
#130 = CARTESIAN_POINT('',(-0.515027298088,3.758130270199,3.96855428761)
  );
#131 = CARTESIAN_POINT('',(-3.15509428836,2.753129747942,4.021679251526)
  );
#132 = CARTESIAN_POINT('',(-4.181409788136,-0.223177564084,
    4.074804251426));
#133 = CARTESIAN_POINT('',(-2.72205472596,-2.641850010113,4.127929287696
    ));
#134 = CARTESIAN_POINT('',(-0.437328514685,-3.332812502752,
    4.181054243782));
#135 = CARTESIAN_POINT('',(1.413619267455,-2.525975954094,4.234179270736
    ));
#136 = CARTESIAN_POINT('',(2.202465252202,-1.073315679952,4.287304262422
    ));
#137 = CARTESIAN_POINT('',(1.865040568592,1.588860463695,4.393554262487)
  );
#138 = CARTESIAN_POINT('',(0.738728252055,2.798780148679,4.446679270449)
  );
#139 = CARTESIAN_POINT('',(-1.255007784693,3.11831159017,4.499804244558)
  );
#140 = CARTESIAN_POINT('',(-3.295053876886,1.879206269487,4.552929286147
    ));
#141 = CARTESIAN_POINT('',(-4.104904518592,-0.827105623436,
    4.606054253873));
#142 = CARTESIAN_POINT('',(-2.368422162845,-3.45319701373,4.659179248365
    ));
#143 = CARTESIAN_POINT('',(0.43883842204,-3.767807923467,4.712304291001)
  );
#144 = CARTESIAN_POINT('',(2.377869365426,-2.375843444808,4.765429240807
    ));
#145 = CARTESIAN_POINT('',(2.864548221951,-0.416217384985,4.818554272964
    ));
#146 = CARTESIAN_POINT('',(2.19229455068,1.093940114107,4.871679261048)
  );
#147 = CARTESIAN_POINT('',(1.033565701943,1.770406486799,4.924804263135)
  );
#148 = CARTESIAN_POINT('',(2.465385768893,-9.890910963238E-03,
    0.249804263135));
#149 = CARTESIAN_POINT('',(2.471858407632,1.603707150832,0.302931103758)
  );
#150 = CARTESIAN_POINT('',(1.317531798578,3.222153811729,0.356046970354)
  );
#151 = CARTESIAN_POINT('',(-1.010103738402,3.914366687586,0.409198921629
    ));
#152 = CARTESIAN_POINT('',(-3.63598943479,2.754709755555,0.462268749376)
  );
#153 = CARTESIAN_POINT('',(-5.024094652786,-0.34562264913,0.51547699974)
  );
#154 = CARTESIAN_POINT('',(-3.362821812522,-3.748595041518,
    0.568506898993));
#155 = CARTESIAN_POINT('',(-6.461893585728E-02,-4.561235624739,
    0.621714734681));
#156 = CARTESIAN_POINT('',(2.464947104157,-3.204152237658,0.674785256465
    ));
#157 = CARTESIAN_POINT('',(3.350904519763,-0.943177232285,0.727936453933
    ));
#158 = CARTESIAN_POINT('',(2.784891691001,0.962469217206,0.781052933775)
  );
#159 = CARTESIAN_POINT('',(0.232465721681,2.9373323124,0.887305846949));
#160 = CARTESIAN_POINT('',(-1.754244095059,3.006790999704,0.940422386636
    ));
#161 = CARTESIAN_POINT('',(-3.720387887283,1.581546566799,0.993573366776
    ));
#162 = CARTESIAN_POINT('',(-4.398908525992,-1.207663629967,
    1.046644364191));
#163 = CARTESIAN_POINT('',(-2.784273958037,-4.196283722771,
    1.099851432239));
#164 = CARTESIAN_POINT('',(0.926804033403,-4.949906213338,1.152882332498
    ));
#165 = CARTESIAN_POINT('',(3.579334097441,-2.827969828156,1.206089465526
    ));
#166 = CARTESIAN_POINT('',(4.042589556274,5.009657068557E-03,
    1.259160387099));
#167 = CARTESIAN_POINT('',(2.788174247471,2.084281397053,1.312311408814)
  );
#168 = CARTESIAN_POINT('',(0.93175647435,2.795317257518,1.365427941472)
  );
#169 = CARTESIAN_POINT('',(-2.188826235306,1.972562074743,1.471680843082
    ));
#170 = CARTESIAN_POINT('',(-3.453363827508,0.438682970009,1.524797392904
    ));
#171 = CARTESIAN_POINT('',(-3.519553895398,-1.988797605241,
    1.577948358421));
#172 = CARTESIAN_POINT('',(-1.71978186882,-4.225067814601,1.631019373448
    ));
#173 = CARTESIAN_POINT('',(1.63417711781,-4.763448716126,1.684226423695)
  );
#174 = CARTESIAN_POINT('',(4.49122717399,-2.278028907535,1.737257339025)
  );
#175 = CARTESIAN_POINT('',(4.422539850878,1.118117710517,1.790464461474)
  );
#176 = CARTESIAN_POINT('',(2.45699816632,3.210251612884,1.843535389066)
  );
#177 = CARTESIAN_POINT('',(4.376133099269E-02,3.480837474619,
    1.896686408135));
#178 = CARTESIAN_POINT('',(-1.650456880653,2.440893439424,1.949802941588
    ));
#179 = CARTESIAN_POINT('',(-2.897411697766,-0.535692897639,
    2.056055843025));
#180 = CARTESIAN_POINT('',(-2.450305298138,-2.472684456135,
    2.109172392996));
#181 = CARTESIAN_POINT('',(-0.564749435517,-4.002953111367,2.1623233583)
  );
#182 = CARTESIAN_POINT('',(2.305034795589,-3.936453010735,2.21539437358)
  );
#183 = CARTESIAN_POINT('',(4.77392194776,-1.603323972345,2.268601423573)
  );
#184 = CARTESIAN_POINT('',(4.5413677155,2.17635394738,2.321632339118));
#185 = CARTESIAN_POINT('',(1.805209258998,4.189303698543,2.374839461416)
  );
#186 = CARTESIAN_POINT('',(-1.051138125459,3.903545061663,2.427910389095
    ));
#187 = CARTESIAN_POINT('',(-2.734893827109,2.15371779332,2.481061408124)
  );
#188 = CARTESIAN_POINT('',(-2.941225452645,0.176526298968,2.534177941591
    ));
#189 = CARTESIAN_POINT('',(-1.338838735849,-2.624780422497,2.64043084302
    ));
#190 = CARTESIAN_POINT('',(0.47006111797,-3.449232816023,2.693547393013)
  );
#191 = CARTESIAN_POINT('',(2.831958548514,-2.884889307405,2.746698358267
    ));
#192 = CARTESIAN_POINT('',(4.526214421066,-0.567653705506,2.799769373628
    ));
#193 = CARTESIAN_POINT('',(4.178181975922,2.811365131008,2.852976423521)
  );
#194 = CARTESIAN_POINT('',(1.037991826303,4.927789585603,2.906007339166)
  );
#195 = CARTESIAN_POINT('',(-2.224656314525,3.982455301627,2.959214461379
    ));
#196 = CARTESIAN_POINT('',(-3.736782861017,1.542403727005,3.012285389119
    ));
#197 = CARTESIAN_POINT('',(-3.373557079742,-0.858636831542,
    3.065436408113));
#198 = CARTESIAN_POINT('',(-1.930552338526,-2.225968635385,
    3.118552941593));
#199 = CARTESIAN_POINT('',(1.267344933672,-2.660037264032,3.224805843021
    ));
#200 = CARTESIAN_POINT('',(3.022615453931,-1.726835339976,3.277922393003
    ));
#201 = CARTESIAN_POINT('',(4.012723701286,0.490534436704,3.331073358299)
  );
#202 = CARTESIAN_POINT('',(3.205734722365,3.245321648914,3.384144373561)
  );
#203 = CARTESIAN_POINT('',(0.313110112841,5.026225281509,3.437351423626)
  );
#204 = CARTESIAN_POINT('',(-3.277588940481,3.823342512646,3.490382339029
    ));
#205 = CARTESIAN_POINT('',(-4.513779173226,0.659426662178,3.543589461525
    ));
#206 = CARTESIAN_POINT('',(-3.498480423231,-2.025633267702,
    3.596660388986));
#207 = CARTESIAN_POINT('',(-1.372489030331,-3.199127762496,
    3.649811408212));
#208 = CARTESIAN_POINT('',(0.590733851906,-2.886693993751,3.702927941532
    ));
#209 = CARTESIAN_POINT('',(2.881860161557,-0.613875749701,3.809180843141
    ));
#210 = CARTESIAN_POINT('',(3.210042288359,1.346771317927,3.862297392306)
  );
#211 = CARTESIAN_POINT('',(2.053624280218,3.482126195693,3.915448360305)
  );
#212 = CARTESIAN_POINT('',(-0.623159118837,4.518906996848,3.968519369441
    ));
#213 = CARTESIAN_POINT('',(-3.796963258084,3.308179035255,4.021726430249
    ));
#214 = CARTESIAN_POINT('',(-5.0285312784,-0.272782677798,4.074757330372)
  );
#215 = CARTESIAN_POINT('',(-3.270973007227,-3.179588272262,
    4.127964470896));
#216 = CARTESIAN_POINT('',(-0.522697020509,-4.008658527859,
    4.181035380535));
#217 = CARTESIAN_POINT('',(1.702520311371,-3.036374348416,4.234186414549
    ));
#218 = CARTESIAN_POINT('',(2.649784307191,-1.288647284012,4.287302937625
    ));
#219 = CARTESIAN_POINT('',(2.241385684713,1.912629502618,4.393555850918)
  );
#220 = CARTESIAN_POINT('',(0.885684418611,3.366560228521,4.446672346717)
  );
#221 = CARTESIAN_POINT('',(-1.512389230956,3.749033730278,4.499823492313
    ));
#222 = CARTESIAN_POINT('',(-3.964445126524,2.256551058809,4.552894097443
    ));
#223 = CARTESIAN_POINT('',(-4.93599977886,-0.998441922489,4.606101868344
    ));
#224 = CARTESIAN_POINT('',(-2.844762691519,-4.155461350757,
    4.659131756851));
#225 = CARTESIAN_POINT('',(0.531294615453,-4.530648395738,4.712340092241
    ));
#226 = CARTESIAN_POINT('',(2.862084991486,-2.854999819434,4.765409819782
    ));
#227 = CARTESIAN_POINT('',(3.445346321721,-0.497727637666,4.818561835263
    ));
#228 = CARTESIAN_POINT('',(2.63543917504,1.31773660864,4.871677678079));
#229 = CARTESIAN_POINT('',(1.241258595295,2.130141109889,4.924804522856)
  );
#230 = CARTESIAN_POINT('',(2.525028095811,1.043044225899E-02,
    -0.26343063368));
#231 = CARTESIAN_POINT('',(2.518202385376,1.663065398916,-0.21030352419)
  );
#232 = CARTESIAN_POINT('',(1.322482836889,3.310978911088,-0.157188995179
    ));
#233 = CARTESIAN_POINT('',(-1.067133994682,4.000523929028,
    -0.104033103502));
#234 = CARTESIAN_POINT('',(-3.746829076528,2.790902749547,
    -5.097130782213E-02));
#235 = CARTESIAN_POINT('',(-5.142556856333,-0.395819455092,
    2.248989496434E-03));
#236 = CARTESIAN_POINT('',(-3.412824632251,-3.867257044735,
    5.526522191494E-02));
#237 = CARTESIAN_POINT('',(-2.812816904671E-02,-4.671922176368,
    0.108484880344));
#238 = CARTESIAN_POINT('',(2.551212952308,-3.261027668334,0.161547671477
    ));
#239 = CARTESIAN_POINT('',(3.439724361695,-0.938008994832,0.214702573508
    ));
#240 = CARTESIAN_POINT('',(2.844143596664,1.0089441469,0.267817847513));
#241 = CARTESIAN_POINT('',(0.213585883502,3.010234222447,0.374071179108)
  );
#242 = CARTESIAN_POINT('',(-1.821699459138,3.064792624458,0.427186485768
    ));
#243 = CARTESIAN_POINT('',(-3.82345927479,1.588750084682,0.480341255454)
  );
#244 = CARTESIAN_POINT('',(-4.495096778781,-1.27356512931,0.533404402497
    ));
#245 = CARTESIAN_POINT('',(-2.816565816425,-4.320824542583,
    0.586623333841));
#246 = CARTESIAN_POINT('',(0.990505479479,-5.061812543628,0.639640722759
    ));
#247 = CARTESIAN_POINT('',(3.689361604732,-2.866401723269,0.69285956938)
  );
#248 = CARTESIAN_POINT('',(4.140227291865,3.882551529458E-02,
    0.745922822403));
#249 = CARTESIAN_POINT('',(2.838144067802,2.157893094779,0.799077521381)
  );
#250 = CARTESIAN_POINT('',(0.930955714392,2.870617106944,0.852192856405)
  );
#251 = CARTESIAN_POINT('',(-2.258156529434,2.001963559212,0.958446174641
    ));
#252 = CARTESIAN_POINT('',(-3.540443829203,0.420476189705,1.01156149301)
  );
#253 = CARTESIAN_POINT('',(-3.588014722022,-2.06618441915,1.064716245801
    ));
#254 = CARTESIAN_POINT('',(-1.726054385203,-4.341497368094,
    1.117779413193));
#255 = CARTESIAN_POINT('',(1.713323948704,-4.864883225652,1.170998323968
    ));
#256 = CARTESIAN_POINT('',(4.618787423345,-2.295615403658,1.2240157303)
  );
#257 = CARTESIAN_POINT('',(4.520010422658,1.182012541593,1.277234564698)
  );
#258 = CARTESIAN_POINT('',(2.489608331214,3.308298628656,1.330297824675)
  );
#259 = CARTESIAN_POINT('',(1.578094342122E-02,3.565293160127,
    1.383452520596));
#260 = CARTESIAN_POINT('',(-1.710683739404,2.48609779789,1.436567856539)
  );
#261 = CARTESIAN_POINT('',(-2.962943072652,-0.572797828425,
    1.542821174575));
#262 = CARTESIAN_POINT('',(-2.48887183436,-2.552853251858,1.595936493116
    ));
#263 = CARTESIAN_POINT('',(-0.545030658961,-4.104376844387,
    1.649091245662));
#264 = CARTESIAN_POINT('',(2.393586104846,-4.012307153798,1.702154413346
    ));
#265 = CARTESIAN_POINT('',(4.902576892476,-1.602281986762,1.755373323828
    ));
#266 = CARTESIAN_POINT('',(4.632973780714,2.266848316865,1.808390730408)
  );
#267 = CARTESIAN_POINT('',(1.813854405844,4.305529010868,1.86160956463)
  );
#268 = CARTESIAN_POINT('',(-1.10907224232,3.989103686364,1.914672824709)
  );
#269 = CARTESIAN_POINT('',(-2.818930408043,2.182932823169,1.967827520583
    ));
#270 = CARTESIAN_POINT('',(-3.013752270028,0.15626378926,2.020942856543)
  );
#271 = CARTESIAN_POINT('',(-1.349294388483,-2.699358008343,
    2.127196174569));
#272 = CARTESIAN_POINT('',(0.510185480113,-3.528633377011,2.180311493137
    ));
#273 = CARTESIAN_POINT('',(2.92442743655,-2.930988206792,2.23346624562)
  );
#274 = CARTESIAN_POINT('',(4.64030018031,-0.543578305075,2.286529413405)
  );
#275 = CARTESIAN_POINT('',(4.255675481261,2.914068281827,2.339748323762)
  );
#276 = CARTESIAN_POINT('',(1.021964055112,5.055555045043,2.392765730468)
  );
#277 = CARTESIAN_POINT('',(-2.311601222325,4.060067445047,2.445984564584
    ));
#278 = CARTESIAN_POINT('',(-3.83992913748,1.548526292461,2.499047824738)
  );
#279 = CARTESIAN_POINT('',(-3.447893150359,-0.907522550389,2.55220252057
    ));
#280 = CARTESIAN_POINT('',(-1.958628537759,-2.295843062588,
    2.605317856545));
#281 = CARTESIAN_POINT('',(1.320146312476,-2.713732248703,2.71157117457)
  );
#282 = CARTESIAN_POINT('',(3.110034318239,-1.743338542225,2.764686493125
    ));
#283 = CARTESIAN_POINT('',(4.105587909543,0.535831706062,2.817841245658)
  );
#284 = CARTESIAN_POINT('',(3.25608543279,3.350488142199,2.870904413328)
  );
#285 = CARTESIAN_POINT('',(0.278805282211,5.15022672978,2.924123323883)
  );
#286 = CARTESIAN_POINT('',(-3.388709183501,3.888405510364,2.977140730312
    ));
#287 = CARTESIAN_POINT('',(-4.628281732663,0.637695908637,3.030359564752
    ));
#288 = CARTESIAN_POINT('',(-3.566129255737,-2.103737529109,
    3.083422824587));
#289 = CARTESIAN_POINT('',(-1.378958314501,-3.287862272389,
    3.136577520683));
#290 = CARTESIAN_POINT('',(0.629077254923,-2.951505196413,3.189692856477
    ));
#291 = CARTESIAN_POINT('',(2.956602699892,-0.60467303493,3.295946174706)
  );
#292 = CARTESIAN_POINT('',(3.276352391318,1.406078852224,3.349061492335)
  );
#293 = CARTESIAN_POINT('',(2.074219689619,3.583375558032,3.402216247931)
  );
#294 = CARTESIAN_POINT('',(-0.675941739665,4.622874201536,3.455279408661
    ));
#295 = CARTESIAN_POINT('',(-3.91622367493,3.356450489179,3.508498331383)
  );
#296 = CARTESIAN_POINT('',(-5.147794948205,-0.321332459571,
    3.561515720509));
#297 = CARTESIAN_POINT('',(-3.323437577287,-3.283658094773,3.61473457536
    ));
#298 = CARTESIAN_POINT('',(-0.501914748951,-4.109874825983,
    3.667797815021));
#299 = CARTESIAN_POINT('',(1.768979884393,-3.095524916833,3.720952527856
    ));
#300 = CARTESIAN_POINT('',(2.724544473736,-1.297681981714,3.774067852054
    ));
#301 = CARTESIAN_POINT('',(2.279585059407,1.977529011255,3.880321183509)
  );
#302 = CARTESIAN_POINT('',(0.878999593348,3.455271660332,3.933436440732)
  );
#303 = CARTESIAN_POINT('',(-1.580177979234,3.82701001607,3.986591397354)
  );
#304 = CARTESIAN_POINT('',(-4.079060045582,2.277966720879,4.039654100779
    ));
#305 = CARTESIAN_POINT('',(-5.046896972042,-1.063671300614,
    4.092873827278));
#306 = CARTESIAN_POINT('',(-2.878849032666,-4.279635434862,
    4.145890071318));
#307 = CARTESIAN_POINT('',(0.581920730005,-4.635624361177,4.199110278688
    ));
#308 = CARTESIAN_POINT('',(2.955036382181,-2.900129318116,4.252172180278
    ));
#309 = CARTESIAN_POINT('',(3.532731904627,-0.481009844093,4.305328004082
    ));
#310 = CARTESIAN_POINT('',(2.68811782977,1.371547580999,4.358442558261)
  );
#311 = CARTESIAN_POINT('',(1.253481112605,2.191953834359,4.411569663332)
  );
#312 = CARTESIAN_POINT('',(2.05,2.719127069301E-02,-0.686741126724));
#313 = CARTESIAN_POINT('',(2.032205958111,1.368913257891,-0.63361612099)
  );
#314 = CARTESIAN_POINT('',(1.049165397298,2.698034996137,-0.580491153737
    ));
#315 = CARTESIAN_POINT('',(-0.896028978775,3.240021192791,
    -0.527366065369));
#316 = CARTESIAN_POINT('',(-3.062856249299,2.238350388492,
    -0.474241203279));
#317 = CARTESIAN_POINT('',(-4.172163397137,-0.359745496218,
    -0.421116086194));
#318 = CARTESIAN_POINT('',(-2.74238284101,-3.164911894994,
    -0.367991101184));
#319 = CARTESIAN_POINT('',(1.194578559925E-02,-3.793510220776,
    -0.314866190048));
#320 = CARTESIAN_POINT('',(2.095436773095,-2.628649186755,
    -0.261741075621));
#321 = CARTESIAN_POINT('',(2.799707258661,-0.736087617888,
    -0.208616146842));
#322 = CARTESIAN_POINT('',(2.301681120636,0.840256385601,-0.15549112494)
  );
#323 = CARTESIAN_POINT('',(0.15109643119,2.445598638095,
    -4.924112476607E-02));
#324 = CARTESIAN_POINT('',(-1.501803218387,2.47481906011,
    3.883852383328E-03));
#325 = CARTESIAN_POINT('',(-3.115950092601,1.261531617772,
    5.700892647397E-02));
#326 = CARTESIAN_POINT('',(-3.640350867331,-1.067305045911,
    0.110133805759));
#327 = CARTESIAN_POINT('',(-2.254447448873,-3.528999696634,
    0.163258905464));
#328 = CARTESIAN_POINT('',(0.841436975794,-4.102354304594,0.216383905188
    ));
#329 = CARTESIAN_POINT('',(3.0168658596,-2.299865828302,0.269508805996)
  );
#330 = CARTESIAN_POINT('',(3.361068832562,6.22016999466E-02,
    0.322633926299));
#331 = CARTESIAN_POINT('',(2.28833131522,1.773055295973,0.375758852495)
  );
#332 = CARTESIAN_POINT('',(0.734554485881,2.337562093505,0.428883875173)
  );
#333 = CARTESIAN_POINT('',(-1.848242173183,1.608658975009,0.535133875177
    ));
#334 = CARTESIAN_POINT('',(-2.877645834772,0.315113796055,0.588258852475
    ));
#335 = CARTESIAN_POINT('',(-2.897710562599,-1.704077634773,
    0.641383926352));
#336 = CARTESIAN_POINT('',(-1.3693551632,-3.537818653172,0.694508805895)
  );
#337 = CARTESIAN_POINT('',(1.427323037739,-3.936892323626,0.747633905339
    ));
#338 = CARTESIAN_POINT('',(3.766850873192,-1.829798224776,0.800758905282
    ));
#339 = CARTESIAN_POINT('',(3.661157804712,0.993370993422,0.853883805937)
  );
#340 = CARTESIAN_POINT('',(1.996741141126,2.704381183598,0.907008926328)
  );
#341 = CARTESIAN_POINT('',(-1.361150078837E-02,2.894822967417,
    0.960133852485));
#342 = CARTESIAN_POINT('',(-1.40734425639,2.005778895591,1.013258875175)
  );
#343 = CARTESIAN_POINT('',(-2.401373517776,-0.487019565423,
    1.119508875176));
#344 = CARTESIAN_POINT('',(-2.001796373125,-2.091160810283,
    1.172633852477));
#345 = CARTESIAN_POINT('',(-0.412078739424,-3.33628509028,1.225758926348
    ));
#346 = CARTESIAN_POINT('',(1.973129640039,-3.240070031476,1.278883805899
    ));
#347 = CARTESIAN_POINT('',(3.992245887261,-1.264256697281,1.332008905335
    ));
#348 = CARTESIAN_POINT('',(3.744790054242,1.874533140643,1.385133905286)
  );
#349 = CARTESIAN_POINT('',(1.440677461163,3.50931771911,1.438258805936)
  );
#350 = CARTESIAN_POINT('',(-0.929990854959,3.23044420796,1.491383926328)
  );
#351 = CARTESIAN_POINT('',(-2.304903627432,1.751457836743,1.544508852485
    ));
#352 = CARTESIAN_POINT('',(-2.448028287331,0.104519560009,1.597633875174
    ));
#353 = CARTESIAN_POINT('',(-1.075484975242,-2.201616428214,
    1.703883875177));
#354 = CARTESIAN_POINT('',(0.440412993194,-2.86114988237,1.757008852471)
  );
#355 = CARTESIAN_POINT('',(2.39599527836,-2.357925723494,1.810133926365)
  );
#356 = CARTESIAN_POINT('',(3.771685601395,-0.407040671756,1.863258805866
    ));
#357 = CARTESIAN_POINT('',(3.433327585197,2.397630896349,1.916383905379)
  );
#358 = CARTESIAN_POINT('',(0.79251661605,4.112085171517,1.969508905242)
  );
#359 = CARTESIAN_POINT('',(-1.907100064564,3.279303545751,2.022633805968
    ));
#360 = CARTESIAN_POINT('',(-3.129026264847,1.228758481064,2.075758926311
    ));
#361 = CARTESIAN_POINT('',(-2.792661351122,-0.76238301629,2.128883852491
    ));
#362 = CARTESIAN_POINT('',(-1.57318614051,-1.87852394218,2.182008875173)
  );
#363 = CARTESIAN_POINT('',(1.09194597696,-2.193498760504,2.288258875178)
  );
#364 = CARTESIAN_POINT('',(2.53800925933,-1.392354571756,2.341383852471)
  );
#365 = CARTESIAN_POINT('',(3.329257758483,0.465456624516,2.394508926365)
  );
#366 = CARTESIAN_POINT('',(2.61898379297,2.744488709308,2.447633805869)
  );
#367 = CARTESIAN_POINT('',(0.187908926738,4.18342711887,2.500758905372)
  );
#368 = CARTESIAN_POINT('',(-2.779882958837,3.132024549611,2.553883905251
    ));
#369 = CARTESIAN_POINT('',(-3.762615382262,0.483309306372,2.607008805959
    ));
#370 = CARTESIAN_POINT('',(-2.879670145888,-1.734402670413,
    2.660133926318));
#371 = CARTESIAN_POINT('',(-1.095225402201,-2.679676585531,
    2.713258852487));
#372 = CARTESIAN_POINT('',(0.532638201301,-2.391665399024,2.766383875175
    ));
#373 = CARTESIAN_POINT('',(2.404954162005,-0.469018451571,2.872633875175
    ));
#374 = CARTESIAN_POINT('',(2.64967129335,1.165926363826,2.925758852485)
  );
#375 = CARTESIAN_POINT('',(1.657452144406,2.924629806067,2.978883926325)
  );
#376 = CARTESIAN_POINT('',(-0.583012971916,3.748518403093,3.032008805947
    ));
#377 = CARTESIAN_POINT('',(-3.204544166464,2.695787255143,3.085133905255
    ));
#378 = CARTESIAN_POINT('',(-4.177087667853,-0.298773702886,
    3.138258905395));
#379 = CARTESIAN_POINT('',(-2.673970161902,-2.690863404274,
    3.191383805812));
#380 = CARTESIAN_POINT('',(-0.377037967964,-3.340433389483,
    3.244508926445));
#381 = CARTESIAN_POINT('',(1.459199394241,-2.500184469543,3.297633852395
    ));
#382 = CARTESIAN_POINT('',(2.221685322576,-1.033383355501,3.350758875231
    ));
#383 = CARTESIAN_POINT('',(1.836140693875,1.622458086111,3.457008875062)
  );
#384 = CARTESIAN_POINT('',(0.688026070733,2.811896504683,3.510133853144)
  );
#385 = CARTESIAN_POINT('',(-1.311271782859,3.095347206102,3.563258924416
    ));
#386 = CARTESIAN_POINT('',(-3.32881562656,1.819417737714,3.616383809885)
  );
#387 = CARTESIAN_POINT('',(-4.089514354635,-0.901243883376,
    3.669508898906));
#388 = CARTESIAN_POINT('',(-2.305817207444,-3.495789189531,
    3.722633913715));
#389 = CARTESIAN_POINT('',(0.5069960768,-3.759496112684,3.775758796788)
  );
#390 = CARTESIAN_POINT('',(2.420617360857,-2.332652145734,3.828883934595
    ));
#391 = CARTESIAN_POINT('',(2.871834349734,-0.364354548617,3.882008846276
    ));
#392 = CARTESIAN_POINT('',(2.172314258278,1.133497168274,3.935133879007)
  );
#393 = CARTESIAN_POINT('',(1.001451883848,1.788948085547,3.988258873276)
  );
#394 = CARTESIAN_POINT('',(1.574971904189,1.043044225916E-02,
    -0.26343063368));
#395 = CARTESIAN_POINT('',(1.568146194757,1.041239306232,-0.210307738771
    ));
#396 = CARTESIAN_POINT('',(0.819742913575,2.067352935765,-0.157172292905
    ));
#397 = CARTESIAN_POINT('',(-0.671788750475,2.493461732479,
    -0.104078116787));
#398 = CARTESIAN_POINT('',(-2.341568876637,1.735399299266,
    -5.089001827002E-02));
#399 = CARTESIAN_POINT('',(-3.206816181577,-0.255408485849,
    2.139774237262E-03));
#400 = CARTESIAN_POINT('',(-2.123024884841,-2.417007547062,
    5.537353031925E-02));
#401 = CARTESIAN_POINT('',(-1.004704639703E-02,-2.914504513175,
    0.108403803714));
#402 = CARTESIAN_POINT('',(1.596251039625,-2.0299378291,0.16159110037));
#403 = CARTESIAN_POINT('',(2.147040912128,-0.579787846161,0.214686143698
    ));
#404 = CARTESIAN_POINT('',(1.772458192875,0.633757671039,0.267820886496)
  );
#405 = CARTESIAN_POINT('',(0.128556142351,1.87796021067,0.374067555034)
  );
#406 = CARTESIAN_POINT('',(-1.141113336605,1.908870731434,0.427202230843
    ));
#407 = CARTESIAN_POINT('',(-2.387155478093,0.984957177951,0.480297517999
    ));
#408 = CARTESIAN_POINT('',(-2.802241420212,-0.801246999691,
    0.533484278344));
#409 = CARTESIAN_POINT('',(-1.749557034548,-2.699621471364,
    0.586515423494));
#410 = CARTESIAN_POINT('',(0.62512550765,-3.15568961753,0.639748034363)
  );
#411 = CARTESIAN_POINT('',(2.306115537536,-1.782208935803,0.692779111644
    ));
#412 = CARTESIAN_POINT('',(2.58219406927,3.06433112982E-02,
    0.745965950915));
#413 = CARTESIAN_POINT('',(1.767012301631,1.350409577206,0.799061195316)
  );
#414 = CARTESIAN_POINT('',(0.576210419929,1.791992857477,0.85219587769)
  );
#415 = CARTESIAN_POINT('',(-1.411625986565,1.245220184325,0.958442559457
    ));
#416 = CARTESIAN_POINT('',(-2.209074754114,0.256740800408,1.011577223671
    ));
#417 = CARTESIAN_POINT('',(-2.234627250359,-1.294253837704,
    1.064672527559));
#418 = CARTESIAN_POINT('',(-1.070224504376,-2.710935854529,1.11785926775
    ));
#419 = CARTESIAN_POINT('',(1.076690868186,-3.031442346715,1.170890433274
    ));
#420 = CARTESIAN_POINT('',(2.884129198753,-1.425116707936,1.224123026891
    ));
#421 = CARTESIAN_POINT('',(2.817795600905,0.744624404049,1.277154116283)
  );
#422 = CARTESIAN_POINT('',(1.547629178939,2.067246757179,1.330340948664)
  );
#423 = CARTESIAN_POINT('',(4.336984727525E-03,2.223942375433,
    1.383436196093));
#424 = CARTESIAN_POINT('',(-1.070908840569,1.548034594115,1.436570877557
    ));
#425 = CARTESIAN_POINT('',(-1.847243045461,-0.361876172874,
    1.542817559523));
#426 = CARTESIAN_POINT('',(-1.548485675657,-1.596282938539,
    1.595952223567));
#427 = CARTESIAN_POINT('',(-0.333554272954,-2.560740809183,
    1.649047527694));
#428 = CARTESIAN_POINT('',(1.499218616921,-2.499379370089,1.702234267604
    ));
#429 = CARTESIAN_POINT('',(3.060452783128,-0.991228878284,1.755265433407
    ));
#430 = CARTESIAN_POINT('',(2.886367713068,1.420577450104,1.80849802679)
  );
#431 = CARTESIAN_POINT('',(1.124615018422,2.688806168468,1.861529116348)
  );
#432 = CARTESIAN_POINT('',(-0.697920169458,2.486276868685,1.91471594863)
  );
#433 = CARTESIAN_POINT('',(-1.761731923146,1.357291099812,1.967811196107
    ));
#434 = CARTESIAN_POINT('',(-1.880066412251,9.277464585718E-02,
    2.020945877553));
#435 = CARTESIAN_POINT('',(-0.837434645556,-1.685812696569,
    2.127192559531));
#436 = CARTESIAN_POINT('',(0.323758048605,-2.200251765944,2.180327223534
    ));
#437 = CARTESIAN_POINT('',(1.82851729878,-1.823506630932,2.233422527771)
  );
#438 = CARTESIAN_POINT('',(2.895557439477,-0.332115659421,2.286609267478
    ));
#439 = CARTESIAN_POINT('',(2.649480351318,1.824598529907,2.339640433563)
  );
#440 = CARTESIAN_POINT('',(0.630089468428,3.154702224968,2.392873026641)
  );
#441 = CARTESIAN_POINT('',(-1.448551109439,2.529058566901,2.445904116458
    ));
#442 = CARTESIAN_POINT('',(-2.397362938351,0.95985216176,2.499090948569)
  );
#443 = CARTESIAN_POINT('',(-2.149285870851,-0.571409436407,
    2.552186196131));
#444 = CARTESIAN_POINT('',(-1.218114990938,-1.435079342145,
    2.605320877548));
#445 = CARTESIAN_POINT('',(0.827647222399,-1.69063931953,2.711567559531)
  );
#446 = CARTESIAN_POINT('',(1.942668500313,-1.082573879913,2.764702223545
    ));
#447 = CARTESIAN_POINT('',(2.559815880476,0.340579804328,2.817797527733)
  );
#448 = CARTESIAN_POINT('',(2.026188752372,2.095020963157,2.87098426756)
  );
#449 = CARTESIAN_POINT('',(0.165350106448,3.212719295245,2.924015433429)
  );
#450 = CARTESIAN_POINT('',(-2.119219382652,2.420344618952,2.977248026814
    ));
#451 = CARTESIAN_POINT('',(-2.888259105162,0.390380446058,3.030279116274
    ));
#452 = CARTESIAN_POINT('',(-2.220924006967,-1.317634921472,3.08346594873
    ));
#453 = CARTESIAN_POINT('',(-0.85507275301,-2.052995149884,3.136561196014
    ));
#454 = CARTESIAN_POINT('',(0.396983567076,-1.840016548017,3.189695877619
    ));
#455 = CARTESIAN_POINT('',(1.845114057232,-0.372579319559,3.295942559392
    ));
#456 = CARTESIAN_POINT('',(2.041485255896,0.882193321283,3.349077224351)
  );
#457 = CARTESIAN_POINT('',(1.288117048531,2.23817032877,3.402172525415)
  );
#458 = CARTESIAN_POINT('',(-0.428626319861,2.88285156783,3.455359272312)
  );
#459 = CARTESIAN_POINT('',(-2.448162815446,2.086960652115,3.50839042581)
  );
#460 = CARTESIAN_POINT('',(-3.210287510181,-0.207877331953,
    3.561623036751));
#461 = CARTESIAN_POINT('',(-2.067970368568,-2.053761445228,
    3.614654105539));
#462 = CARTESIAN_POINT('',(-0.306662808222,-2.564102801951,
    3.667840958399));
#463 = CARTESIAN_POINT('',(1.108215250423,-1.928159082388,3.720936188768
    ));
#464 = CARTESIAN_POINT('',(1.701451557107,-0.80518286641,3.774070882085)
  );
#465 = CARTESIAN_POINT('',(1.418821319929,1.23701548595,3.880317550503)
  );
#466 = CARTESIAN_POINT('',(0.542886451325,2.156664387936,3.933452276455)
  );
#467 = CARTESIAN_POINT('',(-0.991503896144,2.384443805869,3.986547374543
    ));
#468 = CARTESIAN_POINT('',(-2.548051164292,1.414916562884,4.039734583185
    ));
#469 = CARTESIAN_POINT('',(-3.146044181754,-0.671796749404,
    4.092764925082));
#470 = CARTESIAN_POINT('',(-1.789379189261,-2.673440347032,
    4.145998692292));
#471 = CARTESIAN_POINT('',(0.370458071476,-2.890881598727,4.199028395312
    ));
#472 = CARTESIAN_POINT('',(1.847554884089,-1.804219167696,4.252216599384
    ));
#473 = CARTESIAN_POINT('',(2.204350260163,-0.294582368623,4.305310707852
    ));
#474 = CARTESIAN_POINT('',(1.674572528784,0.859687856334,4.358446178774)
  );
#475 = CARTESIAN_POINT('',(0.778452996425,1.369181049151,4.411569069308)
  );
#476 = CARTESIAN_POINT('',(1.634614231107,-9.890910963091E-03,
    0.249804263135));
#477 = CARTESIAN_POINT('',(1.641086870725,1.059954661443,0.30292741834)
  );
#478 = CARTESIAN_POINT('',(0.877913570856,2.134671752185,0.356061575568)
  );
#479 = CARTESIAN_POINT('',(-0.664396211434,2.596524238259,0.409159560003
    ));
#480 = CARTESIAN_POINT('',(-2.407167195068,1.831730428375,0.462339832589
    ));
#481 = CARTESIAN_POINT('',(-3.331396608922,-0.222841030666,
    0.515381497042));
#482 = CARTESIAN_POINT('',(-2.234963345792,-2.480432151806,
    0.568601608698));
#483 = CARTESIAN_POINT('',(-4.880799519735E-02,-3.024471181273,
    0.621643837656));
#484 = CARTESIAN_POINT('',(1.629885784919,-2.127632335035,0.674823232628
    ));
#485 = CARTESIAN_POINT('',(2.220524415158,-0.629932671413,0.727922086973
    ));
#486 = CARTESIAN_POINT('',(1.847762141424,0.634389417026,0.781055591197)
  );
#487 = CARTESIAN_POINT('',(0.158111920889,1.947221379748,0.887302677896)
  );
#488 = CARTESIAN_POINT('',(-1.159109212935,1.996001304215,0.940436154833
    ));
#489 = CARTESIAN_POINT('',(-2.464419740946,1.053563100083,0.993535120792
    ));
#490 = CARTESIAN_POINT('',(-2.918600243292,-0.794647576467,
    1.046714211197));
#491 = CARTESIAN_POINT('',(-1.851233855394,-2.778631398186,
    1.099757070615));
#492 = CARTESIAN_POINT('',(0.607299478045,-3.283107250829,1.152976170555
    ));
#493 = CARTESIAN_POINT('',(2.369761997901,-1.87990326405,1.206019109691)
  );
#494 = CARTESIAN_POINT('',(2.680175766785,-2.145227302442E-03,
    1.259198100595));
#495 = CARTESIAN_POINT('',(1.851528823337,1.378181768899,1.312297132574)
  );
#496 = CARTESIAN_POINT('',(0.621551355534,1.852120071579,1.365430583418)
  );
#497 = CARTESIAN_POINT('',(-1.448582145448,1.310831892037,1.471677681804
    ));
#498 = CARTESIAN_POINT('',(-2.289155285293,0.295505437612,1.524811148497
    ));
#499 = CARTESIAN_POINT('',(-2.336091484471,-1.31378705127,1.577910129239
    ));
#500 = CARTESIAN_POINT('',(-1.14629494939,-2.799232050334,1.631089201836
    ));
#501 = CARTESIAN_POINT('',(1.077476737379,-3.16020617967,1.684132079256)
  );
#502 = CARTESIAN_POINT('',(2.974364599456,-1.516825995051,1.737351163953
    ));
#503 = CARTESIAN_POINT('',(2.934047235832,0.735646001114,1.79039411379)
  );
#504 = CARTESIAN_POINT('',(1.633289552242,2.125020464633,1.843573098606)
  );
#505 = CARTESIAN_POINT('',(3.375422273327E-02,2.307900480011,
    1.896672133261));
#506 = CARTESIAN_POINT('',(-1.091009154057,1.620609105495,1.949805583301
    ));
#507 = CARTESIAN_POINT('',(-1.921793796984,-0.351253587964,
    2.056052681862));
#508 = CARTESIAN_POINT('',(-1.62798966874,-1.636216679594,2.109186148405
    ));
#509 = CARTESIAN_POINT('',(-0.379825044773,-2.653128865122,
    2.162285129358));
#510 = CARTESIAN_POINT('',(1.522959945869,-2.613481430198,2.215464201708
    ));
#511 = CARTESIAN_POINT('',(3.163086407075,-1.068991861173,2.268507079373
    ));
#512 = CARTESIAN_POINT('',(3.01405741373,1.436336929897,2.321726163863)
  );
#513 = CARTESIAN_POINT('',(1.202507575835,2.775569086008,2.374769113847)
  );
#514 = CARTESIAN_POINT('',(-0.69160840201,2.589406216657,2.427948098576)
  );
#515 = CARTESIAN_POINT('',(-1.810432286006,1.431739819574,2.481047133273
    ));
#516 = CARTESIAN_POINT('',(-1.949879938836,0.121008558267,2.534180583296
    ));
#517 = CARTESIAN_POINT('',(-0.891245730812,-1.738491164343,
    2.640427681869));
#518 = CARTESIAN_POINT('',(0.307040651049,-2.287636645688,2.693561148375
    ));
#519 = CARTESIAN_POINT('',(1.873645810323,-1.91645798728,2.746660129428)
  );
#520 = CARTESIAN_POINT('',(3.000533495427,-0.382741329939,2.799839201592
    ));
#521 = CARTESIAN_POINT('',(2.773653265041,1.858684153656,2.852882079516)
  );
#522 = CARTESIAN_POINT('',(0.695319197179,3.265599039021,2.906101163727)
  );
#523 = CARTESIAN_POINT('',(-1.469966775326,2.6436728051,2.959144113947)
  );
#524 = CARTESIAN_POINT('',(-2.475338590483,1.027640792846,3.01232309852)
  );
#525 = CARTESIAN_POINT('',(-2.237996913839,-0.564724522949,
    3.065422133295));
#526 = CARTESIAN_POINT('',(-1.283014241865,-1.473278419787,
    3.118555583293));
#527 = CARTESIAN_POINT('',(0.83668174761,-1.765399143086,3.224802681869)
  );
#528 = CARTESIAN_POINT('',(2.00181867973,-1.14903322736,3.277936148385)
  );
#529 = CARTESIAN_POINT('',(2.661031646673,0.319797459154,3.331035129395)
  );
#530 = CARTESIAN_POINT('',(2.130258171063,2.147485112328,3.384214201664)
  );
#531 = CARTESIAN_POINT('',(0.213899843313,3.331982304042,3.437257079399)
  );
#532 = CARTESIAN_POINT('',(-2.167490397515,2.539604545273,3.490476163879
    ));
#533 = CARTESIAN_POINT('',(-2.992225725362,0.443162983275,3.543519113786
    ));
#534 = CARTESIAN_POINT('',(-2.322172913199,-1.338230061489,
    3.596698098661));
#535 = CARTESIAN_POINT('',(-0.914380112794,-2.11930483479,3.649797133193
    ));
#536 = CARTESIAN_POINT('',(0.387780772222,-1.914758710553,3.702930583354
    ));
#537 = CARTESIAN_POINT('',(1.909924883375,-0.410922645948,3.809177681749
    ));
#538 = CARTESIAN_POINT('',(2.130219349356,0.888662427104,3.862311149083)
  );
#539 = CARTESIAN_POINT('',(1.366221044754,2.30581870272,3.915410127385)
  );
#540 = CARTESIAN_POINT('',(-0.406895477337,2.997353543555,3.968589205782
    ));
#541 = CARTESIAN_POINT('',(-2.513225318635,2.198080460623,4.021632072799
    ));
#542 = CARTESIAN_POINT('',(-3.334288297876,-0.173572450369,
    4.074851172485));
#543 = CARTESIAN_POINT('',(-2.173136444692,-2.10411174796,4.127894104491
    ));
#544 = CARTESIAN_POINT('',(-0.351960008861,-2.656966477647,
    4.181073107032));
#545 = CARTESIAN_POINT('',(1.124718223538,-2.015577559772,4.234172126921
    ));
#546 = CARTESIAN_POINT('',(1.755146197213,-0.857984075891,4.287305587219
    ));
#547 = CARTESIAN_POINT('',(1.488695452471,1.265091424772,4.393552674056)
  );
#548 = CARTESIAN_POINT('',(0.591772085499,2.231000068837,4.446686194181)
  );
#549 = CARTESIAN_POINT('',(-0.997626338428,2.487589450062,4.499784996801
    ));
#550 = CARTESIAN_POINT('',(-2.62566262725,1.501861480165,4.552964474853)
  );
#551 = CARTESIAN_POINT('',(-3.273809258322,-0.655769324384,4.6060066394)
  );
#552 = CARTESIAN_POINT('',(-1.892081634172,-2.750932676703,
    4.659226739881));
#553 = CARTESIAN_POINT('',(0.346382228629,-3.004967451196,4.712268489759
    ));
#554 = CARTESIAN_POINT('',(1.893653739365,-1.896687070183,4.765448661832
    ));
#555 = CARTESIAN_POINT('',(2.283750122182,-0.334707132303,4.818546710666
    ));
#556 = CARTESIAN_POINT('',(1.749149926319,0.870143619573,4.871680844018)
  );
#557 = CARTESIAN_POINT('',(0.825872808591,1.410671863709,4.924804003414)
  );
#558 = CARTESIAN_POINT('',(2.05,-9.890910963162E-03,0.249804263135));
#559 = CARTESIAN_POINT('',(2.056472639178,1.331830906137,0.302929261049)
  );
#560 = CARTESIAN_POINT('',(1.097722684717,2.678412781957,0.356054272961)
  );
#561 = CARTESIAN_POINT('',(-0.837249974918,3.255445462923,0.409179240816
    ));
#562 = CARTESIAN_POINT('',(-3.021578314928,2.293220091965,0.462304290983
    ));
#563 = CARTESIAN_POINT('',(-4.177745630855,-0.284231839898,
    0.515429248391));
#564 = CARTESIAN_POINT('',(-2.798892579156,-3.114513596661,
    0.568554253846));
#565 = CARTESIAN_POINT('',(-5.671346552751E-02,-3.792853403007,
    0.621679286168));
#566 = CARTESIAN_POINT('',(2.047416444537,-2.665892286346,0.674804244546
    ));
#567 = CARTESIAN_POINT('',(2.78571446746,-0.786554951849,0.727929270453)
  );
#568 = CARTESIAN_POINT('',(2.316326916213,0.798429317116,0.781054262486)
  );
#569 = CARTESIAN_POINT('',(0.195288821285,2.442276846074,0.887304262423)
  );
#570 = CARTESIAN_POINT('',(-1.456676653997,2.501396151959,0.940429270735
    ));
#571 = CARTESIAN_POINT('',(-3.092403814114,1.317554833441,0.993554243784
    ));
#572 = CARTESIAN_POINT('',(-3.658754384643,-1.001155603218,
    1.046679287694));
#573 = CARTESIAN_POINT('',(-2.317753906715,-3.487457560477,
    1.099804251427));
#574 = CARTESIAN_POINT('',(0.767051755725,-4.116506732085,1.152929251526
    ));
#575 = CARTESIAN_POINT('',(2.974548047669,-2.353936546102,1.206054287609
    ));
#576 = CARTESIAN_POINT('',(3.36138266153,1.432214882948E-03,
    1.259179243847));
#577 = CARTESIAN_POINT('',(2.319851535404,1.731231582976,1.312304270694)
  );
#578 = CARTESIAN_POINT('',(0.776653914942,2.323718664549,1.365429262445)
  );
#579 = CARTESIAN_POINT('',(-1.818704190377,1.64169698339,1.471679262443)
  );
#580 = CARTESIAN_POINT('',(-2.871259556401,0.367094203811,1.5248042707)
  );
#581 = CARTESIAN_POINT('',(-2.927822689934,-1.651292328256,1.57792924383
    ));
#582 = CARTESIAN_POINT('',(-1.433038409105,-3.512149932467,
    1.631054287642));
#583 = CARTESIAN_POINT('',(1.355826927595,-3.961827447898,1.684179251476
    ));
#584 = CARTESIAN_POINT('',(3.732795886723,-1.897427451292,1.737304251489
    ));
#585 = CARTESIAN_POINT('',(3.678293543354,0.926881855814,1.790429287632)
  );
#586 = CARTESIAN_POINT('',(2.045143859281,2.66763603876,1.843554243836)
  );
#587 = CARTESIAN_POINT('',(3.87577768631E-02,2.894368977315,
    1.896679270698));
#588 = CARTESIAN_POINT('',(-1.370733017355,2.030751272459,1.949804262444
    ));
#589 = CARTESIAN_POINT('',(-2.409602747375,-0.443473242801,
    2.056054262444));
#590 = CARTESIAN_POINT('',(-2.039147483439,-2.054450567865,
    2.109179270701));
#591 = CARTESIAN_POINT('',(-0.472287240146,-3.328040988244,
    2.162304243829));
#592 = CARTESIAN_POINT('',(1.913997370731,-3.274967220467,2.215429287644
    ));
#593 = CARTESIAN_POINT('',(3.968504177415,-1.336157916759,2.268554251473
    ));
#594 = CARTESIAN_POINT('',(3.777712564617,1.806345438639,2.321679251491)
  );
#595 = CARTESIAN_POINT('',(1.503858417416,3.482436392275,2.374804287631)
  );
#596 = CARTESIAN_POINT('',(-0.871373263734,3.24647563916,2.427929243835)
  );
#597 = CARTESIAN_POINT('',(-2.272663056557,1.792728806447,2.481054270699
    ));
#598 = CARTESIAN_POINT('',(-2.44555269574,0.148767428617,2.534179262444)
  );
#599 = CARTESIAN_POINT('',(-1.115042233331,-2.18163579342,2.640429262445
    ));
#600 = CARTESIAN_POINT('',(0.388550884509,-2.868434730855,2.693554270694
    ));
#601 = CARTESIAN_POINT('',(2.352802179419,-2.400673647342,2.746679243848
    ));
#602 = CARTESIAN_POINT('',(3.763373958244,-0.475197517723,2.79980428761)
  );
#603 = CARTESIAN_POINT('',(3.475917620484,2.335024642333,2.852929251519)
  );
#604 = CARTESIAN_POINT('',(0.86665551174,4.09669431231,2.906054251446));
#605 = CARTESIAN_POINT('',(-1.847311544925,3.313064053365,2.959179287663
    ));
#606 = CARTESIAN_POINT('',(-3.10606072575,1.285022259925,3.012304243819)
  );
#607 = CARTESIAN_POINT('',(-2.805776996791,-0.711680677246,
    3.065429270704));
#608 = CARTESIAN_POINT('',(-1.606783290196,-1.849623527586,
    3.118554262443));
#609 = CARTESIAN_POINT('',(1.052013340641,-2.21271820356,3.224804262445)
  );
#610 = CARTESIAN_POINT('',(2.51221706683,-1.437934283668,3.277929270694)
  );
#611 = CARTESIAN_POINT('',(3.336877673981,0.405165947929,3.331054243848)
  );
#612 = CARTESIAN_POINT('',(2.667996446712,2.69640338062,3.384179287612)
  );
#613 = CARTESIAN_POINT('',(0.263504978078,4.179103792779,3.437304251514)
  );
#614 = CARTESIAN_POINT('',(-2.722539668996,3.181473528957,3.490429251453
    ));
#615 = CARTESIAN_POINT('',(-3.753002449296,0.551294822727,3.543554287657
    ));
#616 = CARTESIAN_POINT('',(-2.910326668214,-1.681931664595,
    3.596679243823));
#617 = CARTESIAN_POINT('',(-1.143434571563,-2.659216298644,
    3.649804270703));
#618 = CARTESIAN_POINT('',(0.489257312064,-2.400726352152,3.702929262443
    ));
#619 = CARTESIAN_POINT('',(2.395892522466,-0.512399197824,3.809179262445
    ));
#620 = CARTESIAN_POINT('',(2.670130818857,1.117716872515,3.862304270695)
  );
#621 = CARTESIAN_POINT('',(1.709922662487,2.893972449208,3.915429243846)
  );
#622 = CARTESIAN_POINT('',(-0.515027298088,3.758130270199,3.96855428761)
  );
#623 = CARTESIAN_POINT('',(-3.15509428836,2.753129747942,4.021679251526)
  );
#624 = CARTESIAN_POINT('',(-4.181409788136,-0.223177564084,
    4.074804251426));
#625 = CARTESIAN_POINT('',(-2.72205472596,-2.641850010113,4.127929287696
    ));
#626 = CARTESIAN_POINT('',(-0.437328514685,-3.332812502752,
    4.181054243782));
#627 = CARTESIAN_POINT('',(1.413619267455,-2.525975954094,4.234179270736
    ));
#628 = CARTESIAN_POINT('',(2.202465252202,-1.073315679952,4.287304262422
    ));
#629 = CARTESIAN_POINT('',(1.865040568592,1.588860463695,4.393554262487)
  );
#630 = CARTESIAN_POINT('',(0.738728252055,2.798780148679,4.446679270449)
  );
#631 = CARTESIAN_POINT('',(-1.255007784693,3.11831159017,4.499804244558)
  );
#632 = CARTESIAN_POINT('',(-3.295053876886,1.879206269487,4.552929286147
    ));
#633 = CARTESIAN_POINT('',(-4.104904518592,-0.827105623436,
    4.606054253873));
#634 = CARTESIAN_POINT('',(-2.368422162845,-3.45319701373,4.659179248365
    ));
#635 = CARTESIAN_POINT('',(0.43883842204,-3.767807923467,4.712304291001)
  );
#636 = CARTESIAN_POINT('',(2.377869365426,-2.375843444808,4.765429240807
    ));
#637 = CARTESIAN_POINT('',(2.864548221951,-0.416217384985,4.818554272964
    ));
#638 = CARTESIAN_POINT('',(2.19229455068,1.093940114107,4.871679261048)
  );
#639 = CARTESIAN_POINT('',(1.033565701943,1.770406486799,4.924804263135)
  );
#640 = DEFINITIONAL_REPRESENTATION('',(#641),#684);
#641 = B_SPLINE_CURVE_WITH_KNOTS('',11,(#642,#643,#644,#645,#646,#647,
    #648,#649,#650,#651,#652,#653,#654,#655,#656,#657,#658,#659,#660,
    #661,#662,#663,#664,#665,#666,#667,#668,#669,#670,#671,#672,#673,
    #674,#675,#676,#677,#678,#679,#680,#681,#682,#683),.UNSPECIFIED.,.F.
  ,.F.,(12,10,10,10,12),(0.,1.570796326795,3.14159265359,4.712388980385,
    6.28318530718),.UNSPECIFIED.);
#642 = CARTESIAN_POINT('',(0.,0.));
#643 = CARTESIAN_POINT('',(0.144895684084,0.));
#644 = CARTESIAN_POINT('',(0.288776770744,0.));
#645 = CARTESIAN_POINT('',(0.432002021025,0.));
#646 = CARTESIAN_POINT('',(0.574713218255,0.));
#647 = CARTESIAN_POINT('',(0.717142740349,0.));
#648 = CARTESIAN_POINT('',(0.859500575624,0.));
#649 = CARTESIAN_POINT('',(1.001849598694,0.));
#650 = CARTESIAN_POINT('',(1.144154785208,0.));
#651 = CARTESIAN_POINT('',(1.28646890626,0.));
#652 = CARTESIAN_POINT('',(1.428994105487,0.));
#653 = CARTESIAN_POINT('',(1.714077142352,0.));
#654 = CARTESIAN_POINT('',(1.856578315486,0.));
#655 = CARTESIAN_POINT('',(1.999631516578,0.));
#656 = CARTESIAN_POINT('',(2.139287765344,0.));
#657 = CARTESIAN_POINT('',(2.288539529861,0.));
#658 = CARTESIAN_POINT('',(2.424911793373,0.));
#659 = CARTESIAN_POINT('',(2.571564071526,0.));
#660 = CARTESIAN_POINT('',(2.712869727359,0.));
#661 = CARTESIAN_POINT('',(2.856041240116,0.));
#662 = CARTESIAN_POINT('',(2.998794216796,0.));
#663 = CARTESIAN_POINT('',(3.284391090384,0.));
#664 = CARTESIAN_POINT('',(3.427144067064,0.));
#665 = CARTESIAN_POINT('',(3.570315579821,0.));
#666 = CARTESIAN_POINT('',(3.711621235654,0.));
#667 = CARTESIAN_POINT('',(3.858273513806,0.));
#668 = CARTESIAN_POINT('',(3.99464577732,0.));
#669 = CARTESIAN_POINT('',(4.143897541834,0.));
#670 = CARTESIAN_POINT('',(4.283553790603,0.));
#671 = CARTESIAN_POINT('',(4.426606991693,0.));
#672 = CARTESIAN_POINT('',(4.569108164828,0.));
#673 = CARTESIAN_POINT('',(4.854191201693,0.));
#674 = CARTESIAN_POINT('',(4.996716400919,0.));
#675 = CARTESIAN_POINT('',(5.139030521975,0.));
#676 = CARTESIAN_POINT('',(5.28133570848,0.));
#677 = CARTESIAN_POINT('',(5.423684731563,0.));
#678 = CARTESIAN_POINT('',(5.566042566822,0.));
#679 = CARTESIAN_POINT('',(5.708472088932,0.));
#680 = CARTESIAN_POINT('',(5.85118328615,0.));
#681 = CARTESIAN_POINT('',(5.994408536438,0.));
#682 = CARTESIAN_POINT('',(6.138289623095,0.));
#683 = CARTESIAN_POINT('',(6.28318530718,0.));
#684 = ( GEOMETRIC_REPRESENTATION_CONTEXT(2) 
PARAMETRIC_REPRESENTATION_CONTEXT() REPRESENTATION_CONTEXT('2D SPACE',''
  ) );
#685 = ORIENTED_EDGE('',*,*,#21,.F.);
#686 = ORIENTED_EDGE('',*,*,#687,.T.);
#687 = EDGE_CURVE('',#22,#22,#688,.T.);
#688 = SURFACE_CURVE('',#689,(#694,#701),.PCURVE_S1.);
#689 = CIRCLE('',#690,0.25);
#690 = AXIS2_PLACEMENT_3D('',#691,#692,#693);
#691 = CARTESIAN_POINT('',(2.049999999999,-7.993736420313,
    -0.316509150821));
#692 = DIRECTION('',(1.785238623597E-13,0.999217052539,
    3.956364385264E-02));
#693 = DIRECTION('',(3.155443620884E-30,-3.956364385264E-02,
    0.999217052539));
#694 = PCURVE('',#32,#695);
#695 = DEFINITIONAL_REPRESENTATION('',(#696),#700);
#696 = LINE('',#697,#698);
#697 = CARTESIAN_POINT('',(0.,0.));
#698 = VECTOR('',#699,1.);
#699 = DIRECTION('',(1.,0.));
#700 = ( GEOMETRIC_REPRESENTATION_CONTEXT(2) 
PARAMETRIC_REPRESENTATION_CONTEXT() REPRESENTATION_CONTEXT('2D SPACE',''
  ) );
#701 = PCURVE('',#702,#707);
#702 = PLANE('',#703);
#703 = AXIS2_PLACEMENT_3D('',#704,#705,#706);
#704 = CARTESIAN_POINT('',(2.049999999999,-7.993736420313,
    -0.316509150821));
#705 = DIRECTION('',(1.785766781819E-13,0.999217052539,
    3.956364385264E-02));
#706 = DIRECTION('',(0.,-3.956364385264E-02,0.999217052539));
#707 = DEFINITIONAL_REPRESENTATION('',(#708),#712);
#708 = CIRCLE('',#709,0.25);
#709 = AXIS2_PLACEMENT_2D('',#710,#711);
#710 = CARTESIAN_POINT('',(5.546768891635E-17,-4.440892098501E-16));
#711 = DIRECTION('',(1.,3.060780312258E-28));
#712 = ( GEOMETRIC_REPRESENTATION_CONTEXT(2) 
PARAMETRIC_REPRESENTATION_CONTEXT() REPRESENTATION_CONTEXT('2D SPACE',''
  ) );
#713 = ADVANCED_FACE('',(#714),#65,.T.);
#714 = FACE_BOUND('',#715,.T.);
#715 = EDGE_LOOP('',(#716,#817,#852,#853));
#716 = ORIENTED_EDGE('',*,*,#717,.T.);
#717 = EDGE_CURVE('',#24,#718,#720,.T.);
#718 = VERTEX_POINT('',#719);
#719 = CARTESIAN_POINT('',(1.033565701943,1.770406486799,4.924804263135)
  );
#720 = SEAM_CURVE('',#721,(#804,#810),.PCURVE_S1.);
#721 = ( BOUNDED_CURVE() B_SPLINE_CURVE(11,(#722,#723,#724,#725,#726,
    #727,#728,#729,#730,#731,#732,#733,#734,#735,#736,#737,#738,#739,
    #740,#741,#742,#743,#744,#745,#746,#747,#748,#749,#750,#751,#752,
    #753,#754,#755,#756,#757,#758,#759,#760,#761,#762,#763,#764,#765,
    #766,#767,#768,#769,#770,#771,#772,#773,#774,#775,#776,#777,#778,
    #779,#780,#781,#782,#783,#784,#785,#786,#787,#788,#789,#790,#791,
    #792,#793,#794,#795,#796,#797,#798,#799,#800,#801,#802,#803),
.UNSPECIFIED.,.F.,.F.) B_SPLINE_CURVE_WITH_KNOTS((12,10,10,10,10,10,10,
    10,12),(0.,7.223160802322,14.446321604645,21.669482406967,
    28.89264320929,36.115804011612,43.338964813935,50.562125616257,
57.785286418579),.UNSPECIFIED.) CURVE() GEOMETRIC_REPRESENTATION_ITEM() 
RATIONAL_B_SPLINE_CURVE((1.669078461068,1.669078461068,1.669078461068,
    1.669078461069,1.669078461066,1.669078461071,1.669078461066,
    1.66907846107,1.669078461067,1.669078461069,1.669078461068,
    1.669078461068,1.669078461068,1.669078461068,1.669078461069,
    1.669078461067,1.669078461069,1.669078461067,1.669078461069,
    1.669078461068,1.669078461068,1.669078461068,1.669078461068,
    1.669078461068,1.669078461069,1.669078461068,1.669078461069,
    1.669078461068,1.669078461068,1.669078461068,1.669078461068,
    1.669078461068,1.669078461068,1.669078461068,1.669078461068,
    1.669078461069,1.669078461068,1.669078461069,1.669078461068,
    1.669078461068,1.669078461068,1.669078461068,1.669078461068,
    1.669078461069,1.669078461066,1.66907846107,1.669078461066,
    1.66907846107,1.669078461067,1.669078461069,1.669078461068,
    1.669078461068,1.669078461068,1.669078461068,1.669078461069,
    1.669078461067,1.669078461069,1.669078461068,1.669078461069,
    1.669078461068,1.669078461068,1.669078461068,1.669078461068,
    1.669078461069,1.669078461067,1.669078461069,1.669078461067,
    1.669078461069,1.669078461068,1.669078461068,1.669078461068,
    1.669078461068,1.669078461068,1.669078461069,1.669078461067,
    1.66907846107,1.669078461067,1.669078461069,1.669078461068,
1.669078461068,1.669078461068,1.669078461068)) REPRESENTATION_ITEM('') 
  );
#722 = CARTESIAN_POINT('',(2.05,-9.890910963162E-03,0.249804263135));
#723 = CARTESIAN_POINT('',(2.056472639178,1.331830906137,0.302929261049)
  );
#724 = CARTESIAN_POINT('',(1.097722684717,2.678412781957,0.356054272961)
  );
#725 = CARTESIAN_POINT('',(-0.837249974918,3.255445462923,0.409179240816
    ));
#726 = CARTESIAN_POINT('',(-3.021578314928,2.293220091965,0.462304290983
    ));
#727 = CARTESIAN_POINT('',(-4.177745630855,-0.284231839898,
    0.515429248391));
#728 = CARTESIAN_POINT('',(-2.798892579156,-3.114513596661,
    0.568554253846));
#729 = CARTESIAN_POINT('',(-5.671346552751E-02,-3.792853403007,
    0.621679286168));
#730 = CARTESIAN_POINT('',(2.047416444537,-2.665892286346,0.674804244546
    ));
#731 = CARTESIAN_POINT('',(2.78571446746,-0.786554951849,0.727929270453)
  );
#732 = CARTESIAN_POINT('',(2.316326916213,0.798429317116,0.781054262486)
  );
#733 = CARTESIAN_POINT('',(0.195288821285,2.442276846074,0.887304262423)
  );
#734 = CARTESIAN_POINT('',(-1.456676653997,2.501396151959,0.940429270735
    ));
#735 = CARTESIAN_POINT('',(-3.092403814114,1.317554833441,0.993554243784
    ));
#736 = CARTESIAN_POINT('',(-3.658754384643,-1.001155603218,
    1.046679287694));
#737 = CARTESIAN_POINT('',(-2.317753906715,-3.487457560477,
    1.099804251427));
#738 = CARTESIAN_POINT('',(0.767051755725,-4.116506732085,1.152929251526
    ));
#739 = CARTESIAN_POINT('',(2.974548047669,-2.353936546102,1.206054287609
    ));
#740 = CARTESIAN_POINT('',(3.36138266153,1.432214882948E-03,
    1.259179243847));
#741 = CARTESIAN_POINT('',(2.319851535404,1.731231582976,1.312304270694)
  );
#742 = CARTESIAN_POINT('',(0.776653914942,2.323718664549,1.365429262445)
  );
#743 = CARTESIAN_POINT('',(-1.818704190377,1.64169698339,1.471679262443)
  );
#744 = CARTESIAN_POINT('',(-2.871259556401,0.367094203811,1.5248042707)
  );
#745 = CARTESIAN_POINT('',(-2.927822689934,-1.651292328256,1.57792924383
    ));
#746 = CARTESIAN_POINT('',(-1.433038409105,-3.512149932467,
    1.631054287642));
#747 = CARTESIAN_POINT('',(1.355826927595,-3.961827447898,1.684179251476
    ));
#748 = CARTESIAN_POINT('',(3.732795886723,-1.897427451292,1.737304251489
    ));
#749 = CARTESIAN_POINT('',(3.678293543354,0.926881855814,1.790429287632)
  );
#750 = CARTESIAN_POINT('',(2.045143859281,2.66763603876,1.843554243836)
  );
#751 = CARTESIAN_POINT('',(3.87577768631E-02,2.894368977315,
    1.896679270698));
#752 = CARTESIAN_POINT('',(-1.370733017355,2.030751272459,1.949804262444
    ));
#753 = CARTESIAN_POINT('',(-2.409602747375,-0.443473242801,
    2.056054262444));
#754 = CARTESIAN_POINT('',(-2.039147483439,-2.054450567865,
    2.109179270701));
#755 = CARTESIAN_POINT('',(-0.472287240146,-3.328040988244,
    2.162304243829));
#756 = CARTESIAN_POINT('',(1.913997370731,-3.274967220467,2.215429287644
    ));
#757 = CARTESIAN_POINT('',(3.968504177415,-1.336157916759,2.268554251473
    ));
#758 = CARTESIAN_POINT('',(3.777712564617,1.806345438639,2.321679251491)
  );
#759 = CARTESIAN_POINT('',(1.503858417416,3.482436392275,2.374804287631)
  );
#760 = CARTESIAN_POINT('',(-0.871373263734,3.24647563916,2.427929243835)
  );
#761 = CARTESIAN_POINT('',(-2.272663056557,1.792728806447,2.481054270699
    ));
#762 = CARTESIAN_POINT('',(-2.44555269574,0.148767428617,2.534179262444)
  );
#763 = CARTESIAN_POINT('',(-1.115042233331,-2.18163579342,2.640429262445
    ));
#764 = CARTESIAN_POINT('',(0.388550884509,-2.868434730855,2.693554270694
    ));
#765 = CARTESIAN_POINT('',(2.352802179419,-2.400673647342,2.746679243848
    ));
#766 = CARTESIAN_POINT('',(3.763373958244,-0.475197517723,2.79980428761)
  );
#767 = CARTESIAN_POINT('',(3.475917620484,2.335024642333,2.852929251519)
  );
#768 = CARTESIAN_POINT('',(0.86665551174,4.09669431231,2.906054251446));
#769 = CARTESIAN_POINT('',(-1.847311544925,3.313064053365,2.959179287663
    ));
#770 = CARTESIAN_POINT('',(-3.10606072575,1.285022259925,3.012304243819)
  );
#771 = CARTESIAN_POINT('',(-2.805776996791,-0.711680677246,
    3.065429270704));
#772 = CARTESIAN_POINT('',(-1.606783290196,-1.849623527586,
    3.118554262443));
#773 = CARTESIAN_POINT('',(1.052013340641,-2.21271820356,3.224804262445)
  );
#774 = CARTESIAN_POINT('',(2.51221706683,-1.437934283668,3.277929270694)
  );
#775 = CARTESIAN_POINT('',(3.336877673981,0.405165947929,3.331054243848)
  );
#776 = CARTESIAN_POINT('',(2.667996446712,2.69640338062,3.384179287612)
  );
#777 = CARTESIAN_POINT('',(0.263504978078,4.179103792779,3.437304251514)
  );
#778 = CARTESIAN_POINT('',(-2.722539668996,3.181473528957,3.490429251453
    ));
#779 = CARTESIAN_POINT('',(-3.753002449296,0.551294822727,3.543554287657
    ));
#780 = CARTESIAN_POINT('',(-2.910326668214,-1.681931664595,
    3.596679243823));
#781 = CARTESIAN_POINT('',(-1.143434571563,-2.659216298644,
    3.649804270703));
#782 = CARTESIAN_POINT('',(0.489257312064,-2.400726352152,3.702929262443
    ));
#783 = CARTESIAN_POINT('',(2.395892522466,-0.512399197824,3.809179262445
    ));
#784 = CARTESIAN_POINT('',(2.670130818857,1.117716872515,3.862304270695)
  );
#785 = CARTESIAN_POINT('',(1.709922662487,2.893972449208,3.915429243846)
  );
#786 = CARTESIAN_POINT('',(-0.515027298088,3.758130270199,3.96855428761)
  );
#787 = CARTESIAN_POINT('',(-3.15509428836,2.753129747942,4.021679251526)
  );
#788 = CARTESIAN_POINT('',(-4.181409788136,-0.223177564084,
    4.074804251426));
#789 = CARTESIAN_POINT('',(-2.72205472596,-2.641850010113,4.127929287696
    ));
#790 = CARTESIAN_POINT('',(-0.437328514685,-3.332812502752,
    4.181054243782));
#791 = CARTESIAN_POINT('',(1.413619267455,-2.525975954094,4.234179270736
    ));
#792 = CARTESIAN_POINT('',(2.202465252202,-1.073315679952,4.287304262422
    ));
#793 = CARTESIAN_POINT('',(1.865040568592,1.588860463695,4.393554262487)
  );
#794 = CARTESIAN_POINT('',(0.738728252055,2.798780148679,4.446679270449)
  );
#795 = CARTESIAN_POINT('',(-1.255007784693,3.11831159017,4.499804244558)
  );
#796 = CARTESIAN_POINT('',(-3.295053876886,1.879206269487,4.552929286147
    ));
#797 = CARTESIAN_POINT('',(-4.104904518592,-0.827105623436,
    4.606054253873));
#798 = CARTESIAN_POINT('',(-2.368422162845,-3.45319701373,4.659179248365
    ));
#799 = CARTESIAN_POINT('',(0.43883842204,-3.767807923467,4.712304291001)
  );
#800 = CARTESIAN_POINT('',(2.377869365426,-2.375843444808,4.765429240807
    ));
#801 = CARTESIAN_POINT('',(2.864548221951,-0.416217384985,4.818554272964
    ));
#802 = CARTESIAN_POINT('',(2.19229455068,1.093940114107,4.871679261048)
  );
#803 = CARTESIAN_POINT('',(1.033565701943,1.770406486799,4.924804263135)
  );
#804 = PCURVE('',#65,#805);
#805 = DEFINITIONAL_REPRESENTATION('',(#806),#809);
#806 = B_SPLINE_CURVE_WITH_KNOTS('',1,(#807,#808),.UNSPECIFIED.,.F.,.F.,
  (2,2),(0.,57.785286418579),.PIECEWISE_BEZIER_KNOTS.);
#807 = CARTESIAN_POINT('',(6.28318530718,0.));
#808 = CARTESIAN_POINT('',(6.28318530718,57.785286418579));
#809 = ( GEOMETRIC_REPRESENTATION_CONTEXT(2) 
PARAMETRIC_REPRESENTATION_CONTEXT() REPRESENTATION_CONTEXT('2D SPACE',''
  ) );
#810 = PCURVE('',#65,#811);
#811 = DEFINITIONAL_REPRESENTATION('',(#812),#816);
#812 = LINE('',#813,#814);
#813 = CARTESIAN_POINT('',(0.,0.));
#814 = VECTOR('',#815,1.);
#815 = DIRECTION('',(0.,1.));
#816 = ( GEOMETRIC_REPRESENTATION_CONTEXT(2) 
PARAMETRIC_REPRESENTATION_CONTEXT() REPRESENTATION_CONTEXT('2D SPACE',''
  ) );
#817 = ORIENTED_EDGE('',*,*,#818,.F.);
#818 = EDGE_CURVE('',#718,#718,#819,.T.);
#819 = SURFACE_CURVE('',#820,(#828,#835),.PCURVE_S1.);
#820 = ( BOUNDED_CURVE() B_SPLINE_CURVE(6,(#821,#822,#823,#824,#825,#826
,#827),.UNSPECIFIED.,.T.,.F.) B_SPLINE_CURVE_WITH_KNOTS((1,6,6,1),(
    -6.28318530718,0.,6.28318530718,12.566370614359),.UNSPECIFIED.) 
CURVE() GEOMETRIC_REPRESENTATION_ITEM() RATIONAL_B_SPLINE_CURVE((
    1.669078461068,1.03672962321,1.038346699848,0.853534330196,
1.038346699848,1.03672962321,1.669078461068)) REPRESENTATION_ITEM('') );
#821 = CARTESIAN_POINT('',(1.033565701943,1.770406486799,4.924804263135)
  );
#822 = CARTESIAN_POINT('',(1.241258595295,2.130141109889,4.924804522856)
  );
#823 = CARTESIAN_POINT('',(1.253481112605,2.191953834359,4.411569663332)
  );
#824 = CARTESIAN_POINT('',(1.001451883848,1.788948085547,3.988258873276)
  );
#825 = CARTESIAN_POINT('',(0.778452996425,1.369181049151,4.411569069308)
  );
#826 = CARTESIAN_POINT('',(0.825872808591,1.410671863709,4.924804003414)
  );
#827 = CARTESIAN_POINT('',(1.033565701943,1.770406486799,4.924804263135)
  );
#828 = PCURVE('',#65,#829);
#829 = DEFINITIONAL_REPRESENTATION('',(#830),#834);
#830 = LINE('',#831,#832);
#831 = CARTESIAN_POINT('',(0.,57.785286418579));
#832 = VECTOR('',#833,1.);
#833 = DIRECTION('',(1.,0.));
#834 = ( GEOMETRIC_REPRESENTATION_CONTEXT(2) 
PARAMETRIC_REPRESENTATION_CONTEXT() REPRESENTATION_CONTEXT('2D SPACE',''
  ) );
#835 = PCURVE('',#836,#841);
#836 = CYLINDRICAL_SURFACE('',#837,0.25);
#837 = AXIS2_PLACEMENT_3D('',#838,#839,#840);
#838 = CARTESIAN_POINT('',(1.025,1.775352077758,4.675));
#839 = DIRECTION('',(-0.865347351394,0.499608526269,3.956364385361E-02)
  );
#840 = DIRECTION('',(3.426280777238E-02,-1.978236383547E-02,
    0.999217052539));
#841 = DEFINITIONAL_REPRESENTATION('',(#842),#851);
#842 = B_SPLINE_CURVE_WITH_KNOTS('',7,(#843,#844,#845,#846,#847,#848,
    #849,#850),.UNSPECIFIED.,.F.,.F.,(8,8),(0.,6.28318530718),
  .PIECEWISE_BEZIER_KNOTS.);
#843 = CARTESIAN_POINT('',(-4.440892098501E-16,0.));
#844 = CARTESIAN_POINT('',(0.884613515882,0.));
#845 = CARTESIAN_POINT('',(1.812401526393,0.));
#846 = CARTESIAN_POINT('',(2.676448690539,0.));
#847 = CARTESIAN_POINT('',(3.606736616642,0.));
#848 = CARTESIAN_POINT('',(4.470783780784,0.));
#849 = CARTESIAN_POINT('',(5.398571791298,0.));
#850 = CARTESIAN_POINT('',(6.28318530718,0.));
#851 = ( GEOMETRIC_REPRESENTATION_CONTEXT(2) 
PARAMETRIC_REPRESENTATION_CONTEXT() REPRESENTATION_CONTEXT('2D SPACE',''
  ) );
#852 = ORIENTED_EDGE('',*,*,#717,.F.);
#853 = ORIENTED_EDGE('',*,*,#50,.T.);
#854 = ADVANCED_FACE('',(#855),#836,.T.);
#855 = FACE_BOUND('',#856,.T.);
#856 = EDGE_LOOP('',(#857,#879,#906,#907));
#857 = ORIENTED_EDGE('',*,*,#858,.T.);
#858 = EDGE_CURVE('',#718,#859,#861,.T.);
#859 = VERTEX_POINT('',#860);
#860 = CARTESIAN_POINT('',(-5.889213109207,5.767274696953,5.241313413964
    ));
#861 = SEAM_CURVE('',#862,(#866,#872),.PCURVE_S1.);
#862 = LINE('',#863,#864);
#863 = CARTESIAN_POINT('',(1.033565701943,1.770406486799,4.924804263135)
  );
#864 = VECTOR('',#865,1.);
#865 = DIRECTION('',(-0.865347351394,0.499608526269,3.956364385361E-02)
  );
#866 = PCURVE('',#836,#867);
#867 = DEFINITIONAL_REPRESENTATION('',(#868),#871);
#868 = B_SPLINE_CURVE_WITH_KNOTS('',1,(#869,#870),.UNSPECIFIED.,.F.,.F.,
  (2,2),(0.,8.),.PIECEWISE_BEZIER_KNOTS.);
#869 = CARTESIAN_POINT('',(6.28318530718,0.));
#870 = CARTESIAN_POINT('',(6.28318530718,8.));
#871 = ( GEOMETRIC_REPRESENTATION_CONTEXT(2) 
PARAMETRIC_REPRESENTATION_CONTEXT() REPRESENTATION_CONTEXT('2D SPACE',''
  ) );
#872 = PCURVE('',#836,#873);
#873 = DEFINITIONAL_REPRESENTATION('',(#874),#878);
#874 = LINE('',#875,#876);
#875 = CARTESIAN_POINT('',(0.,0.));
#876 = VECTOR('',#877,1.);
#877 = DIRECTION('',(0.,1.));
#878 = ( GEOMETRIC_REPRESENTATION_CONTEXT(2) 
PARAMETRIC_REPRESENTATION_CONTEXT() REPRESENTATION_CONTEXT('2D SPACE',''
  ) );
#879 = ORIENTED_EDGE('',*,*,#880,.F.);
#880 = EDGE_CURVE('',#859,#859,#881,.T.);
#881 = SURFACE_CURVE('',#882,(#887,#894),.PCURVE_S1.);
#882 = CIRCLE('',#883,0.25);
#883 = AXIS2_PLACEMENT_3D('',#884,#885,#886);
#884 = CARTESIAN_POINT('',(-5.89777881115,5.772220287912,4.991509150829)
  );
#885 = DIRECTION('',(-0.865347351394,0.499608526269,3.956364385361E-02)
  );
#886 = DIRECTION('',(3.426280777238E-02,-1.978236383547E-02,
    0.999217052539));
#887 = PCURVE('',#836,#888);
#888 = DEFINITIONAL_REPRESENTATION('',(#889),#893);
#889 = LINE('',#890,#891);
#890 = CARTESIAN_POINT('',(0.,8.));
#891 = VECTOR('',#892,1.);
#892 = DIRECTION('',(1.,0.));
#893 = ( GEOMETRIC_REPRESENTATION_CONTEXT(2) 
PARAMETRIC_REPRESENTATION_CONTEXT() REPRESENTATION_CONTEXT('2D SPACE',''
  ) );
#894 = PCURVE('',#895,#900);
#895 = PLANE('',#896);
#896 = AXIS2_PLACEMENT_3D('',#897,#898,#899);
#897 = CARTESIAN_POINT('',(-5.89777881115,5.772220287912,4.991509150829)
  );
#898 = DIRECTION('',(-0.865347351394,0.499608526269,3.956364385361E-02)
  );
#899 = DIRECTION('',(-0.5,-0.866025403785,0.));
#900 = DEFINITIONAL_REPRESENTATION('',(#901),#905);
#901 = CIRCLE('',#902,0.25);
#902 = AXIS2_PLACEMENT_2D('',#903,#904);
#903 = CARTESIAN_POINT('',(0.,-8.874830226616E-16));
#904 = DIRECTION('',(6.257422512368E-07,1.));
#905 = ( GEOMETRIC_REPRESENTATION_CONTEXT(2) 
PARAMETRIC_REPRESENTATION_CONTEXT() REPRESENTATION_CONTEXT('2D SPACE',''
  ) );
#906 = ORIENTED_EDGE('',*,*,#858,.F.);
#907 = ORIENTED_EDGE('',*,*,#818,.T.);
#908 = ADVANCED_FACE('',(#909),#702,.F.);
#909 = FACE_BOUND('',#910,.F.);
#910 = EDGE_LOOP('',(#911));
#911 = ORIENTED_EDGE('',*,*,#687,.T.);
#912 = ADVANCED_FACE('',(#913),#895,.T.);
#913 = FACE_BOUND('',#914,.T.);
#914 = EDGE_LOOP('',(#915));
#915 = ORIENTED_EDGE('',*,*,#880,.T.);
#916 = ( GEOMETRIC_REPRESENTATION_CONTEXT(3) 
GLOBAL_UNCERTAINTY_ASSIGNED_CONTEXT((#920)) GLOBAL_UNIT_ASSIGNED_CONTEXT
((#917,#918,#919)) REPRESENTATION_CONTEXT('Context #1',
  '3D Context with UNIT and UNCERTAINTY') );
#917 = ( LENGTH_UNIT() NAMED_UNIT(*) SI_UNIT(.MILLI.,.METRE.) );
#918 = ( NAMED_UNIT(*) PLANE_ANGLE_UNIT() SI_UNIT($,.RADIAN.) );
#919 = ( NAMED_UNIT(*) SI_UNIT($,.STERADIAN.) SOLID_ANGLE_UNIT() );
#920 = UNCERTAINTY_MEASURE_WITH_UNIT(LENGTH_MEASURE(1.E-05),#917,
  'distance_accuracy_value','confusion accuracy');
#921 = PRODUCT_RELATED_PRODUCT_CATEGORY('part',$,(#7));
ENDSEC;
END-ISO-10303-21;
