<svg xmlns="http://www.w3.org/2000/svg" viewBox="0 0 561.06 506.18804290268855" width="561.06" height="506.18804290268855">
<style>
 .wall{fill:#2b2f33} .wallc{fill:#cfcac0;stroke:#2b2f33;stroke-width:1.2}
 .ins{fill:url(#ins)} .thin{stroke:#2b2f33;stroke-width:.8;fill:none}
 .open{fill:#fff;stroke:none} .glass{stroke:#3b82c4;stroke-width:1.2;fill:none}
 .swing{stroke:#555;stroke-width:.8;fill:none;stroke-dasharray:4 3}
 .furn{fill:#f6f3ec;stroke:#7a6f60;stroke-width:1} .furnhi{fill:none;stroke:#7a6f60;stroke-width:1;stroke-dasharray:6 4}
 .art{fill:#fff;stroke:#3a4a5a;stroke-width:1.2}
 .lbl{font-size:12px;fill:#333} .lbls{font-size:10px;fill:#555} .room{font-size:15px;font-weight:600;fill:#222}
 .area{font-size:12px;fill:#666} .dim{stroke:#a33;stroke-width:.8;fill:none} .dimt{font-size:11px;fill:#a33}
 .ttl{font-size:20px;font-weight:700;fill:#1f2933} .sub{font-size:12px;fill:#52606d}
 .stair{stroke:#555;stroke-width:.8;fill:#efe7dc} .staird{stroke:#777;stroke-width:.8;fill:none;stroke-dasharray:5 4}
 .ghost{opacity:.35} .grid{stroke:#e6e2da;stroke-width:.5}
</style>
<defs>
 <pattern id="ins" width="10" height="10" patternUnits="userSpaceOnUse" patternTransform="rotate(45)"><rect width="10" height="10" fill="#f6e7a5"/><line x1="0" y1="0" x2="0" y2="10" stroke="#d8b84c" stroke-width="2"/></pattern>
 <marker id="arr" viewBox="0 0 10 10" refX="9" refY="5" markerWidth="7" markerHeight="7" orient="auto-start-reverse"><path d="M0,0 L10,5 L0,10 z" fill="#333"/></marker>
 <marker id="tick" viewBox="0 0 10 10" refX="5" refY="5" markerWidth="8" markerHeight="8" orient="auto"><path d="M2,8 L8,2" stroke="#a33" stroke-width="1.4"/></marker>
</defs><rect width="100%" height="100%" fill="#fff"/><text x="24" y="30" class="ttl" font-family='Inter, Arial, sans-serif'>Muro frente PA (hastial) — entramado</text><text x="24" y="50" class="sub" font-family='Inter, Arial, sans-serif'>28 piezas · 39,87 ml · 2x6 @40</text><text x="24" y="66" class="sub" font-family='Inter, Arial, sans-serif'>izquierda = lateral ciego</text><polygon points="60,466.19 501,466.19 501,460.79 60,460.79" fill="#d9a95a" stroke="#7d5a26" stroke-width=".7"><title>2x6 — 367.5 cm — solera inferior</title></polygon><polygon points="60,220.42 275.1,96.24 275.1,90 60,214.19 60,220.42" fill="#d9a95a" stroke="#7d5a26" stroke-width=".7"><title>2x6 — 207 cm — solera inclinada hastial</title></polygon><polygon points="285.9,96.24 501,220.42 501,214.19 285.9,90 285.9,96.24" fill="#d9a95a" stroke="#7d5a26" stroke-width=".7"><title>2x6 — 207 cm — solera inclinada hastial</title></polygon><polygon points="272.4,460.79 288.6,460.79 288.6,108.05 272.4,108.05" fill="#f1dcb3" stroke="#7d5a26" stroke-width=".7"><title>2x6 — 294 cm — poste cumbrera (x3)</title></polygon><polygon points="60.06,460.79 65.46,460.79 65.46,217.27 60.06,220.39 60.06,460.79" fill="#f1dcb3" stroke="#7d5a26" stroke-width=".7"><title>2x6 — 202.9 cm — montante</title></polygon><polygon points="124.26,460.79 129.66,460.79 129.66,180.21 124.26,183.32 124.26,460.79" fill="#f1dcb3" stroke="#7d5a26" stroke-width=".7"><title>2x6 — 233.8 cm — montante</title></polygon><polygon points="172.26,460.79 177.66,460.79 177.66,152.49 172.26,155.61 172.26,460.79" fill="#f1dcb3" stroke="#7d5a26" stroke-width=".7"><title>2x6 — 256.9 cm — montante</title></polygon><polygon points="220.26,460.79 225.66,460.79 225.66,124.78 220.26,127.9 220.26,460.79" fill="#f1dcb3" stroke="#7d5a26" stroke-width=".7"><title>2x6 — 280 cm — montante</title></polygon><polygon points="364.26,460.79 369.66,460.79 369.66,368.39 364.26,368.39" fill="#e9c88e" stroke="#7d5a26" stroke-width=".7"><title>2x6 — 77 cm — montante bajo antepecho</title></polygon><polygon points="364.26,208.19 369.66,208.19 369.66,144.59 364.26,141.48 364.26,208.19" fill="#c98f3d" stroke="#7d5a26" stroke-width=".7"><title>2x6 — 55.6 cm — montante sobre dintel</title></polygon><polygon points="412.26,460.79 417.66,460.79 417.66,368.39 412.26,368.39" fill="#e9c88e" stroke="#7d5a26" stroke-width=".7"><title>2x6 — 77 cm — montante bajo antepecho</title></polygon><polygon points="412.26,208.19 417.66,208.19 417.66,172.31 412.26,169.19 412.26,208.19" fill="#c98f3d" stroke="#7d5a26" stroke-width=".7"><title>2x6 — 32.5 cm — montante sobre dintel</title></polygon><polygon points="460.14,460.79 465.54,460.79 465.54,368.39 460.14,368.39" fill="#e9c88e" stroke="#7d5a26" stroke-width=".7"><title>2x6 — 77 cm — montante bajo antepecho</title></polygon><polygon points="460.14,208.19 465.54,208.19 465.54,199.95 460.14,196.83 460.14,208.19" fill="#c98f3d" stroke="#7d5a26" stroke-width=".7"><title>2x6 — 9.5 cm — montante sobre dintel</title></polygon><polygon points="495.66,460.79 501.06,460.79 501.06,220.46 495.66,217.34 495.66,460.79" fill="#f1dcb3" stroke="#7d5a26" stroke-width=".7"><title>2x6 — 202.9 cm — montante</title></polygon><polygon points="314.1,460.79 319.5,460.79 319.5,115.63 314.1,112.52 314.1,460.79" fill="#e0b36b" stroke="#7d5a26" stroke-width=".7"><title>2x6 — 290.2 cm — montante king V4</title></polygon><polygon points="319.5,460.79 324.9,460.79 324.9,225.59 319.5,225.59" fill="#e0b36b" stroke="#7d5a26" stroke-width=".7"><title>2x6 — 196 cm — montante jack V4</title></polygon><polygon points="474.3,460.79 479.7,460.79 479.7,208.13 474.3,205.01 474.3,460.79" fill="#e0b36b" stroke="#7d5a26" stroke-width=".7"><title>2x6 — 213.1 cm — montante king V4</title></polygon><polygon points="468.9,460.79 474.3,460.79 474.3,225.59 468.9,225.59" fill="#e0b36b" stroke="#7d5a26" stroke-width=".7"><title>2x6 — 196 cm — montante jack V4</title></polygon><polygon points="319.5,225.59 474.3,225.59 474.3,208.19 319.5,208.19" fill="#c98f3d" stroke="#7d5a26" stroke-width=".7"><title>2x6 — 129 cm — dintel V4 (x2)</title></polygon><polygon points="324.9,368.39 468.9,368.39 468.9,357.59 324.9,357.59" fill="#e9c88e" stroke="#7d5a26" stroke-width=".7"><title>2x6 — 120 cm — antepecho V4 (x2)</title></polygon><polygon points="65.46,349.55 124.26,349.55 124.26,344.15 65.46,344.15" fill="#e9c88e" stroke="#7d5a26" stroke-width=".7"><title>2x6 — 49 cm — bloqueo junta OSB</title></polygon><polygon points="129.66,349.55 172.26,349.55 172.26,344.15 129.66,344.15" fill="#e9c88e" stroke="#7d5a26" stroke-width=".7"><title>2x6 — 35.5 cm — bloqueo junta OSB</title></polygon><polygon points="177.66,349.55 220.26,349.55 220.26,344.15 177.66,344.15" fill="#e9c88e" stroke="#7d5a26" stroke-width=".7"><title>2x6 — 35.5 cm — bloqueo junta OSB</title></polygon><polygon points="129.66,203.15 172.26,203.15 172.26,197.75 129.66,197.75" fill="#e9c88e" stroke="#7d5a26" stroke-width=".7"><title>2x6 — 35.5 cm — bloqueo junta OSB</title></polygon><polygon points="177.66,203.15 220.26,203.15 220.26,197.75 177.66,197.75" fill="#e9c88e" stroke="#7d5a26" stroke-width=".7"><title>2x6 — 35.5 cm — bloqueo junta OSB</title></polygon><polygon points="321.66,203.15 364.26,203.15 364.26,197.75 321.66,197.75" fill="#e9c88e" stroke="#7d5a26" stroke-width=".7"><title>2x6 — 35.5 cm — bloqueo junta OSB</title></polygon><polygon points="369.66,203.15 412.26,203.15 412.26,197.75 369.66,197.75" fill="#e9c88e" stroke="#7d5a26" stroke-width=".7"><title>2x6 — 35.5 cm — bloqueo junta OSB</title></polygon><rect x="324.9" y="225.58804290268856" width="144.00000000000003" height="132" fill="#eef6fb" stroke="#3b82c4" stroke-dasharray="4 3"/><text x="396.90000000000003" y="291.5880429026885" font-size="12" text-anchor="middle" fill="#3b82c4" font-family='Inter, Arial, sans-serif'>V4 120x110</text></svg>