<svg xmlns="http://www.w3.org/2000/svg" viewBox="0 0 561.06 420.7" width="561.06" height="420.7">
<style>
 .wall{fill:#2b2f33} .wallc{fill:#cfcac0;stroke:#2b2f33;stroke-width:1.2}
 .ins{fill:url(#ins)} .thin{stroke:#2b2f33;stroke-width:.8;fill:none}
 .open{fill:#fff;stroke:none} .glass{stroke:#3b82c4;stroke-width:1.2;fill:none}
 .swing{stroke:#555;stroke-width:.8;fill:none;stroke-dasharray:4 3}
 .furn{fill:#f6f3ec;stroke:#7a6f60;stroke-width:1} .furnhi{fill:none;stroke:#7a6f60;stroke-width:1;stroke-dasharray:6 4}
 .art{fill:#fff;stroke:#3a4a5a;stroke-width:1.2}
 .lbl{font-size:12px;fill:#333} .lbls{font-size:10px;fill:#555} .room{font-size:15px;font-weight:600;fill:#222}
 .area{font-size:12px;fill:#666} .dim{stroke:#a33;stroke-width:.8;fill:none} .dimt{font-size:11px;fill:#a33}
 .ttl{font-size:20px;font-weight:700;fill:#1f2933} .sub{font-size:12px;fill:#52606d}
 .stair{stroke:#555;stroke-width:.8;fill:#efe7dc} .staird{stroke:#777;stroke-width:.8;fill:none;stroke-dasharray:5 4}
 .ghost{opacity:.35} .grid{stroke:#e6e2da;stroke-width:.5}
</style>
<defs>
 <pattern id="ins" width="10" height="10" patternUnits="userSpaceOnUse" patternTransform="rotate(45)"><rect width="10" height="10" fill="#f6e7a5"/><line x1="0" y1="0" x2="0" y2="10" stroke="#d8b84c" stroke-width="2"/></pattern>
 <marker id="arr" viewBox="0 0 10 10" refX="9" refY="5" markerWidth="7" markerHeight="7" orient="auto-start-reverse"><path d="M0,0 L10,5 L0,10 z" fill="#333"/></marker>
 <marker id="tick" viewBox="0 0 10 10" refX="5" refY="5" markerWidth="8" markerHeight="8" orient="auto"><path d="M2,8 L8,2" stroke="#a33" stroke-width="1.4"/></marker>
</defs><rect width="100%" height="100%" fill="#fff"/><text x="24" y="30" class="ttl" font-family='Inter, Arial, sans-serif'>Muro frente PB — entramado</text><text x="24" y="50" class="sub" font-family='Inter, Arial, sans-serif'>27 piezas · 41,59 ml · 2x6 @40</text><text x="24" y="66" class="sub" font-family='Inter, Arial, sans-serif'>izquierda = lateral ciego</text><polygon points="60,380.7 501,380.7 501,375.3 60,375.3" fill="#d9a95a" stroke="#7d5a26" stroke-width=".7"><title>2x6 — 367.5 cm — solera inferior</title></polygon><polygon points="60,95.4 501,95.4 501,90 60,90" fill="#d9a95a" stroke="#7d5a26" stroke-width=".7"><title>2x6 — 367.5 cm — solera superior</title></polygon><polygon points="60,100.8 501,100.8 501,95.4 60,95.4" fill="#d9a95a" stroke="#7d5a26" stroke-width=".7"><title>2x6 — 367.5 cm — solera superior (doble)</title></polygon><polygon points="60.06,375.3 65.46,375.3 65.46,100.8 60.06,100.8" fill="#f1dcb3" stroke="#7d5a26" stroke-width=".7"><title>2x6 — 228.8 cm — montante</title></polygon><polygon points="124.26,375.3 129.66,375.3 129.66,100.8 124.26,100.8" fill="#f1dcb3" stroke="#7d5a26" stroke-width=".7"><title>2x6 — 228.8 cm — montante</title></polygon><polygon points="172.26,375.3 177.66,375.3 177.66,100.8 172.26,100.8" fill="#f1dcb3" stroke="#7d5a26" stroke-width=".7"><title>2x6 — 228.8 cm — montante</title></polygon><polygon points="220.26,375.3 225.66,375.3 225.66,277.5 220.26,277.5" fill="#e9c88e" stroke="#7d5a26" stroke-width=".7"><title>2x6 — 81.5 cm — montante bajo antepecho</title></polygon><polygon points="220.26,105.3 225.66,105.3 225.66,100.8 220.26,100.8" fill="#c98f3d" stroke="#7d5a26" stroke-width=".7"><title>2x6 — 3.8 cm — montante sobre dintel</title></polygon><polygon points="268.26,375.3 273.66,375.3 273.66,277.5 268.26,277.5" fill="#e9c88e" stroke="#7d5a26" stroke-width=".7"><title>2x6 — 81.5 cm — montante bajo antepecho</title></polygon><polygon points="268.26,105.3 273.66,105.3 273.66,100.8 268.26,100.8" fill="#c98f3d" stroke="#7d5a26" stroke-width=".7"><title>2x6 — 3.8 cm — montante sobre dintel</title></polygon><polygon points="316.26,375.3 321.66,375.3 321.66,277.5 316.26,277.5" fill="#e9c88e" stroke="#7d5a26" stroke-width=".7"><title>2x6 — 81.5 cm — montante bajo antepecho</title></polygon><polygon points="316.26,105.3 321.66,105.3 321.66,100.8 316.26,100.8" fill="#c98f3d" stroke="#7d5a26" stroke-width=".7"><title>2x6 — 3.8 cm — montante sobre dintel</title></polygon><polygon points="364.26,375.3 369.66,375.3 369.66,277.5 364.26,277.5" fill="#e9c88e" stroke="#7d5a26" stroke-width=".7"><title>2x6 — 81.5 cm — montante bajo antepecho</title></polygon><polygon points="364.26,105.3 369.66,105.3 369.66,100.8 364.26,100.8" fill="#c98f3d" stroke="#7d5a26" stroke-width=".7"><title>2x6 — 3.8 cm — montante sobre dintel</title></polygon><polygon points="412.26,375.3 417.66,375.3 417.66,100.8 412.26,100.8" fill="#f1dcb3" stroke="#7d5a26" stroke-width=".7"><title>2x6 — 228.8 cm — montante</title></polygon><polygon points="460.14,375.3 465.54,375.3 465.54,100.8 460.14,100.8" fill="#f1dcb3" stroke="#7d5a26" stroke-width=".7"><title>2x6 — 228.8 cm — montante</title></polygon><polygon points="495.66,375.3 501.06,375.3 501.06,100.8 495.66,100.8" fill="#f1dcb3" stroke="#7d5a26" stroke-width=".7"><title>2x6 — 228.8 cm — montante</title></polygon><polygon points="194.1,375.3 199.5,375.3 199.5,100.8 194.1,100.8" fill="#e0b36b" stroke="#7d5a26" stroke-width=".7"><title>2x6 — 228.8 cm — montante king V1</title></polygon><polygon points="199.5,375.3 204.9,375.3 204.9,128.7 199.5,128.7" fill="#e0b36b" stroke="#7d5a26" stroke-width=".7"><title>2x6 — 205.5 cm — montante jack V1</title></polygon><polygon points="402.3,375.3 407.7,375.3 407.7,100.8 402.3,100.8" fill="#e0b36b" stroke="#7d5a26" stroke-width=".7"><title>2x6 — 228.8 cm — montante king V1</title></polygon><polygon points="396.9,375.3 402.3,375.3 402.3,128.7 396.9,128.7" fill="#e0b36b" stroke="#7d5a26" stroke-width=".7"><title>2x6 — 205.5 cm — montante jack V1</title></polygon><polygon points="199.5,128.7 402.3,128.7 402.3,105.3 199.5,105.3" fill="#c98f3d" stroke="#7d5a26" stroke-width=".7"><title>2x8 — 169 cm — dintel V1 (x2)</title></polygon><polygon points="204.9,277.5 396.9,277.5 396.9,266.7 204.9,266.7" fill="#e9c88e" stroke="#7d5a26" stroke-width=".7"><title>2x6 — 160 cm — antepecho V1 (x2)</title></polygon><polygon points="65.46,240.6 124.26,240.6 124.26,235.2 65.46,235.2" fill="#e9c88e" stroke="#7d5a26" stroke-width=".7"><title>2x6 — 49 cm — bloqueo junta OSB</title></polygon><polygon points="129.66,240.6 172.26,240.6 172.26,235.2 129.66,235.2" fill="#e9c88e" stroke="#7d5a26" stroke-width=".7"><title>2x6 — 35.5 cm — bloqueo junta OSB</title></polygon><polygon points="417.66,240.6 460.14,240.6 460.14,235.2 417.66,235.2" fill="#e9c88e" stroke="#7d5a26" stroke-width=".7"><title>2x6 — 35.4 cm — bloqueo junta OSB</title></polygon><polygon points="465.54,240.6 495.66,240.6 495.66,235.2 465.54,235.2" fill="#e9c88e" stroke="#7d5a26" stroke-width=".7"><title>2x6 — 25.1 cm — bloqueo junta OSB</title></polygon><rect x="204.9" y="128.7" width="191.99999999999997" height="138.00000000000003" fill="#eef6fb" stroke="#3b82c4" stroke-dasharray="4 3"/><text x="300.90000000000003" y="197.7" font-size="12" text-anchor="middle" fill="#3b82c4" font-family='Inter, Arial, sans-serif'>V1 160x115</text></svg>