0
SECTION
2
ENTITIES
0
LINE
8
FLEX_LINEA_MEDIA
10
32.0000
20
5.0000
11
31.0000
21
5.0000
0
ARC
8
FLEX_LINEA_MEDIA
10
31.0000
20
8.6768
40
3.6768
50
-113.2399
51
-90.0000
0
LINE
8
FLEX_LINEA_MEDIA
10
29.5492
20
5.2983
11
26.8933
21
6.4388
0
ARC
8
FLEX_LINEA_MEDIA
10
25.3827
20
2.9210
40
3.8285
50
66.7601
51
153.3990
0
LINE
8
FLEX_LINEA_MEDIA
10
21.9595
20
4.6353
11
20.7689
21
2.2578
0
ARC
8
FLEX_LINEA_MEDIA
10
16.8562
20
4.2173
40
4.3759
50
-62.3104
51
-26.6010
0
ARC
8
FLEX_LINEA_MEDIA
10
17.5000
20
2.9904
40
2.9904
50
-90.0000
51
-62.3104
0
LINE
8
FLEX_LINEA_MEDIA
10
17.5000
20
-0.0000
11
16.5000
21
-0.0000
0
LINE
8
FLEX_CARA_A
10
32.0000
20
5.1000
11
31.0000
21
5.1000
0
ARC
8
FLEX_CARA_A
10
31.0000
20
8.6768
40
3.5768
50
-113.2399
51
-90.0000
0
LINE
8
FLEX_CARA_A
10
29.5887
20
5.3902
11
26.9328
21
6.5307
0
ARC
8
FLEX_CARA_A
10
25.3827
20
2.9210
40
3.9285
50
66.7601
51
153.3990
0
LINE
8
FLEX_CARA_A
10
21.8701
20
4.6801
11
20.6795
21
2.3026
0
ARC
8
FLEX_CARA_A
10
16.8562
20
4.2173
40
4.2759
50
-62.3104
51
-26.6010
0
ARC
8
FLEX_CARA_A
10
17.5000
20
2.9904
40
2.8904
50
-90.0000
51
-62.3104
0
LINE
8
FLEX_CARA_A
10
17.5000
20
0.1000
11
16.5000
21
0.1000
0
LINE
8
FLEX_CARA_B
10
32.0000
20
4.9000
11
31.0000
21
4.9000
0
ARC
8
FLEX_CARA_B
10
31.0000
20
8.6768
40
3.7768
50
-113.2399
51
-90.0000
0
LINE
8
FLEX_CARA_B
10
29.5098
20
5.2064
11
26.8539
21
6.3469
0
ARC
8
FLEX_CARA_B
10
25.3827
20
2.9210
40
3.7285
50
66.7601
51
153.3990
0
LINE
8
FLEX_CARA_B
10
22.0489
20
4.5905
11
20.8583
21
2.2131
0
ARC
8
FLEX_CARA_B
10
16.8562
20
4.2173
40
4.4759
50
-62.3104
51
-26.6010
0
ARC
8
FLEX_CARA_B
10
17.5000
20
2.9904
40
3.0904
50
-90.0000
51
-62.3104
0
LINE
8
FLEX_CARA_B
10
17.5000
20
-0.1000
11
16.5000
21
-0.1000
0
LINE
8
PLACA_CONECTOR_NOMINAL
10
0.0000
20
0.9000
11
16.5000
21
0.9000
0
LINE
8
PLACA_CONECTOR_NOMINAL
10
16.5000
20
0.9000
11
16.5000
21
-0.1000
0
LINE
8
PLACA_CONECTOR_NOMINAL
10
16.5000
20
-0.1000
11
0.0000
21
-0.1000
0
LINE
8
PLACA_CONECTOR_NOMINAL
10
0.0000
20
-0.1000
11
0.0000
21
0.9000
0
LINE
8
PLACA_CONECTOR_RETRAIDA
10
0.0000
20
12.9000
11
16.5000
21
12.9000
0
LINE
8
PLACA_CONECTOR_RETRAIDA
10
16.5000
20
12.9000
11
16.5000
21
11.9000
0
LINE
8
PLACA_CONECTOR_RETRAIDA
10
16.5000
20
11.9000
11
0.0000
21
11.9000
0
LINE
8
PLACA_CONECTOR_RETRAIDA
10
0.0000
20
11.9000
11
0.0000
21
12.9000
0
LINE
8
PESTANA_FIJA
10
32.0000
20
5.9000
11
46.0000
21
5.9000
0
LINE
8
PESTANA_FIJA
10
46.0000
20
5.9000
11
46.0000
21
4.9000
0
LINE
8
PESTANA_FIJA
10
46.0000
20
4.9000
11
32.0000
21
4.9000
0
LINE
8
PESTANA_FIJA
10
32.0000
20
4.9000
11
32.0000
21
5.9000
0
LINE
8
PLACA_CAMARA
10
22.0000
20
2.5000
11
46.0000
21
2.5000
0
LINE
8
PLACA_CAMARA
10
46.0000
20
2.5000
11
46.0000
21
1.5000
0
LINE
8
PLACA_CAMARA
10
46.0000
20
1.5000
11
22.0000
21
1.5000
0
LINE
8
PLACA_CAMARA
10
22.0000
20
1.5000
11
22.0000
21
2.5000
0
LINE
8
MODULO_CAMARA
10
21.1600
20
0.3800
11
29.6600
21
0.3800
0
LINE
8
MODULO_CAMARA
10
29.6600
20
0.3800
11
29.6600
21
-4.6700
0
LINE
8
MODULO_CAMARA
10
29.6600
20
-4.6700
11
21.1600
21
-4.6700
0
LINE
8
MODULO_CAMARA
10
21.1600
20
-4.6700
11
21.1600
21
0.3800
0
ENDSEC
0
EOF
