ISO-10303-21;
HEADER;
FILE_DESCRIPTION(('Open CASCADE Model'),'2;1');
FILE_NAME('Open CASCADE Shape Model','2026-10-06T16:00:44',('Author'),(
    'Open CASCADE'),'Open CASCADE STEP processor 7.9','Open CASCADE 7.9'
  ,'Unknown');
FILE_SCHEMA(('AUTOMOTIVE_DESIGN { 1 0 10303 214 1 1 1 1 }'));
ENDSEC;
DATA;
#1 = APPLICATION_PROTOCOL_DEFINITION('international standard',
  'automotive_design',2000,#2);
#2 = APPLICATION_CONTEXT(
  'core data for automotive mechanical design processes');
#3 = SHAPE_DEFINITION_REPRESENTATION(#4,#10);
#4 = PRODUCT_DEFINITION_SHAPE('','',#5);
#5 = PRODUCT_DEFINITION('design','',#6,#9);
#6 = PRODUCT_DEFINITION_FORMATION('','',#7);
#7 = PRODUCT('Open CASCADE STEP translator 7.9 10',
  'Open CASCADE STEP translator 7.9 10','',(#8));
#8 = PRODUCT_CONTEXT('',#2,'mechanical');
#9 = PRODUCT_DEFINITION_CONTEXT('part definition',#2,'design');
#10 = ADVANCED_BREP_SHAPE_REPRESENTATION('',(#11,#15),#553);
#11 = AXIS2_PLACEMENT_3D('',#12,#13,#14);
#12 = CARTESIAN_POINT('',(0.,0.,0.));
#13 = DIRECTION('',(0.,0.,1.));
#14 = DIRECTION('',(1.,0.,-0.));
#15 = MANIFOLD_SOLID_BREP('',#16);
#16 = CLOSED_SHELL('',(#17,#491,#517,#522,#548));
#17 = ADVANCED_FACE('',(#18),#33,.T.);
#18 = FACE_BOUND('',#19,.F.);
#19 = EDGE_LOOP('',(#20,#56,#79,#108,#277,#299,#300,#324));
#20 = ORIENTED_EDGE('',*,*,#21,.F.);
#21 = EDGE_CURVE('',#22,#24,#26,.T.);
#22 = VERTEX_POINT('',#23);
#23 = CARTESIAN_POINT('',(2.5,0.,0.));
#24 = VERTEX_POINT('',#25);
#25 = CARTESIAN_POINT('',(-2.6645352591E-14,2.5,0.));
#26 = SURFACE_CURVE('',#27,(#32,#44),.PCURVE_S1.);
#27 = CIRCLE('',#28,2.5);
#28 = AXIS2_PLACEMENT_3D('',#29,#30,#31);
#29 = CARTESIAN_POINT('',(0.,0.,0.));
#30 = DIRECTION('',(0.,0.,1.));
#31 = DIRECTION('',(1.,0.,0.));
#32 = PCURVE('',#33,#38);
#33 = CYLINDRICAL_SURFACE('',#34,2.5);
#34 = AXIS2_PLACEMENT_3D('',#35,#36,#37);
#35 = CARTESIAN_POINT('',(0.,0.,0.));
#36 = DIRECTION('',(-0.,-0.,-1.));
#37 = DIRECTION('',(1.,0.,0.));
#38 = DEFINITIONAL_REPRESENTATION('',(#39),#43);
#39 = LINE('',#40,#41);
#40 = CARTESIAN_POINT('',(-0.,0.));
#41 = VECTOR('',#42,1.);
#42 = DIRECTION('',(-1.,0.));
#43 = ( GEOMETRIC_REPRESENTATION_CONTEXT(2) 
PARAMETRIC_REPRESENTATION_CONTEXT() REPRESENTATION_CONTEXT('2D SPACE',''
  ) );
#44 = PCURVE('',#45,#50);
#45 = PLANE('',#46);
#46 = AXIS2_PLACEMENT_3D('',#47,#48,#49);
#47 = CARTESIAN_POINT('',(8.881784197001E-16,1.42108547152E-14,0.));
#48 = DIRECTION('',(0.,0.,1.));
#49 = DIRECTION('',(1.,0.,-0.));
#50 = DEFINITIONAL_REPRESENTATION('',(#51),#55);
#51 = CIRCLE('',#52,2.5);
#52 = AXIS2_PLACEMENT_2D('',#53,#54);
#53 = CARTESIAN_POINT('',(-8.881784197001E-16,-1.42108547152E-14));
#54 = DIRECTION('',(1.,0.));
#55 = ( GEOMETRIC_REPRESENTATION_CONTEXT(2) 
PARAMETRIC_REPRESENTATION_CONTEXT() REPRESENTATION_CONTEXT('2D SPACE',''
  ) );
#56 = ORIENTED_EDGE('',*,*,#57,.T.);
#57 = EDGE_CURVE('',#22,#58,#60,.T.);
#58 = VERTEX_POINT('',#59);
#59 = CARTESIAN_POINT('',(2.5,0.,13.));
#60 = SEAM_CURVE('',#61,(#65,#72),.PCURVE_S1.);
#61 = LINE('',#62,#63);
#62 = CARTESIAN_POINT('',(2.5,0.,0.));
#63 = VECTOR('',#64,1.);
#64 = DIRECTION('',(0.,0.,1.));
#65 = PCURVE('',#33,#66);
#66 = DEFINITIONAL_REPRESENTATION('',(#67),#71);
#67 = LINE('',#68,#69);
#68 = CARTESIAN_POINT('',(-6.28318530718,0.));
#69 = VECTOR('',#70,1.);
#70 = DIRECTION('',(-0.,-1.));
#71 = ( GEOMETRIC_REPRESENTATION_CONTEXT(2) 
PARAMETRIC_REPRESENTATION_CONTEXT() REPRESENTATION_CONTEXT('2D SPACE',''
  ) );
#72 = PCURVE('',#33,#73);
#73 = DEFINITIONAL_REPRESENTATION('',(#74),#78);
#74 = LINE('',#75,#76);
#75 = CARTESIAN_POINT('',(-0.,0.));
#76 = VECTOR('',#77,1.);
#77 = DIRECTION('',(-0.,-1.));
#78 = ( GEOMETRIC_REPRESENTATION_CONTEXT(2) 
PARAMETRIC_REPRESENTATION_CONTEXT() REPRESENTATION_CONTEXT('2D SPACE',''
  ) );
#79 = ORIENTED_EDGE('',*,*,#80,.T.);
#80 = EDGE_CURVE('',#58,#81,#83,.T.);
#81 = VERTEX_POINT('',#82);
#82 = CARTESIAN_POINT('',(-2.6645352591E-14,2.5,13.));
#83 = SURFACE_CURVE('',#84,(#89,#96),.PCURVE_S1.);
#84 = CIRCLE('',#85,2.5);
#85 = AXIS2_PLACEMENT_3D('',#86,#87,#88);
#86 = CARTESIAN_POINT('',(0.,0.,13.));
#87 = DIRECTION('',(0.,0.,1.));
#88 = DIRECTION('',(1.,0.,0.));
#89 = PCURVE('',#33,#90);
#90 = DEFINITIONAL_REPRESENTATION('',(#91),#95);
#91 = LINE('',#92,#93);
#92 = CARTESIAN_POINT('',(-0.,-13.));
#93 = VECTOR('',#94,1.);
#94 = DIRECTION('',(-1.,0.));
#95 = ( GEOMETRIC_REPRESENTATION_CONTEXT(2) 
PARAMETRIC_REPRESENTATION_CONTEXT() REPRESENTATION_CONTEXT('2D SPACE',''
  ) );
#96 = PCURVE('',#97,#102);
#97 = PLANE('',#98);
#98 = AXIS2_PLACEMENT_3D('',#99,#100,#101);
#99 = CARTESIAN_POINT('',(8.881784197001E-16,1.42108547152E-14,13.));
#100 = DIRECTION('',(0.,0.,1.));
#101 = DIRECTION('',(1.,0.,-0.));
#102 = DEFINITIONAL_REPRESENTATION('',(#103),#107);
#103 = CIRCLE('',#104,2.5);
#104 = AXIS2_PLACEMENT_2D('',#105,#106);
#105 = CARTESIAN_POINT('',(-8.881784197001E-16,-1.42108547152E-14));
#106 = DIRECTION('',(1.,0.));
#107 = ( GEOMETRIC_REPRESENTATION_CONTEXT(2) 
PARAMETRIC_REPRESENTATION_CONTEXT() REPRESENTATION_CONTEXT('2D SPACE',''
  ) );
#108 = ORIENTED_EDGE('',*,*,#109,.T.);
#109 = EDGE_CURVE('',#81,#110,#112,.T.);
#110 = VERTEX_POINT('',#111);
#111 = CARTESIAN_POINT('',(-2.84217094304E-14,-2.5,13.));
#112 = SURFACE_CURVE('',#113,(#164,#218),.PCURVE_S1.);
#113 = B_SPLINE_CURVE_WITH_KNOTS('',7,(#114,#115,#116,#117,#118,#119,
    #120,#121,#122,#123,#124,#125,#126,#127,#128,#129,#130,#131,#132,
    #133,#134,#135,#136,#137,#138,#139,#140,#141,#142,#143,#144,#145,
    #146,#147,#148,#149,#150,#151,#152,#153,#154,#155,#156,#157,#158,
    #159,#160,#161,#162,#163),.UNSPECIFIED.,.F.,.F.,(8,6,6,6,6,6,6,6,8),
  (0.,8.482373946603E-02,0.198050520399,0.249306391258,0.496320065942,
    0.751603904876,0.802171910711,0.867381952473,1.),.UNSPECIFIED.);
#114 = CARTESIAN_POINT('',(0.,2.5,13.));
#115 = CARTESIAN_POINT('',(-0.114199570469,2.5,13.));
#116 = CARTESIAN_POINT('',(-0.228227471619,2.493913935434,
    12.997659213082));
#117 = CARTESIAN_POINT('',(-0.341406886,2.481774804334,12.992990292646)
  );
#118 = CARTESIAN_POINT('',(-0.453066240421,2.463738407781,
    12.986083836253));
#119 = CARTESIAN_POINT('',(-0.562551393456,2.440082221604,
    12.977106732541));
#120 = CARTESIAN_POINT('',(-0.669237776148,2.411207025662,
    12.966293031744));
#121 = CARTESIAN_POINT('',(-0.910438549213,2.332836143747,
    12.937421023272));
#122 = CARTESIAN_POINT('',(-1.042304038204,2.279674993328,
    12.918149938687));
#123 = CARTESIAN_POINT('',(-1.167801796969,2.219074594223,
    12.896665982281));
#124 = CARTESIAN_POINT('',(-1.286683998416,2.151900594267,
    12.873527475168));
#125 = CARTESIAN_POINT('',(-1.398781192793,2.078977990789,
    12.849276302799));
#126 = CARTESIAN_POINT('',(-1.503993539887,2.001099576753,
    12.824420093851));
#127 = CARTESIAN_POINT('',(-1.646778774865,1.881881927096,
    12.788102059818));
#128 = CARTESIAN_POINT('',(-1.689895271782,1.843839362812,
    12.776744809217));
#129 = CARTESIAN_POINT('',(-1.731643736802,1.804958104339,
    12.765385735356));
#130 = CARTESIAN_POINT('',(-1.772034819486,1.765287721236,
    12.754060788597));
#131 = CARTESIAN_POINT('',(-1.811079797833,1.724873932063,
    12.742803821034));
#132 = CARTESIAN_POINT('',(-1.848790578272,1.683758604383,
    12.731646586492));
#133 = CARTESIAN_POINT('',(-2.060547111274,1.440637996297,12.66747304796
    ));
#134 = CARTESIAN_POINT('',(-2.205622137531,1.223421226026,
    12.617210075437));
#135 = CARTESIAN_POINT('',(-2.321165689628,0.994862594965,
    12.573289075924));
#136 = CARTESIAN_POINT('',(-2.407965797016,0.758326456829,12.53828146887
    ));
#137 = CARTESIAN_POINT('',(-2.466603780621,0.516480883602,
    12.513912799173));
#138 = CARTESIAN_POINT('',(-2.497317637519,0.27161774954,12.501117582274
    ));
#139 = CARTESIAN_POINT('',(-2.502498826565,-0.227994372694,
    12.498958889733));
#140 = CARTESIAN_POINT('',(-2.475034623784,-0.48144856489,
    12.510400093747));
#141 = CARTESIAN_POINT('',(-2.417775564404,-0.732007418456,
    12.534317967152));
#142 = CARTESIAN_POINT('',(-2.330482579866,-0.977153526812,12.5697626326
    ));
#143 = CARTESIAN_POINT('',(-2.212530120599,-1.213964318864,
    12.61487636747));
#144 = CARTESIAN_POINT('',(-2.063061038509,-1.438743843781,
    12.666835009984));
#145 = CARTESIAN_POINT('',(-1.845243210263,-1.687621877706,
    12.732695483933));
#146 = CARTESIAN_POINT('',(-1.807943579161,-1.728121692597,
    12.743708168613));
#147 = CARTESIAN_POINT('',(-1.769345189038,-1.767936402977,
    12.754815927531));
#148 = CARTESIAN_POINT('',(-1.729436621405,-1.807025672342,
    12.765988198715));
#149 = CARTESIAN_POINT('',(-1.688207071481,-1.845345504606,
    12.777192429123));
#150 = CARTESIAN_POINT('',(-1.645646348201,-1.882848244101,
    12.788394074646));
#151 = CARTESIAN_POINT('',(-1.545131667786,-1.966724428332,
    12.813951250231));
#152 = CARTESIAN_POINT('',(-1.486276676483,-2.012532493763,
    12.828283951157));
#153 = CARTESIAN_POINT('',(-1.425171322897,-2.056784258612,
    12.84247289296));
#154 = CARTESIAN_POINT('',(-1.361812333573,-2.099349260475,
    12.856430587327));
#155 = CARTESIAN_POINT('',(-1.296202014804,-2.140088872888,
    12.870064480698));
#156 = CARTESIAN_POINT('',(-1.228348528421,-2.178856090408,
    12.883277567407));
#157 = CARTESIAN_POINT('',(-1.015739255957,-2.290008718757,
    12.921779650063));
#158 = CARTESIAN_POINT('',(-0.862845703907,-2.356321025354,
    12.945640616342));
#159 = CARTESIAN_POINT('',(-0.700968234698,-2.412065779595,
    12.966364901536));
#160 = CARTESIAN_POINT('',(-0.531785783759,-2.455408658527,
    12.982849243786));
#161 = CARTESIAN_POINT('',(-0.35719521045,-2.48500840845,12.994234113061
    ));
#162 = CARTESIAN_POINT('',(-0.179233434908,-2.5,13.));
#163 = CARTESIAN_POINT('',(-8.881784197001E-16,-2.5,13.));
#164 = PCURVE('',#33,#165);
#165 = DEFINITIONAL_REPRESENTATION('',(#166),#217);
#166 = B_SPLINE_CURVE_WITH_KNOTS('',7,(#167,#168,#169,#170,#171,#172,
    #173,#174,#175,#176,#177,#178,#179,#180,#181,#182,#183,#184,#185,
    #186,#187,#188,#189,#190,#191,#192,#193,#194,#195,#196,#197,#198,
    #199,#200,#201,#202,#203,#204,#205,#206,#207,#208,#209,#210,#211,
    #212,#213,#214,#215,#216),.UNSPECIFIED.,.F.,.F.,(8,6,6,6,6,6,6,6,8),
  (0.,8.482373946603E-02,0.198050520399,0.249306391258,0.496320065942,
    0.751603904876,0.802171910711,0.867381952473,1.),.UNSPECIFIED.);
#167 = CARTESIAN_POINT('',(-1.570796326795,-13.));
#168 = CARTESIAN_POINT('',(-1.616476154983,-13.));
#169 = CARTESIAN_POINT('',(-1.662087309665,-12.99765921308));
#170 = CARTESIAN_POINT('',(-1.707514782772,-12.99299029264));
#171 = CARTESIAN_POINT('',(-1.752643437948,-12.98608383625));
#172 = CARTESIAN_POINT('',(-1.797352115675,-12.97710673254));
#173 = CARTESIAN_POINT('',(-1.841507192182,-12.96629303174));
#174 = CARTESIAN_POINT('',(-1.942952592716,-12.93742102327));
#175 = CARTESIAN_POINT('',(-1.999688310757,-12.91814993868));
#176 = CARTESIAN_POINT('',(-2.055239655496,-12.89666598228));
#177 = CARTESIAN_POINT('',(-2.109661994601,-12.87352747516));
#178 = CARTESIAN_POINT('',(-2.162995119297,-12.84927630279));
#179 = CARTESIAN_POINT('',(-2.215265424239,-12.82442009385));
#180 = CARTESIAN_POINT('',(-2.289670231952,-12.78810205981));
#181 = CARTESIAN_POINT('',(-2.312661851319,-12.77674480921));
#182 = CARTESIAN_POINT('',(-2.335468643282,-12.76538573535));
#183 = CARTESIAN_POINT('',(-2.358100061895,-12.75406078859));
#184 = CARTESIAN_POINT('',(-2.380565532254,-12.74280382103));
#185 = CARTESIAN_POINT('',(-2.402874450493,-12.73164658649));
#186 = CARTESIAN_POINT('',(-2.531838606347,-12.66747304796));
#187 = CARTESIAN_POINT('',(-2.635471138764,-12.61721007543));
#188 = CARTESIAN_POINT('',(-2.736755587194,-12.57328907592));
#189 = CARTESIAN_POINT('',(-2.836345479727,-12.53828146887));
#190 = CARTESIAN_POINT('',(-2.934872794719,-12.51391279917));
#191 = CARTESIAN_POINT('',(-3.032940083409,-12.50111758227));
#192 = CARTESIAN_POINT('',(-3.232795678238,-12.49895888973));
#193 = CARTESIAN_POINT('',(-3.334057861143,-12.51040009374));
#194 = CARTESIAN_POINT('',(-3.435750693882,-12.53431796715));
#195 = CARTESIAN_POINT('',(-3.538528562112,-12.5697626326));
#196 = CARTESIAN_POINT('',(-3.643080161694,-12.61487636747));
#197 = CARTESIAN_POINT('',(-3.750114607034,-12.66683500998));
#198 = CARTESIAN_POINT('',(-3.882408148568,-12.73269548393));
#199 = CARTESIAN_POINT('',(-3.904424782768,-12.74370816861));
#200 = CARTESIAN_POINT('',(-3.926594302026,-12.75481592753));
#201 = CARTESIAN_POINT('',(-3.948925728948,-12.76598819871));
#202 = CARTESIAN_POINT('',(-3.971428109058,-12.77719242912));
#203 = CARTESIAN_POINT('',(-3.994110510797,-12.78839407464));
#204 = CARTESIAN_POINT('',(-4.046476018926,-12.81395125023));
#205 = CARTESIAN_POINT('',(-4.076291040524,-12.82828395115));
#206 = CARTESIAN_POINT('',(-4.106440279984,-12.84247289296));
#207 = CARTESIAN_POINT('',(-4.136937268467,-12.85643058732));
#208 = CARTESIAN_POINT('',(-4.167796410687,-12.87006448069));
#209 = CARTESIAN_POINT('',(-4.199033516973,-12.8832775674));
#210 = CARTESIAN_POINT('',(-4.294998185077,-12.92177965006));
#211 = CARTESIAN_POINT('',(-4.361484884566,-12.94564061634));
#212 = CARTESIAN_POINT('',(-4.429632895309,-12.96636490153));
#213 = CARTESIAN_POINT('',(-4.499072567127,-12.98284924378));
#214 = CARTESIAN_POINT('',(-4.569510971137,-12.99423411306));
#215 = CARTESIAN_POINT('',(-4.640695606421,-13.));
#216 = CARTESIAN_POINT('',(-4.712388980385,-13.));
#217 = ( GEOMETRIC_REPRESENTATION_CONTEXT(2) 
PARAMETRIC_REPRESENTATION_CONTEXT() REPRESENTATION_CONTEXT('2D SPACE',''
  ) );
#218 = PCURVE('',#219,#224);
#219 = CYLINDRICAL_SURFACE('',#220,6.5);
#220 = AXIS2_PLACEMENT_3D('',#221,#222,#223);
#221 = CARTESIAN_POINT('',(0.,-95.,6.5));
#222 = DIRECTION('',(0.,1.,0.));
#223 = DIRECTION('',(0.,-0.,1.));
#224 = DEFINITIONAL_REPRESENTATION('',(#225),#276);
#225 = B_SPLINE_CURVE_WITH_KNOTS('',7,(#226,#227,#228,#229,#230,#231,
    #232,#233,#234,#235,#236,#237,#238,#239,#240,#241,#242,#243,#244,
    #245,#246,#247,#248,#249,#250,#251,#252,#253,#254,#255,#256,#257,
    #258,#259,#260,#261,#262,#263,#264,#265,#266,#267,#268,#269,#270,
    #271,#272,#273,#274,#275),.UNSPECIFIED.,.F.,.F.,(8,6,6,6,6,6,6,6,8),
  (0.,8.482373946603E-02,0.198050520399,0.249306391258,0.496320065942,
    0.751603904876,0.802171910711,0.867381952473,1.),.UNSPECIFIED.);
#226 = CARTESIAN_POINT('',(6.28318530718,97.5));
#227 = CARTESIAN_POINT('',(6.265616142492,97.5));
#228 = CARTESIAN_POINT('',(6.248073385232,97.493913935434));
#229 = CARTESIAN_POINT('',(6.230652321358,97.481774804334));
#230 = CARTESIAN_POINT('',(6.213447488254,97.463738407781));
#231 = CARTESIAN_POINT('',(6.196552175567,97.440082221604));
#232 = CARTESIAN_POINT('',(6.18005749301,97.411207025662));
#233 = CARTESIAN_POINT('',(6.142684780185,97.332836143747));
#234 = CARTESIAN_POINT('',(6.122189210031,97.279674993328));
#235 = CARTESIAN_POINT('',(6.102609934159,97.219074594223));
#236 = CARTESIAN_POINT('',(6.083984983641,97.151900594267));
#237 = CARTESIAN_POINT('',(6.066345522844,97.078977990789));
#238 = CARTESIAN_POINT('',(6.049715859906,97.001099576753));
#239 = CARTESIAN_POINT('',(6.027049448124,96.881881927096));
#240 = CARTESIAN_POINT('',(6.02019011353,96.843839362812));
#241 = CARTESIAN_POINT('',(6.013534120873,96.804958104339));
#242 = CARTESIAN_POINT('',(6.007080812799,96.765287721236));
#243 = CARTESIAN_POINT('',(6.00082947595,96.724873932063));
#244 = CARTESIAN_POINT('',(5.994779340959,96.683758604383));
#245 = CARTESIAN_POINT('',(5.960738268545,96.440637996297));
#246 = CARTESIAN_POINT('',(5.937135637276,96.223421226026));
#247 = CARTESIAN_POINT('',(5.918127414103,95.994862594965));
#248 = CARTESIAN_POINT('',(5.903729312987,95.758326456829));
#249 = CARTESIAN_POINT('',(5.893960087663,95.516480883602));
#250 = CARTESIAN_POINT('',(5.888841243825,95.27161774954));
#251 = CARTESIAN_POINT('',(5.887977720378,94.772005627306));
#252 = CARTESIAN_POINT('',(5.892554955862,94.51855143511));
#253 = CARTESIAN_POINT('',(5.902101682108,94.267992581544));
#254 = CARTESIAN_POINT('',(5.916595640562,94.022846473188));
#255 = CARTESIAN_POINT('',(5.936015038873,93.786035681136));
#256 = CARTESIAN_POINT('',(5.960339659247,93.561256156219));
#257 = CARTESIAN_POINT('',(5.995348435266,93.312378122294));
#258 = CARTESIAN_POINT('',(6.001331610702,93.271878307403));
#259 = CARTESIAN_POINT('',(6.007510580683,93.232063597023));
#260 = CARTESIAN_POINT('',(6.013886083756,93.192974327658));
#261 = CARTESIAN_POINT('',(6.020458802948,93.154654495394));
#262 = CARTESIAN_POINT('',(6.027229365762,93.117151755899));
#263 = CARTESIAN_POINT('',(6.043185199926,93.033275571668));
#264 = CARTESIAN_POINT('',(6.052503961854,92.987467506237));
#265 = CARTESIAN_POINT('',(6.062153991798,92.943215741388));
#266 = CARTESIAN_POINT('',(6.072134041641,92.900650739525));
#267 = CARTESIAN_POINT('',(6.082442303244,92.859911127112));
#268 = CARTESIAN_POINT('',(6.093076458371,92.821143909592));
#269 = CARTESIAN_POINT('',(6.126317593901,92.709991281243));
#270 = CARTESIAN_POINT('',(6.150117381803,92.643678974646));
#271 = CARTESIAN_POINT('',(6.175209140649,92.587934220405));
#272 = CARTESIAN_POINT('',(6.201337958016,92.544591341473));
#273 = CARTESIAN_POINT('',(6.228232162756,92.51499159155));
#274 = CARTESIAN_POINT('',(6.255610932578,92.5));
#275 = CARTESIAN_POINT('',(6.28318530718,92.5));
#276 = ( GEOMETRIC_REPRESENTATION_CONTEXT(2) 
PARAMETRIC_REPRESENTATION_CONTEXT() REPRESENTATION_CONTEXT('2D SPACE',''
  ) );
#277 = ORIENTED_EDGE('',*,*,#278,.T.);
#278 = EDGE_CURVE('',#110,#58,#279,.T.);
#279 = SURFACE_CURVE('',#280,(#285,#292),.PCURVE_S1.);
#280 = CIRCLE('',#281,2.5);
#281 = AXIS2_PLACEMENT_3D('',#282,#283,#284);
#282 = CARTESIAN_POINT('',(0.,0.,13.));
#283 = DIRECTION('',(0.,0.,1.));
#284 = DIRECTION('',(1.,0.,0.));
#285 = PCURVE('',#33,#286);
#286 = DEFINITIONAL_REPRESENTATION('',(#287),#291);
#287 = LINE('',#288,#289);
#288 = CARTESIAN_POINT('',(-0.,-13.));
#289 = VECTOR('',#290,1.);
#290 = DIRECTION('',(-1.,0.));
#291 = ( GEOMETRIC_REPRESENTATION_CONTEXT(2) 
PARAMETRIC_REPRESENTATION_CONTEXT() REPRESENTATION_CONTEXT('2D SPACE',''
  ) );
#292 = PCURVE('',#97,#293);
#293 = DEFINITIONAL_REPRESENTATION('',(#294),#298);
#294 = CIRCLE('',#295,2.5);
#295 = AXIS2_PLACEMENT_2D('',#296,#297);
#296 = CARTESIAN_POINT('',(-8.881784197001E-16,-1.42108547152E-14));
#297 = DIRECTION('',(1.,0.));
#298 = ( GEOMETRIC_REPRESENTATION_CONTEXT(2) 
PARAMETRIC_REPRESENTATION_CONTEXT() REPRESENTATION_CONTEXT('2D SPACE',''
  ) );
#299 = ORIENTED_EDGE('',*,*,#57,.F.);
#300 = ORIENTED_EDGE('',*,*,#301,.F.);
#301 = EDGE_CURVE('',#302,#22,#304,.T.);
#302 = VERTEX_POINT('',#303);
#303 = CARTESIAN_POINT('',(-2.84217094304E-14,-2.5,0.));
#304 = SURFACE_CURVE('',#305,(#310,#317),.PCURVE_S1.);
#305 = CIRCLE('',#306,2.5);
#306 = AXIS2_PLACEMENT_3D('',#307,#308,#309);
#307 = CARTESIAN_POINT('',(0.,0.,0.));
#308 = DIRECTION('',(0.,0.,1.));
#309 = DIRECTION('',(1.,0.,0.));
#310 = PCURVE('',#33,#311);
#311 = DEFINITIONAL_REPRESENTATION('',(#312),#316);
#312 = LINE('',#313,#314);
#313 = CARTESIAN_POINT('',(-0.,0.));
#314 = VECTOR('',#315,1.);
#315 = DIRECTION('',(-1.,0.));
#316 = ( GEOMETRIC_REPRESENTATION_CONTEXT(2) 
PARAMETRIC_REPRESENTATION_CONTEXT() REPRESENTATION_CONTEXT('2D SPACE',''
  ) );
#317 = PCURVE('',#45,#318);
#318 = DEFINITIONAL_REPRESENTATION('',(#319),#323);
#319 = CIRCLE('',#320,2.5);
#320 = AXIS2_PLACEMENT_2D('',#321,#322);
#321 = CARTESIAN_POINT('',(-8.881784197001E-16,-1.42108547152E-14));
#322 = DIRECTION('',(1.,0.));
#323 = ( GEOMETRIC_REPRESENTATION_CONTEXT(2) 
PARAMETRIC_REPRESENTATION_CONTEXT() REPRESENTATION_CONTEXT('2D SPACE',''
  ) );
#324 = ORIENTED_EDGE('',*,*,#325,.F.);
#325 = EDGE_CURVE('',#24,#302,#326,.T.);
#326 = SURFACE_CURVE('',#327,(#378,#432),.PCURVE_S1.);
#327 = B_SPLINE_CURVE_WITH_KNOTS('',7,(#328,#329,#330,#331,#332,#333,
    #334,#335,#336,#337,#338,#339,#340,#341,#342,#343,#344,#345,#346,
    #347,#348,#349,#350,#351,#352,#353,#354,#355,#356,#357,#358,#359,
    #360,#361,#362,#363,#364,#365,#366,#367,#368,#369,#370,#371,#372,
    #373,#374,#375,#376,#377),.UNSPECIFIED.,.F.,.F.,(8,6,6,6,6,6,6,6,8),
  (0.,8.482373946413E-02,0.198050520395,0.249306391253,0.49632006593,
    0.751603904859,0.802171910693,0.867381952458,1.),.UNSPECIFIED.);
#328 = CARTESIAN_POINT('',(8.881784197001E-16,2.5,0.));
#329 = CARTESIAN_POINT('',(-0.114199570469,2.5,-1.39854138439E-17));
#330 = CARTESIAN_POINT('',(-0.228227471619,2.493913935434,
    2.340786918356E-03));
#331 = CARTESIAN_POINT('',(-0.341406886,2.481774804334,
    7.009707353845E-03));
#332 = CARTESIAN_POINT('',(-0.453066240421,2.463738407781,
    1.391616374668E-02));
#333 = CARTESIAN_POINT('',(-0.562551393456,2.440082221604,
    2.289326745851E-02));
#334 = CARTESIAN_POINT('',(-0.669237776148,2.411207025662,
    3.370696825625E-02));
#335 = CARTESIAN_POINT('',(-0.910438549213,2.332836143747,
    6.257897672838E-02));
#336 = CARTESIAN_POINT('',(-1.042304038204,2.279674993328,
    8.185006131304E-02));
#337 = CARTESIAN_POINT('',(-1.167801796969,2.219074594223,0.103334017719
    ));
#338 = CARTESIAN_POINT('',(-1.286683998416,2.151900594267,0.126472524832
    ));
#339 = CARTESIAN_POINT('',(-1.398781192793,2.078977990789,0.150723697201
    ));
#340 = CARTESIAN_POINT('',(-1.503993539887,2.001099576753,0.175579906149
    ));
#341 = CARTESIAN_POINT('',(-1.646778774865,1.881881927096,0.211897940182
    ));
#342 = CARTESIAN_POINT('',(-1.689895271782,1.843839362812,0.223255190783
    ));
#343 = CARTESIAN_POINT('',(-1.731643736802,1.804958104339,0.234614264644
    ));
#344 = CARTESIAN_POINT('',(-1.772034819486,1.765287721236,0.245939211403
    ));
#345 = CARTESIAN_POINT('',(-1.811079797833,1.724873932063,0.257196178966
    ));
#346 = CARTESIAN_POINT('',(-1.848790578272,1.683758604383,0.268353413508
    ));
#347 = CARTESIAN_POINT('',(-2.060547111274,1.440637996298,0.33252695204)
  );
#348 = CARTESIAN_POINT('',(-2.205622137533,1.223421226023,0.382789924564
    ));
#349 = CARTESIAN_POINT('',(-2.321165689625,0.99486259497,0.426710924075)
  );
#350 = CARTESIAN_POINT('',(-2.407965797018,0.758326456824,0.46171853113)
  );
#351 = CARTESIAN_POINT('',(-2.46660378062,0.516480883605,0.486087200826)
  );
#352 = CARTESIAN_POINT('',(-2.497317637519,0.271617749539,0.498882417726
    ));
#353 = CARTESIAN_POINT('',(-2.502498826565,-0.227994372694,
    0.501041110267));
#354 = CARTESIAN_POINT('',(-2.475034623783,-0.481448564891,
    0.489599906253));
#355 = CARTESIAN_POINT('',(-2.417775564404,-0.732007418453,
    0.465682032849));
#356 = CARTESIAN_POINT('',(-2.330482579865,-0.977153526815,
    0.430237367399));
#357 = CARTESIAN_POINT('',(-2.2125301206,-1.213964318863,0.38512363253)
  );
#358 = CARTESIAN_POINT('',(-2.063061038509,-1.438743843781,
    0.333164990016));
#359 = CARTESIAN_POINT('',(-1.845243210263,-1.687621877706,
    0.267304516067));
#360 = CARTESIAN_POINT('',(-1.807943579161,-1.728121692597,
    0.256291831387));
#361 = CARTESIAN_POINT('',(-1.769345189038,-1.767936402977,
    0.245184072469));
#362 = CARTESIAN_POINT('',(-1.729436621405,-1.807025672342,
    0.234011801285));
#363 = CARTESIAN_POINT('',(-1.688207071481,-1.845345504606,
    0.222807570877));
#364 = CARTESIAN_POINT('',(-1.645646348201,-1.882848244101,
    0.211605925354));
#365 = CARTESIAN_POINT('',(-1.545131667782,-1.966724428335,
    0.186048749768));
#366 = CARTESIAN_POINT('',(-1.486276676483,-2.012532493763,
    0.171716048843));
#367 = CARTESIAN_POINT('',(-1.4251713229,-2.056784258609,0.157527107041)
  );
#368 = CARTESIAN_POINT('',(-1.361812333577,-2.099349260473,
    0.143569412674));
#369 = CARTESIAN_POINT('',(-1.296202014804,-2.140088872889,
    0.129935519301));
#370 = CARTESIAN_POINT('',(-1.228348528416,-2.178856090411,
    0.116722432592));
#371 = CARTESIAN_POINT('',(-1.015739255957,-2.290008718757,
    7.822034993731E-02));
#372 = CARTESIAN_POINT('',(-0.862845703907,-2.356321025354,
    5.435938365786E-02));
#373 = CARTESIAN_POINT('',(-0.700968234698,-2.412065779595,
    3.363509846354E-02));
#374 = CARTESIAN_POINT('',(-0.531785783759,-2.455408658527,
    1.715075621425E-02));
#375 = CARTESIAN_POINT('',(-0.35719521045,-2.48500840845,
    5.765886938569E-03));
#376 = CARTESIAN_POINT('',(-0.179233434908,-2.5,-2.194976523607E-17));
#377 = CARTESIAN_POINT('',(0.,-2.5,0.));
#378 = PCURVE('',#33,#379);
#379 = DEFINITIONAL_REPRESENTATION('',(#380),#431);
#380 = B_SPLINE_CURVE_WITH_KNOTS('',7,(#381,#382,#383,#384,#385,#386,
    #387,#388,#389,#390,#391,#392,#393,#394,#395,#396,#397,#398,#399,
    #400,#401,#402,#403,#404,#405,#406,#407,#408,#409,#410,#411,#412,
    #413,#414,#415,#416,#417,#418,#419,#420,#421,#422,#423,#424,#425,
    #426,#427,#428,#429,#430),.UNSPECIFIED.,.F.,.F.,(8,6,6,6,6,6,6,6,8),
  (0.,8.482373946413E-02,0.198050520395,0.249306391253,0.49632006593,
    0.751603904859,0.802171910693,0.867381952458,1.),.UNSPECIFIED.);
#381 = CARTESIAN_POINT('',(-1.570796326795,0.));
#382 = CARTESIAN_POINT('',(-1.616476154983,0.));
#383 = CARTESIAN_POINT('',(-1.662087309665,-2.340786918352E-03));
#384 = CARTESIAN_POINT('',(-1.707514782772,-7.009707353848E-03));
#385 = CARTESIAN_POINT('',(-1.752643437948,-1.391616374668E-02));
#386 = CARTESIAN_POINT('',(-1.797352115675,-2.28932674585E-02));
#387 = CARTESIAN_POINT('',(-1.841507192182,-3.370696825625E-02));
#388 = CARTESIAN_POINT('',(-1.942952592716,-6.257897672838E-02));
#389 = CARTESIAN_POINT('',(-1.999688310757,-8.185006131304E-02));
#390 = CARTESIAN_POINT('',(-2.055239655496,-0.103334017719));
#391 = CARTESIAN_POINT('',(-2.109661994601,-0.126472524832));
#392 = CARTESIAN_POINT('',(-2.162995119297,-0.150723697201));
#393 = CARTESIAN_POINT('',(-2.215265424239,-0.175579906149));
#394 = CARTESIAN_POINT('',(-2.289670231952,-0.211897940182));
#395 = CARTESIAN_POINT('',(-2.312661851319,-0.223255190783));
#396 = CARTESIAN_POINT('',(-2.335468643282,-0.234614264644));
#397 = CARTESIAN_POINT('',(-2.358100061895,-0.245939211403));
#398 = CARTESIAN_POINT('',(-2.380565532254,-0.257196178966));
#399 = CARTESIAN_POINT('',(-2.402874450493,-0.268353413508));
#400 = CARTESIAN_POINT('',(-2.531838606347,-0.33252695204));
#401 = CARTESIAN_POINT('',(-2.635471138766,-0.382789924564));
#402 = CARTESIAN_POINT('',(-2.736755587192,-0.426710924075));
#403 = CARTESIAN_POINT('',(-2.836345479729,-0.46171853113));
#404 = CARTESIAN_POINT('',(-2.934872794718,-0.486087200826));
#405 = CARTESIAN_POINT('',(-3.032940083409,-0.498882417726));
#406 = CARTESIAN_POINT('',(-3.232795678238,-0.501041110267));
#407 = CARTESIAN_POINT('',(-3.334057861143,-0.489599906253));
#408 = CARTESIAN_POINT('',(-3.435750693882,-0.465682032849));
#409 = CARTESIAN_POINT('',(-3.538528562113,-0.430237367399));
#410 = CARTESIAN_POINT('',(-3.643080161694,-0.38512363253));
#411 = CARTESIAN_POINT('',(-3.750114607034,-0.333164990016));
#412 = CARTESIAN_POINT('',(-3.882408148568,-0.267304516067));
#413 = CARTESIAN_POINT('',(-3.904424782768,-0.256291831387));
#414 = CARTESIAN_POINT('',(-3.926594302026,-0.245184072469));
#415 = CARTESIAN_POINT('',(-3.948925728948,-0.234011801285));
#416 = CARTESIAN_POINT('',(-3.971428109058,-0.222807570877));
#417 = CARTESIAN_POINT('',(-3.994110510797,-0.211605925354));
#418 = CARTESIAN_POINT('',(-4.046476018928,-0.186048749768));
#419 = CARTESIAN_POINT('',(-4.076291040524,-0.171716048843));
#420 = CARTESIAN_POINT('',(-4.106440279983,-0.157527107041));
#421 = CARTESIAN_POINT('',(-4.136937268466,-0.143569412674));
#422 = CARTESIAN_POINT('',(-4.167796410688,-0.129935519301));
#423 = CARTESIAN_POINT('',(-4.199033516975,-0.116722432592));
#424 = CARTESIAN_POINT('',(-4.294998185077,-7.822034993731E-02));
#425 = CARTESIAN_POINT('',(-4.361484884566,-5.435938365785E-02));
#426 = CARTESIAN_POINT('',(-4.429632895309,-3.363509846354E-02));
#427 = CARTESIAN_POINT('',(-4.499072567127,-1.715075621425E-02));
#428 = CARTESIAN_POINT('',(-4.569510971137,-5.765886938567E-03));
#429 = CARTESIAN_POINT('',(-4.640695606421,0.));
#430 = CARTESIAN_POINT('',(-4.712388980385,0.));
#431 = ( GEOMETRIC_REPRESENTATION_CONTEXT(2) 
PARAMETRIC_REPRESENTATION_CONTEXT() REPRESENTATION_CONTEXT('2D SPACE',''
  ) );
#432 = PCURVE('',#433,#438);
#433 = CYLINDRICAL_SURFACE('',#434,6.5);
#434 = AXIS2_PLACEMENT_3D('',#435,#436,#437);
#435 = CARTESIAN_POINT('',(0.,-95.,6.5));
#436 = DIRECTION('',(0.,1.,0.));
#437 = DIRECTION('',(0.,-0.,1.));
#438 = DEFINITIONAL_REPRESENTATION('',(#439),#490);
#439 = B_SPLINE_CURVE_WITH_KNOTS('',7,(#440,#441,#442,#443,#444,#445,
    #446,#447,#448,#449,#450,#451,#452,#453,#454,#455,#456,#457,#458,
    #459,#460,#461,#462,#463,#464,#465,#466,#467,#468,#469,#470,#471,
    #472,#473,#474,#475,#476,#477,#478,#479,#480,#481,#482,#483,#484,
    #485,#486,#487,#488,#489),.UNSPECIFIED.,.F.,.F.,(8,6,6,6,6,6,6,6,8),
  (0.,8.482373946413E-02,0.198050520395,0.249306391253,0.49632006593,
    0.751603904859,0.802171910693,0.867381952458,1.),.UNSPECIFIED.);
#440 = CARTESIAN_POINT('',(3.14159265359,97.5));
#441 = CARTESIAN_POINT('',(3.159161818277,97.5));
#442 = CARTESIAN_POINT('',(3.176704575537,97.493913935434));
#443 = CARTESIAN_POINT('',(3.194125639412,97.481774804334));
#444 = CARTESIAN_POINT('',(3.211330472516,97.463738407781));
#445 = CARTESIAN_POINT('',(3.228225785202,97.440082221604));
#446 = CARTESIAN_POINT('',(3.24472046776,97.411207025662));
#447 = CARTESIAN_POINT('',(3.282093180585,97.332836143747));
#448 = CARTESIAN_POINT('',(3.302588750738,97.279674993328));
#449 = CARTESIAN_POINT('',(3.322168026611,97.219074594223));
#450 = CARTESIAN_POINT('',(3.340792977128,97.151900594267));
#451 = CARTESIAN_POINT('',(3.358432437926,97.078977990789));
#452 = CARTESIAN_POINT('',(3.375062100864,97.001099576753));
#453 = CARTESIAN_POINT('',(3.397728512645,96.881881927096));
#454 = CARTESIAN_POINT('',(3.404587847239,96.843839362812));
#455 = CARTESIAN_POINT('',(3.411243839897,96.804958104339));
#456 = CARTESIAN_POINT('',(3.41769714797,96.765287721236));
#457 = CARTESIAN_POINT('',(3.423948484819,96.724873932063));
#458 = CARTESIAN_POINT('',(3.429998619811,96.683758604383));
#459 = CARTESIAN_POINT('',(3.464039692224,96.440637996298));
#460 = CARTESIAN_POINT('',(3.487642323493,96.223421226023));
#461 = CARTESIAN_POINT('',(3.506650546667,95.99486259497));
#462 = CARTESIAN_POINT('',(3.521048647783,95.758326456824));
#463 = CARTESIAN_POINT('',(3.530817873106,95.516480883605));
#464 = CARTESIAN_POINT('',(3.535936716945,95.271617749539));
#465 = CARTESIAN_POINT('',(3.536800240392,94.772005627306));
#466 = CARTESIAN_POINT('',(3.532223004907,94.518551435109));
#467 = CARTESIAN_POINT('',(3.522676278661,94.267992581547));
#468 = CARTESIAN_POINT('',(3.508182320207,94.022846473185));
#469 = CARTESIAN_POINT('',(3.488762921896,93.786035681137));
#470 = CARTESIAN_POINT('',(3.464438301523,93.561256156219));
#471 = CARTESIAN_POINT('',(3.429429525503,93.312378122294));
#472 = CARTESIAN_POINT('',(3.423446350067,93.271878307403));
#473 = CARTESIAN_POINT('',(3.417267380086,93.232063597023));
#474 = CARTESIAN_POINT('',(3.410891877013,93.192974327658));
#475 = CARTESIAN_POINT('',(3.404319157821,93.154654495394));
#476 = CARTESIAN_POINT('',(3.397548595007,93.117151755899));
#477 = CARTESIAN_POINT('',(3.381592760843,93.033275571665));
#478 = CARTESIAN_POINT('',(3.372273998915,92.987467506237));
#479 = CARTESIAN_POINT('',(3.362623968972,92.943215741391));
#480 = CARTESIAN_POINT('',(3.352643919129,92.900650739527));
#481 = CARTESIAN_POINT('',(3.342335657525,92.859911127111));
#482 = CARTESIAN_POINT('',(3.331701502397,92.821143909589));
#483 = CARTESIAN_POINT('',(3.298460366869,92.709991281243));
#484 = CARTESIAN_POINT('',(3.274660578967,92.643678974646));
#485 = CARTESIAN_POINT('',(3.249568820121,92.587934220405));
#486 = CARTESIAN_POINT('',(3.223440002753,92.544591341473));
#487 = CARTESIAN_POINT('',(3.196545798013,92.51499159155));
#488 = CARTESIAN_POINT('',(3.169167028191,92.5));
#489 = CARTESIAN_POINT('',(3.14159265359,92.5));
#490 = ( GEOMETRIC_REPRESENTATION_CONTEXT(2) 
PARAMETRIC_REPRESENTATION_CONTEXT() REPRESENTATION_CONTEXT('2D SPACE',''
  ) );
#491 = ADVANCED_FACE('',(#492),#45,.F.);
#492 = FACE_BOUND('',#493,.F.);
#493 = EDGE_LOOP('',(#494,#495,#496));
#494 = ORIENTED_EDGE('',*,*,#301,.T.);
#495 = ORIENTED_EDGE('',*,*,#21,.T.);
#496 = ORIENTED_EDGE('',*,*,#497,.F.);
#497 = EDGE_CURVE('',#302,#24,#498,.T.);
#498 = SURFACE_CURVE('',#499,(#503,#510),.PCURVE_S1.);
#499 = LINE('',#500,#501);
#500 = CARTESIAN_POINT('',(0.,-95.,0.));
#501 = VECTOR('',#502,1.);
#502 = DIRECTION('',(-0.,1.,0.));
#503 = PCURVE('',#45,#504);
#504 = DEFINITIONAL_REPRESENTATION('',(#505),#509);
#505 = LINE('',#506,#507);
#506 = CARTESIAN_POINT('',(-8.881784197001E-16,-95.));
#507 = VECTOR('',#508,1.);
#508 = DIRECTION('',(0.,1.));
#509 = ( GEOMETRIC_REPRESENTATION_CONTEXT(2) 
PARAMETRIC_REPRESENTATION_CONTEXT() REPRESENTATION_CONTEXT('2D SPACE',''
  ) );
#510 = PCURVE('',#433,#511);
#511 = DEFINITIONAL_REPRESENTATION('',(#512),#516);
#512 = LINE('',#513,#514);
#513 = CARTESIAN_POINT('',(3.14159265359,0.));
#514 = VECTOR('',#515,1.);
#515 = DIRECTION('',(0.,1.));
#516 = ( GEOMETRIC_REPRESENTATION_CONTEXT(2) 
PARAMETRIC_REPRESENTATION_CONTEXT() REPRESENTATION_CONTEXT('2D SPACE',''
  ) );
#517 = ADVANCED_FACE('',(#518),#433,.T.);
#518 = FACE_BOUND('',#519,.T.);
#519 = EDGE_LOOP('',(#520,#521));
#520 = ORIENTED_EDGE('',*,*,#325,.F.);
#521 = ORIENTED_EDGE('',*,*,#497,.F.);
#522 = ADVANCED_FACE('',(#523),#97,.T.);
#523 = FACE_BOUND('',#524,.T.);
#524 = EDGE_LOOP('',(#525,#526,#527));
#525 = ORIENTED_EDGE('',*,*,#278,.T.);
#526 = ORIENTED_EDGE('',*,*,#80,.T.);
#527 = ORIENTED_EDGE('',*,*,#528,.F.);
#528 = EDGE_CURVE('',#110,#81,#529,.T.);
#529 = SURFACE_CURVE('',#530,(#534,#541),.PCURVE_S1.);
#530 = LINE('',#531,#532);
#531 = CARTESIAN_POINT('',(0.,-95.,13.));
#532 = VECTOR('',#533,1.);
#533 = DIRECTION('',(-0.,1.,0.));
#534 = PCURVE('',#97,#535);
#535 = DEFINITIONAL_REPRESENTATION('',(#536),#540);
#536 = LINE('',#537,#538);
#537 = CARTESIAN_POINT('',(-8.881784197001E-16,-95.));
#538 = VECTOR('',#539,1.);
#539 = DIRECTION('',(0.,1.));
#540 = ( GEOMETRIC_REPRESENTATION_CONTEXT(2) 
PARAMETRIC_REPRESENTATION_CONTEXT() REPRESENTATION_CONTEXT('2D SPACE',''
  ) );
#541 = PCURVE('',#219,#542);
#542 = DEFINITIONAL_REPRESENTATION('',(#543),#547);
#543 = LINE('',#544,#545);
#544 = CARTESIAN_POINT('',(6.28318530718,-0.));
#545 = VECTOR('',#546,1.);
#546 = DIRECTION('',(0.,1.));
#547 = ( GEOMETRIC_REPRESENTATION_CONTEXT(2) 
PARAMETRIC_REPRESENTATION_CONTEXT() REPRESENTATION_CONTEXT('2D SPACE',''
  ) );
#548 = ADVANCED_FACE('',(#549),#219,.T.);
#549 = FACE_BOUND('',#550,.T.);
#550 = EDGE_LOOP('',(#551,#552));
#551 = ORIENTED_EDGE('',*,*,#528,.T.);
#552 = ORIENTED_EDGE('',*,*,#109,.T.);
#553 = ( GEOMETRIC_REPRESENTATION_CONTEXT(3) 
GLOBAL_UNCERTAINTY_ASSIGNED_CONTEXT((#557)) GLOBAL_UNIT_ASSIGNED_CONTEXT
((#554,#555,#556)) REPRESENTATION_CONTEXT('Context #1',
  '3D Context with UNIT and UNCERTAINTY') );
#554 = ( LENGTH_UNIT() NAMED_UNIT(*) SI_UNIT(.MILLI.,.METRE.) );
#555 = ( NAMED_UNIT(*) PLANE_ANGLE_UNIT() SI_UNIT($,.RADIAN.) );
#556 = ( NAMED_UNIT(*) SI_UNIT($,.STERADIAN.) SOLID_ANGLE_UNIT() );
#557 = UNCERTAINTY_MEASURE_WITH_UNIT(LENGTH_MEASURE(1.E-07),#554,
  'distance_accuracy_value','confusion accuracy');
#558 = PRODUCT_RELATED_PRODUCT_CATEGORY('part',$,(#7));
ENDSEC;
END-ISO-10303-21;
