<svg xmlns="http://www.w3.org/2000/svg" viewBox="0 0 720 440" width="720" height="440" role="img" aria-labelledby="ti de">
<title id="ti">Sensibilidad del flujo de salida</title><desc id="de">Dos bandas de flujo de salida en lúmenes contra la reflectividad de la pared, para pared difusa y especular, con la línea de objetivo en 100 lúmenes.</desc>
<style>
  text { font-family: system-ui,-apple-system,"Segoe UI",Roboto,"Helvetica Neue","DejaVu Sans",Arial,sans-serif; fill: #16202b; }
  .t-title { font-size: 15px; font-weight: 700; }
  .t-sub   { font-size: 12px; fill: #52514e; }
  .t-lab   { font-size: 12px; }
  .t-labb  { font-size: 12px; font-weight: 600; }
  .t-small { font-size: 11px; fill: #52514e; }
  .t-axis  { font-size: 11px; fill: #8a8880; font-variant-numeric: tabular-nums; }
  .t-val   { font-size: 12px; font-weight: 600; font-variant-numeric: tabular-nums; }
  .t-note  { font-size: 10.5px; fill: #8a8880; }
  .t-inv   { fill: #ffffff; }
  .grid    { stroke: #e4e6ea; stroke-width: 1; }
  .axis    { stroke: #c3c2b7; stroke-width: 1; }
  .st-thin { fill: none; stroke: #14496b; stroke-width: 1.6; }
  .st-hair { fill: none; stroke: #8a8880; stroke-width: 1; }
  .st-dash { fill: none; stroke: #8a8880; stroke-width: 1; stroke-dasharray: 4 3; }
</style>
<rect width="720" height="440" fill="#ffffff"/>
<text x="2.0" y="18.0" class="t-title" text-anchor="start">Flujo de salida estimado vs reflectividad de la pared</text>
<text x="2.0" y="36.0" class="t-sub" text-anchor="start">LED bin LUMQ a 350 mA (valor medio 187 lm). Cada banda cubre un difusor de 75 % (borde inferior) a 90 %</text>
<text x="2.0" y="51.0" class="t-sub" text-anchor="start">(borde superior).</text>
<line x1="70.0" y1="358.0" x2="630.0" y2="358.0" class="grid"/>
<text x="62.0" y="362.0" class="t-axis" text-anchor="end">0</text>
<line x1="70.0" y1="313.0" x2="630.0" y2="313.0" class="grid"/>
<text x="62.0" y="317.0" class="t-axis" text-anchor="end">30</text>
<line x1="70.0" y1="268.0" x2="630.0" y2="268.0" class="grid"/>
<text x="62.0" y="272.0" class="t-axis" text-anchor="end">60</text>
<line x1="70.0" y1="223.0" x2="630.0" y2="223.0" class="grid"/>
<text x="62.0" y="227.0" class="t-axis" text-anchor="end">90</text>
<line x1="70.0" y1="178.0" x2="630.0" y2="178.0" class="grid"/>
<text x="62.0" y="182.0" class="t-axis" text-anchor="end">120</text>
<line x1="70.0" y1="133.0" x2="630.0" y2="133.0" class="grid"/>
<text x="62.0" y="137.0" class="t-axis" text-anchor="end">150</text>
<line x1="70.0" y1="88.0" x2="630.0" y2="88.0" class="grid"/>
<text x="62.0" y="92.0" class="t-axis" text-anchor="end">180</text>
<text x="62.0" y="78.0" class="t-axis" text-anchor="end">lm</text>
<text x="70.0" y="376.0" class="t-axis" text-anchor="middle">0.50</text>
<text x="132.2" y="376.0" class="t-axis" text-anchor="middle">0.55</text>
<text x="194.4" y="376.0" class="t-axis" text-anchor="middle">0.60</text>
<text x="256.7" y="376.0" class="t-axis" text-anchor="middle">0.65</text>
<text x="318.9" y="376.0" class="t-axis" text-anchor="middle">0.70</text>
<text x="381.1" y="376.0" class="t-axis" text-anchor="middle">0.75</text>
<text x="443.3" y="376.0" class="t-axis" text-anchor="middle">0.80</text>
<text x="505.6" y="376.0" class="t-axis" text-anchor="middle">0.85</text>
<text x="567.8" y="376.0" class="t-axis" text-anchor="middle">0.90</text>
<text x="630.0" y="376.0" class="t-axis" text-anchor="middle">0.95</text>
<line x1="70.0" y1="358.0" x2="630.0" y2="358.0" class="axis"/>
<text x="350.0" y="394.0" class="t-note" text-anchor="middle">reflectividad de la pared del conducto</text>
<polygon points="70.0,287.4 132.2,283.7 194.4,279.6 256.7,274.9 318.9,269.6 381.1,263.4 443.3,256.2 505.6,247.8 567.8,237.7 630.0,225.5 630.0,247.6 567.8,257.8 505.6,266.2 443.3,273.2 381.1,279.2 318.9,284.3 256.7,288.8 194.4,292.7 132.2,296.1 70.0,299.2" fill="#eb6834" fill-opacity="0.22"/>
<polyline points="70.0,287.4 132.2,283.7 194.4,279.6 256.7,274.9 318.9,269.6 381.1,263.4 443.3,256.2 505.6,247.8 567.8,237.7 630.0,225.5" fill="none" stroke="#eb6834" stroke-width="2"/>
<polyline points="70.0,299.2 132.2,296.1 194.4,292.7 256.7,288.8 318.9,284.3 381.1,279.2 443.3,273.2 505.6,266.2 567.8,257.8 630.0,247.6" fill="none" stroke="#eb6834" stroke-width="2"/>
<text x="132.2" y="316.1" class="t-labb" text-anchor="start">Pared difusa (conservador)</text>
<polygon points="70.0,226.3 132.2,216.3 194.4,205.9 256.7,195.2 318.9,184.0 381.1,172.3 443.3,160.1 505.6,147.4 567.8,134.2 630.0,120.2 630.0,159.8 567.8,171.5 505.6,182.5 443.3,193.1 381.1,203.3 318.9,213.0 256.7,222.3 194.4,231.3 132.2,239.9 70.0,248.2" fill="#2a78d6" fill-opacity="0.22"/>
<polyline points="70.0,226.3 132.2,216.3 194.4,205.9 256.7,195.2 318.9,184.0 381.1,172.3 443.3,160.1 505.6,147.4 567.8,134.2 630.0,120.2" fill="none" stroke="#2a78d6" stroke-width="2"/>
<polyline points="70.0,248.2 132.2,239.9 194.4,231.3 256.7,222.3 318.9,213.0 381.1,203.3 443.3,193.1 505.6,182.5 567.8,171.5 630.0,159.8" fill="none" stroke="#2a78d6" stroke-width="2"/>
<text x="626.0" y="112.2" class="t-labb" text-anchor="end">Pared especular (optimista)</text>
<path d="M70.0 208.0 H630.0" stroke="#16202b" stroke-width="1.5" stroke-dasharray="6 4"/>
<text x="76.0" y="202.0" class="t-labb" text-anchor="start">Objetivo: 100 lm útiles</text>
<path d="M70.0 303.5 H630.0" class="st-dash"/>
<text x="626.0" y="317.5" class="t-small" text-anchor="end">Solo luz directa, sin difusor: 36 lm</text>
<text x="2.0" y="432.0" class="t-note" text-anchor="start">Cálculo propio: Monte Carlo de tools/led_montecarlo.py (fuente puntual cos^2,6, fondo absorbente).</text>
</svg>
