0
SECTION
2
ENTITIES
0
LINE
8
FLEX_LINEA_MEDIA
10
0.0000
20
0.1000
11
1.0000
21
0.1000
0
ARC
8
FLEX_LINEA_MEDIA
10
1.0000
20
6.2086
40
6.1086
50
-90.0000
51
-68.3065
0
ARC
8
FLEX_LINEA_MEDIA
10
-2.9247
20
16.0741
40
16.7261
50
-68.3065
51
-47.1924
0
ARC
8
FLEX_LINEA_MEDIA
10
54.3469
20
-45.7570
40
67.5539
50
127.3993
51
132.8076
0
ARC
8
FLEX_LINEA_MEDIA
10
19.6731
20
-0.4044
40
10.4651
50
95.9690
51
127.3993
0
ARC
8
FLEX_LINEA_MEDIA
10
19.1143
20
4.9406
40
5.0910
50
32.1472
51
95.9690
0
ARC
8
FLEX_LINEA_MEDIA
10
20.8000
20
6.0000
40
3.1000
50
0.0000
51
32.1472
0
LINE
8
FLEX_LINEA_MEDIA
10
23.9000
20
6.0000
11
23.9000
21
5.0000
0
LINE
8
FLEX_CARA_A
10
0.0000
20
0.2000
11
1.0000
21
0.2000
0
ARC
8
FLEX_CARA_A
10
1.0000
20
6.2086
40
6.0086
50
-90.0000
51
-68.3065
0
ARC
8
FLEX_CARA_A
10
-2.9247
20
16.0741
40
16.6261
50
-68.3065
51
-47.1924
0
ARC
8
FLEX_CARA_A
10
54.3469
20
-45.7570
40
67.6539
50
127.3993
51
132.8076
0
ARC
8
FLEX_CARA_A
10
19.6731
20
-0.4044
40
10.5651
50
95.9690
51
127.3993
0
ARC
8
FLEX_CARA_A
10
19.1143
20
4.9406
40
5.1910
50
32.1472
51
95.9690
0
ARC
8
FLEX_CARA_A
10
20.8000
20
6.0000
40
3.2000
50
0.0000
51
32.1472
0
LINE
8
FLEX_CARA_A
10
24.0000
20
6.0000
11
24.0000
21
5.0000
0
LINE
8
FLEX_CARA_B
10
0.0000
20
0.0000
11
1.0000
21
0.0000
0
ARC
8
FLEX_CARA_B
10
1.0000
20
6.2086
40
6.2086
50
-90.0000
51
-68.3065
0
ARC
8
FLEX_CARA_B
10
-2.9247
20
16.0741
40
16.8261
50
-68.3065
51
-47.1924
0
ARC
8
FLEX_CARA_B
10
54.3469
20
-45.7570
40
67.4539
50
127.3993
51
132.8076
0
ARC
8
FLEX_CARA_B
10
19.6731
20
-0.4044
40
10.3651
50
95.9690
51
127.3993
0
ARC
8
FLEX_CARA_B
10
19.1143
20
4.9406
40
4.9910
50
32.1472
51
95.9690
0
ARC
8
FLEX_CARA_B
10
20.8000
20
6.0000
40
3.0000
50
0.0000
51
32.1472
0
LINE
8
FLEX_CARA_B
10
23.8000
20
6.0000
11
23.8000
21
5.0000
0
LINE
8
MAINBOARD
10
-6.0000
20
0.2000
11
0.0000
21
0.2000
0
LINE
8
MAINBOARD
10
0.0000
20
0.2000
11
0.0000
21
1.2000
0
LINE
8
MAINBOARD
10
0.0000
20
1.2000
11
-6.0000
21
1.2000
0
LINE
8
MAINBOARD
10
-6.0000
20
1.2000
11
-6.0000
21
0.2000
0
LINE
8
PLACA_CONECTOR
10
22.8000
20
0.0000
11
23.8000
21
0.0000
0
LINE
8
PLACA_CONECTOR
10
23.8000
20
0.0000
11
23.8000
21
5.0000
0
LINE
8
PLACA_CONECTOR
10
23.8000
20
5.0000
11
22.8000
21
5.0000
0
LINE
8
PLACA_CONECTOR
10
22.8000
20
5.0000
11
22.8000
21
0.0000
0
LINE
8
REFERENCIA
10
-6.0000
20
10.5000
11
27.0000
21
10.5000
0
LINE
8
REFERENCIA
10
-6.0000
20
0.0000
11
27.0000
21
0.0000
0
LINE
8
REFERENCIA
10
24.0000
20
0.0000
11
24.0000
21
10.5000
0
ENDSEC
0
EOF
