0
SECTION
2
ENTITIES
0
LINE
8
FLEX_LINEA_MEDIA
10
0.0000
20
0.1000
11
1.0000
21
0.1000
0
ARC
8
FLEX_LINEA_MEDIA
10
1.0000
20
4.3682
40
4.2682
50
-90.0000
51
-62.1336
0
ARC
8
FLEX_LINEA_MEDIA
10
-1.4766
20
9.0524
40
9.5669
50
-62.1336
51
-30.4306
0
ARC
8
FLEX_LINEA_MEDIA
10
29.2490
20
-8.9962
40
26.0676
50
138.8469
51
149.5694
0
ARC
8
FLEX_LINEA_MEDIA
10
14.1657
20
4.1864
40
6.0355
50
35.3864
51
138.8469
0
LINE
8
FLEX_LINEA_MEDIA
10
19.0863
20
7.6815
11
22.6473
21
2.6680
0
ARC
8
FLEX_LINEA_MEDIA
10
27.5082
20
6.1208
40
5.9623
50
-144.6136
51
-73.0434
0
ARC
8
FLEX_LINEA_MEDIA
10
28.1548
20
4.0000
40
3.7452
50
-73.0434
51
-0.0000
0
LINE
8
FLEX_LINEA_MEDIA
10
31.9000
20
4.0000
11
31.9000
21
5.0000
0
LINE
8
FLEX_CARA_A
10
0.0000
20
0.2000
11
1.0000
21
0.2000
0
ARC
8
FLEX_CARA_A
10
1.0000
20
4.3682
40
4.1682
50
-90.0000
51
-62.1336
0
ARC
8
FLEX_CARA_A
10
-1.4766
20
9.0524
40
9.4669
50
-62.1336
51
-30.4306
0
ARC
8
FLEX_CARA_A
10
29.2490
20
-8.9962
40
26.1676
50
138.8469
51
149.5694
0
ARC
8
FLEX_CARA_A
10
14.1657
20
4.1864
40
6.1355
50
35.3864
51
138.8469
0
LINE
8
FLEX_CARA_A
10
19.1678
20
7.7394
11
22.7288
21
2.7260
0
ARC
8
FLEX_CARA_A
10
27.5082
20
6.1208
40
5.8623
50
-144.6136
51
-73.0434
0
ARC
8
FLEX_CARA_A
10
28.1548
20
4.0000
40
3.6452
50
-73.0434
51
-0.0000
0
LINE
8
FLEX_CARA_A
10
31.8000
20
4.0000
11
31.8000
21
5.0000
0
LINE
8
FLEX_CARA_B
10
0.0000
20
0.0000
11
1.0000
21
0.0000
0
ARC
8
FLEX_CARA_B
10
1.0000
20
4.3682
40
4.3682
50
-90.0000
51
-62.1336
0
ARC
8
FLEX_CARA_B
10
-1.4766
20
9.0524
40
9.6669
50
-62.1336
51
-30.4306
0
ARC
8
FLEX_CARA_B
10
29.2490
20
-8.9962
40
25.9676
50
138.8469
51
149.5694
0
ARC
8
FLEX_CARA_B
10
14.1657
20
4.1864
40
5.9355
50
35.3864
51
138.8469
0
LINE
8
FLEX_CARA_B
10
19.0047
20
7.6235
11
22.5658
21
2.6101
0
ARC
8
FLEX_CARA_B
10
27.5082
20
6.1208
40
6.0623
50
-144.6136
51
-73.0434
0
ARC
8
FLEX_CARA_B
10
28.1548
20
4.0000
40
3.8452
50
-73.0434
51
-0.0000
0
LINE
8
FLEX_CARA_B
10
32.0000
20
4.0000
11
32.0000
21
5.0000
0
LINE
8
MAINBOARD
10
-6.0000
20
0.2000
11
0.0000
21
0.2000
0
LINE
8
MAINBOARD
10
0.0000
20
0.2000
11
0.0000
21
1.2000
0
LINE
8
MAINBOARD
10
0.0000
20
1.2000
11
-6.0000
21
1.2000
0
LINE
8
MAINBOARD
10
-6.0000
20
1.2000
11
-6.0000
21
0.2000
0
LINE
8
PLACA_CONECTOR
10
30.8000
20
5.0000
11
31.8000
21
5.0000
0
LINE
8
PLACA_CONECTOR
10
31.8000
20
5.0000
11
31.8000
21
10.5000
0
LINE
8
PLACA_CONECTOR
10
31.8000
20
10.5000
11
30.8000
21
10.5000
0
LINE
8
PLACA_CONECTOR
10
30.8000
20
10.5000
11
30.8000
21
5.0000
0
LINE
8
REFERENCIA
10
-6.0000
20
10.5000
11
35.0000
21
10.5000
0
LINE
8
REFERENCIA
10
-6.0000
20
0.0000
11
35.0000
21
0.0000
0
LINE
8
REFERENCIA
10
32.0000
20
0.0000
11
32.0000
21
10.5000
0
ENDSEC
0
EOF
