0
SECTION
2
ENTITIES
0
LINE
8
FLEX_LINEA_MEDIA
10
0.0000
20
0.1000
11
1.0000
21
0.1000
0
ARC
8
FLEX_LINEA_MEDIA
10
1.0000
20
3.8655
40
3.7655
50
-90.0000
51
-41.5117
0
ARC
8
FLEX_LINEA_MEDIA
10
-9.3755
20
13.0487
40
17.6213
50
-41.5117
51
-21.3809
0
ARC
8
FLEX_LINEA_MEDIA
10
12.0529
20
4.6593
40
5.3909
50
96.6875
51
158.6191
0
ARC
8
FLEX_LINEA_MEDIA
10
11.9606
20
5.4467
40
4.5981
50
28.6158
51
96.6875
0
LINE
8
FLEX_LINEA_MEDIA
10
15.9970
20
7.6489
11
18.7442
21
2.6135
0
ARC
8
FLEX_LINEA_MEDIA
10
22.8630
20
4.8606
40
4.6919
50
-151.3842
51
-67.9966
0
ARC
8
FLEX_LINEA_MEDIA
10
23.6148
20
3.0001
40
2.6852
50
-67.9966
51
0.0000
0
LINE
8
FLEX_LINEA_MEDIA
10
26.3000
20
3.0001
11
26.3000
21
4.0001
0
LINE
8
FLEX_CARA_A
10
0.0000
20
0.2000
11
1.0000
21
0.2000
0
ARC
8
FLEX_CARA_A
10
1.0000
20
3.8655
40
3.6655
50
-90.0000
51
-41.5117
0
ARC
8
FLEX_CARA_A
10
-9.3755
20
13.0487
40
17.5213
50
-41.5117
51
-21.3809
0
ARC
8
FLEX_CARA_A
10
12.0529
20
4.6593
40
5.4909
50
96.6875
51
158.6191
0
ARC
8
FLEX_CARA_A
10
11.9606
20
5.4467
40
4.6981
50
28.6158
51
96.6875
0
LINE
8
FLEX_CARA_A
10
16.0848
20
7.6968
11
18.8320
21
2.6614
0
ARC
8
FLEX_CARA_A
10
22.8630
20
4.8606
40
4.5919
50
-151.3842
51
-67.9966
0
ARC
8
FLEX_CARA_A
10
23.6148
20
3.0001
40
2.5852
50
-67.9966
51
0.0000
0
LINE
8
FLEX_CARA_A
10
26.2000
20
3.0001
11
26.2000
21
4.0001
0
LINE
8
FLEX_CARA_B
10
0.0000
20
0.0000
11
1.0000
21
0.0000
0
ARC
8
FLEX_CARA_B
10
1.0000
20
3.8655
40
3.8655
50
-90.0000
51
-41.5117
0
ARC
8
FLEX_CARA_B
10
-9.3755
20
13.0487
40
17.7213
50
-41.5117
51
-21.3809
0
ARC
8
FLEX_CARA_B
10
12.0529
20
4.6593
40
5.2909
50
96.6875
51
158.6191
0
ARC
8
FLEX_CARA_B
10
11.9606
20
5.4467
40
4.4981
50
28.6158
51
96.6875
0
LINE
8
FLEX_CARA_B
10
15.9092
20
7.6010
11
18.6564
21
2.5656
0
ARC
8
FLEX_CARA_B
10
22.8630
20
4.8606
40
4.7919
50
-151.3842
51
-67.9966
0
ARC
8
FLEX_CARA_B
10
23.6148
20
3.0001
40
2.7852
50
-67.9966
51
0.0000
0
LINE
8
FLEX_CARA_B
10
26.4000
20
3.0001
11
26.4000
21
4.0001
0
LINE
8
MAINBOARD
10
-6.0000
20
0.2000
11
0.0000
21
0.2000
0
LINE
8
MAINBOARD
10
0.0000
20
0.2000
11
0.0000
21
1.2000
0
LINE
8
MAINBOARD
10
0.0000
20
1.2000
11
-6.0000
21
1.2000
0
LINE
8
MAINBOARD
10
-6.0000
20
1.2000
11
-6.0000
21
0.2000
0
LINE
8
PLACA_CONECTOR
10
25.2000
20
4.0000
11
26.2000
21
4.0000
0
LINE
8
PLACA_CONECTOR
10
26.2000
20
4.0000
11
26.2000
21
10.5000
0
LINE
8
PLACA_CONECTOR
10
26.2000
20
10.5000
11
25.2000
21
10.5000
0
LINE
8
PLACA_CONECTOR
10
25.2000
20
10.5000
11
25.2000
21
4.0000
0
LINE
8
REFERENCIA
10
-6.0000
20
10.5000
11
29.4000
21
10.5000
0
LINE
8
REFERENCIA
10
-6.0000
20
0.0000
11
29.4000
21
0.0000
0
LINE
8
REFERENCIA
10
26.4000
20
0.0000
11
26.4000
21
10.5000
0
ENDSEC
0
EOF
