0
SECTION
2
ENTITIES
0
LINE
8
FLEX_LINEA_MEDIA
10
16.0000
20
-13.1500
11
17.0000
21
-13.1500
0
ARC
8
FLEX_LINEA_MEDIA
10
17.0000
20
-7.4800
40
5.6700
50
-90.0000
51
-39.3776
0
LINE
8
FLEX_LINEA_MEDIA
10
21.3828
20
-11.0772
11
23.0057
21
-9.0999
0
ARC
8
FLEX_LINEA_MEDIA
10
27.7148
20
-12.9649
40
6.0921
50
80.3541
51
140.6224
0
ARC
8
FLEX_LINEA_MEDIA
10
31.0000
20
6.3643
40
13.5143
50
-99.6459
51
-90.0000
0
LINE
8
FLEX_LINEA_MEDIA
10
31.0000
20
-7.1500
11
32.0000
21
-7.1500
0
LINE
8
FLEX_CARA_A
10
16.0000
20
-13.0500
11
17.0000
21
-13.0500
0
ARC
8
FLEX_CARA_A
10
17.0000
20
-7.4800
40
5.5700
50
-90.0000
51
-39.3776
0
LINE
8
FLEX_CARA_A
10
21.3055
20
-11.0138
11
22.9284
21
-9.0365
0
ARC
8
FLEX_CARA_A
10
27.7148
20
-12.9649
40
6.1921
50
80.3541
51
140.6224
0
ARC
8
FLEX_CARA_A
10
31.0000
20
6.3643
40
13.4143
50
-99.6459
51
-90.0000
0
LINE
8
FLEX_CARA_A
10
31.0000
20
-7.0500
11
32.0000
21
-7.0500
0
LINE
8
FLEX_CARA_B
10
16.0000
20
-13.2500
11
17.0000
21
-13.2500
0
ARC
8
FLEX_CARA_B
10
17.0000
20
-7.4800
40
5.7700
50
-90.0000
51
-39.3776
0
LINE
8
FLEX_CARA_B
10
21.4601
20
-11.1406
11
23.0830
21
-9.1633
0
ARC
8
FLEX_CARA_B
10
27.7148
20
-12.9649
40
5.9921
50
80.3541
51
140.6224
0
ARC
8
FLEX_CARA_B
10
31.0000
20
6.3643
40
13.6143
50
-99.6459
51
-90.0000
0
LINE
8
FLEX_CARA_B
10
31.0000
20
-7.2500
11
32.0000
21
-7.2500
0
LINE
8
PESTANA_FIJA
10
4.0000
20
-13.6500
11
16.0000
21
-13.6500
0
LINE
8
PESTANA_FIJA
10
16.0000
20
-13.6500
11
16.0000
21
-12.6500
0
LINE
8
PESTANA_FIJA
10
16.0000
20
-12.6500
11
4.0000
21
-12.6500
0
LINE
8
PESTANA_FIJA
10
4.0000
20
-12.6500
11
4.0000
21
-13.6500
0
LINE
8
PLACA_CONECTOR_NOMINAL
10
32.0000
20
-7.6500
11
52.0000
21
-7.6500
0
LINE
8
PLACA_CONECTOR_NOMINAL
10
52.0000
20
-7.6500
11
52.0000
21
-6.6500
0
LINE
8
PLACA_CONECTOR_NOMINAL
10
52.0000
20
-6.6500
11
32.0000
21
-6.6500
0
LINE
8
PLACA_CONECTOR_NOMINAL
10
32.0000
20
-6.6500
11
32.0000
21
-7.6500
0
LINE
8
PLACA_CONECTOR_RETRAIDA
10
32.0000
20
-19.6500
11
52.0000
21
-19.6500
0
LINE
8
PLACA_CONECTOR_RETRAIDA
10
52.0000
20
-19.6500
11
52.0000
21
-18.6500
0
LINE
8
PLACA_CONECTOR_RETRAIDA
10
52.0000
20
-18.6500
11
32.0000
21
-18.6500
0
LINE
8
PLACA_CONECTOR_RETRAIDA
10
32.0000
20
-18.6500
11
32.0000
21
-19.6500
0
LINE
8
PANEL
10
0.0000
20
0.0000
11
52.0000
21
0.0000
0
LINE
8
LIMITE_52
10
0.0000
20
-30.0000
11
0.0000
21
2.0000
0
LINE
8
LIMITE_52
10
52.0000
20
-30.0000
11
52.0000
21
2.0000
0
ENDSEC
0
EOF
