0
SECTION
2
ENTITIES
0
LINE
8
FLEX_LINEA_MEDIA
10
16.0000
20
-11.7500
11
17.0000
21
-11.7500
0
ARC
8
FLEX_LINEA_MEDIA
10
17.0000
20
-8.0690
40
3.6810
50
-90.0000
51
-34.9912
0
ARC
8
FLEX_LINEA_MEDIA
10
5.2743
20
0.1388
40
17.9939
50
-34.9912
51
-26.3737
0
ARC
8
FLEX_LINEA_MEDIA
10
25.1407
20
-9.7117
40
4.1805
50
73.4316
51
153.6263
0
LINE
8
FLEX_LINEA_MEDIA
10
26.3328
20
-5.7048
11
29.2193
21
-6.5635
0
ARC
8
FLEX_LINEA_MEDIA
10
30.5000
20
-2.2587
40
4.4913
50
-106.5684
51
-90.0000
0
LINE
8
FLEX_LINEA_MEDIA
10
30.5000
20
-6.7500
11
31.5000
21
-6.7500
0
LINE
8
FLEX_CARA_A
10
16.0000
20
-11.6500
11
17.0000
21
-11.6500
0
ARC
8
FLEX_CARA_A
10
17.0000
20
-8.0690
40
3.5810
50
-90.0000
51
-34.9912
0
ARC
8
FLEX_CARA_A
10
5.2743
20
0.1388
40
17.8939
50
-34.9912
51
-26.3737
0
ARC
8
FLEX_CARA_A
10
25.1407
20
-9.7117
40
4.2805
50
73.4316
51
153.6263
0
LINE
8
FLEX_CARA_A
10
26.3613
20
-5.6089
11
29.2478
21
-6.4677
0
ARC
8
FLEX_CARA_A
10
30.5000
20
-2.2587
40
4.3913
50
-106.5684
51
-90.0000
0
LINE
8
FLEX_CARA_A
10
30.5000
20
-6.6500
11
31.5000
21
-6.6500
0
LINE
8
FLEX_CARA_B
10
16.0000
20
-11.8500
11
17.0000
21
-11.8500
0
ARC
8
FLEX_CARA_B
10
17.0000
20
-8.0690
40
3.7810
50
-90.0000
51
-34.9912
0
ARC
8
FLEX_CARA_B
10
5.2743
20
0.1388
40
18.0939
50
-34.9912
51
-26.3737
0
ARC
8
FLEX_CARA_B
10
25.1407
20
-9.7117
40
4.0805
50
73.4316
51
153.6263
0
LINE
8
FLEX_CARA_B
10
26.3043
20
-5.8006
11
29.1908
21
-6.6594
0
ARC
8
FLEX_CARA_B
10
30.5000
20
-2.2587
40
4.5913
50
-106.5684
51
-90.0000
0
LINE
8
FLEX_CARA_B
10
30.5000
20
-6.8500
11
31.5000
21
-6.8500
0
LINE
8
PESTANA_FIJA
10
4.0000
20
-12.6500
11
16.0000
21
-12.6500
0
LINE
8
PESTANA_FIJA
10
16.0000
20
-12.6500
11
16.0000
21
-11.6500
0
LINE
8
PESTANA_FIJA
10
16.0000
20
-11.6500
11
4.0000
21
-11.6500
0
LINE
8
PESTANA_FIJA
10
4.0000
20
-11.6500
11
4.0000
21
-12.6500
0
LINE
8
PLACA_CONECTOR_NOMINAL
10
31.5000
20
-7.6500
11
52.0000
21
-7.6500
0
LINE
8
PLACA_CONECTOR_NOMINAL
10
52.0000
20
-7.6500
11
52.0000
21
-6.6500
0
LINE
8
PLACA_CONECTOR_NOMINAL
10
52.0000
20
-6.6500
11
31.5000
21
-6.6500
0
LINE
8
PLACA_CONECTOR_NOMINAL
10
31.5000
20
-6.6500
11
31.5000
21
-7.6500
0
LINE
8
PLACA_CONECTOR_RETRAIDA
10
31.5000
20
-19.6500
11
52.0000
21
-19.6500
0
LINE
8
PLACA_CONECTOR_RETRAIDA
10
52.0000
20
-19.6500
11
52.0000
21
-18.6500
0
LINE
8
PLACA_CONECTOR_RETRAIDA
10
52.0000
20
-18.6500
11
31.5000
21
-18.6500
0
LINE
8
PLACA_CONECTOR_RETRAIDA
10
31.5000
20
-18.6500
11
31.5000
21
-19.6500
0
LINE
8
PANEL
10
0.0000
20
0.0000
11
52.0000
21
0.0000
0
LINE
8
LIMITE_52
10
0.0000
20
-30.0000
11
0.0000
21
2.0000
0
LINE
8
LIMITE_52
10
52.0000
20
-30.0000
11
52.0000
21
2.0000
0
ENDSEC
0
EOF
