0
SECTION
2
ENTITIES
0
LINE
8
FLEX_LINEA_MEDIA
10
16.0000
20
-12.7500
11
17.0000
21
-12.7500
0
ARC
8
FLEX_LINEA_MEDIA
10
17.0000
20
-8.2751
40
4.4749
50
-90.0000
51
-32.3472
0
LINE
8
FLEX_LINEA_MEDIA
10
20.7805
20
-10.6694
11
22.0525
21
-8.6609
0
ARC
8
FLEX_LINEA_MEDIA
10
26.0156
20
-11.1709
40
4.6910
50
79.6544
51
147.6528
0
ARC
8
FLEX_LINEA_MEDIA
10
29.0000
20
5.1774
40
11.9274
50
-100.3456
51
-90.0000
0
LINE
8
FLEX_LINEA_MEDIA
10
29.0000
20
-6.7500
11
30.0000
21
-6.7500
0
LINE
8
FLEX_CARA_A
10
16.0000
20
-12.6500
11
17.0000
21
-12.6500
0
ARC
8
FLEX_CARA_A
10
17.0000
20
-8.2751
40
4.3749
50
-90.0000
51
-32.3472
0
LINE
8
FLEX_CARA_A
10
20.6960
20
-10.6159
11
21.9680
21
-8.6074
0
ARC
8
FLEX_CARA_A
10
26.0156
20
-11.1709
40
4.7910
50
79.6544
51
147.6528
0
ARC
8
FLEX_CARA_A
10
29.0000
20
5.1774
40
11.8274
50
-100.3456
51
-90.0000
0
LINE
8
FLEX_CARA_A
10
29.0000
20
-6.6500
11
30.0000
21
-6.6500
0
LINE
8
FLEX_CARA_B
10
16.0000
20
-12.8500
11
17.0000
21
-12.8500
0
ARC
8
FLEX_CARA_B
10
17.0000
20
-8.2751
40
4.5749
50
-90.0000
51
-32.3472
0
LINE
8
FLEX_CARA_B
10
20.8649
20
-10.7229
11
22.1370
21
-8.7144
0
ARC
8
FLEX_CARA_B
10
26.0156
20
-11.1709
40
4.5910
50
79.6544
51
147.6528
0
ARC
8
FLEX_CARA_B
10
29.0000
20
5.1774
40
12.0274
50
-100.3456
51
-90.0000
0
LINE
8
FLEX_CARA_B
10
29.0000
20
-6.8500
11
30.0000
21
-6.8500
0
LINE
8
PESTANA_FIJA
10
4.0000
20
-13.6500
11
16.0000
21
-13.6500
0
LINE
8
PESTANA_FIJA
10
16.0000
20
-13.6500
11
16.0000
21
-12.6500
0
LINE
8
PESTANA_FIJA
10
16.0000
20
-12.6500
11
4.0000
21
-12.6500
0
LINE
8
PESTANA_FIJA
10
4.0000
20
-12.6500
11
4.0000
21
-13.6500
0
LINE
8
PLACA_CONECTOR_NOMINAL
10
30.0000
20
-7.6500
11
52.0000
21
-7.6500
0
LINE
8
PLACA_CONECTOR_NOMINAL
10
52.0000
20
-7.6500
11
52.0000
21
-6.6500
0
LINE
8
PLACA_CONECTOR_NOMINAL
10
52.0000
20
-6.6500
11
30.0000
21
-6.6500
0
LINE
8
PLACA_CONECTOR_NOMINAL
10
30.0000
20
-6.6500
11
30.0000
21
-7.6500
0
LINE
8
PLACA_CONECTOR_RETRAIDA
10
30.0000
20
-19.6500
11
52.0000
21
-19.6500
0
LINE
8
PLACA_CONECTOR_RETRAIDA
10
52.0000
20
-19.6500
11
52.0000
21
-18.6500
0
LINE
8
PLACA_CONECTOR_RETRAIDA
10
52.0000
20
-18.6500
11
30.0000
21
-18.6500
0
LINE
8
PLACA_CONECTOR_RETRAIDA
10
30.0000
20
-18.6500
11
30.0000
21
-19.6500
0
LINE
8
PANEL
10
0.0000
20
0.0000
11
52.0000
21
0.0000
0
LINE
8
LIMITE_52
10
0.0000
20
-30.0000
11
0.0000
21
2.0000
0
LINE
8
LIMITE_52
10
52.0000
20
-30.0000
11
52.0000
21
2.0000
0
ENDSEC
0
EOF
