0
SECTION
2
ENTITIES
0
LINE
8
FLEX_LINEA_MEDIA
10
16.0000
20
-12.7500
11
17.0000
21
-12.7500
0
ARC
8
FLEX_LINEA_MEDIA
10
17.0000
20
-7.1157
40
5.6343
50
-90.0000
51
-38.6649
0
LINE
8
FLEX_LINEA_MEDIA
10
21.3994
20
-10.6358
11
22.9447
21
-8.7045
0
ARC
8
FLEX_LINEA_MEDIA
10
27.4490
20
-12.3086
40
5.7687
50
82.1205
51
141.3351
0
ARC
8
FLEX_LINEA_MEDIA
10
30.5000
20
9.7370
40
16.4870
50
-97.8795
51
-90.0000
0
LINE
8
FLEX_LINEA_MEDIA
10
30.5000
20
-6.7500
11
31.5000
21
-6.7500
0
LINE
8
FLEX_CARA_A
10
16.0000
20
-12.6500
11
17.0000
21
-12.6500
0
ARC
8
FLEX_CARA_A
10
17.0000
20
-7.1157
40
5.5343
50
-90.0000
51
-38.6649
0
LINE
8
FLEX_CARA_A
10
21.3213
20
-10.5733
11
22.8666
21
-8.6420
0
ARC
8
FLEX_CARA_A
10
27.4490
20
-12.3086
40
5.8687
50
82.1205
51
141.3351
0
ARC
8
FLEX_CARA_A
10
30.5000
20
9.7370
40
16.3870
50
-97.8795
51
-90.0000
0
LINE
8
FLEX_CARA_A
10
30.5000
20
-6.6500
11
31.5000
21
-6.6500
0
LINE
8
FLEX_CARA_B
10
16.0000
20
-12.8500
11
17.0000
21
-12.8500
0
ARC
8
FLEX_CARA_B
10
17.0000
20
-7.1157
40
5.7343
50
-90.0000
51
-38.6649
0
LINE
8
FLEX_CARA_B
10
21.4774
20
-10.6983
11
23.0228
21
-8.7670
0
ARC
8
FLEX_CARA_B
10
27.4490
20
-12.3086
40
5.6687
50
82.1205
51
141.3351
0
ARC
8
FLEX_CARA_B
10
30.5000
20
9.7370
40
16.5870
50
-97.8795
51
-90.0000
0
LINE
8
FLEX_CARA_B
10
30.5000
20
-6.8500
11
31.5000
21
-6.8500
0
LINE
8
PESTANA_FIJA
10
4.0000
20
-13.6500
11
16.0000
21
-13.6500
0
LINE
8
PESTANA_FIJA
10
16.0000
20
-13.6500
11
16.0000
21
-12.6500
0
LINE
8
PESTANA_FIJA
10
16.0000
20
-12.6500
11
4.0000
21
-12.6500
0
LINE
8
PESTANA_FIJA
10
4.0000
20
-12.6500
11
4.0000
21
-13.6500
0
LINE
8
PLACA_CONECTOR_NOMINAL
10
31.5000
20
-7.6500
11
52.0000
21
-7.6500
0
LINE
8
PLACA_CONECTOR_NOMINAL
10
52.0000
20
-7.6500
11
52.0000
21
-6.6500
0
LINE
8
PLACA_CONECTOR_NOMINAL
10
52.0000
20
-6.6500
11
31.5000
21
-6.6500
0
LINE
8
PLACA_CONECTOR_NOMINAL
10
31.5000
20
-6.6500
11
31.5000
21
-7.6500
0
LINE
8
PLACA_CONECTOR_RETRAIDA
10
31.5000
20
-19.6500
11
52.0000
21
-19.6500
0
LINE
8
PLACA_CONECTOR_RETRAIDA
10
52.0000
20
-19.6500
11
52.0000
21
-18.6500
0
LINE
8
PLACA_CONECTOR_RETRAIDA
10
52.0000
20
-18.6500
11
31.5000
21
-18.6500
0
LINE
8
PLACA_CONECTOR_RETRAIDA
10
31.5000
20
-18.6500
11
31.5000
21
-19.6500
0
LINE
8
PANEL
10
0.0000
20
0.0000
11
52.0000
21
0.0000
0
LINE
8
LIMITE_52
10
0.0000
20
-30.0000
11
0.0000
21
2.0000
0
LINE
8
LIMITE_52
10
52.0000
20
-30.0000
11
52.0000
21
2.0000
0
ENDSEC
0
EOF
